<?xml version="1.0" standalone="no"?>
<!DOCTYPE svg PUBLIC "-//W3C//DTD SVG 20010904//EN"
 "http://www.w3.org/TR/2001/REC-SVG-20010904/DTD/svg10.dtd">
<svg version="1.0" xmlns="http://www.w3.org/2000/svg"
 width="640.000000pt" height="1280.000000pt" viewBox="0 0 640.000000 1280.000000"
 preserveAspectRatio="xMidYMid meet">
<metadata>
Created by potrace 1.15, written by Peter Selinger 2001-2017
</metadata>
<g transform="translate(0.000000,1280.000000) scale(0.100000,-0.100000)"
fill="#000000" stroke="none">
<path d="M2954 12628 c-724 -740 -1275 -1690 -1514 -2610 -41 -160 -84 -358
-96 -443 -8 -63 -16 -77 -26 -45 -4 14 -5 1 -2 -32 3 -31 -3 -121 -13 -200
-22 -182 -25 -856 -5 -1098 102 -1184 377 -2664 873 -4706 l81 -331 -477 -772
c-262 -425 -481 -787 -485 -804 -5 -18 -11 -363 -15 -768 l-7 -736 338 -6
c187 -4 412 -7 500 -7 l161 0 314 338 c224 241 316 335 322 325 5 -8 27 -13
62 -13 l55 0 0 -360 0 -360 150 0 150 0 0 360 0 360 80 0 79 0 288 -310 288
-311 190 6 c105 3 329 8 499 11 l308 6 -6 397 c-3 218 -9 559 -12 758 l-6 363
-441 712 c-242 392 -442 720 -444 728 -2 8 37 180 86 381 485 1973 775 3524
877 4689 22 252 30 761 15 954 -52 666 -206 1236 -506 1871 -278 592 -748
1251 -1223 1718 l-109 107 -80 0 -80 0 -169 -172z"/>
</g>
</svg>
