<?xml version="1.0" standalone="no"?>
<!DOCTYPE svg PUBLIC "-//W3C//DTD SVG 20010904//EN"
 "http://www.w3.org/TR/2001/REC-SVG-20010904/DTD/svg10.dtd">
<svg version="1.0" xmlns="http://www.w3.org/2000/svg"
 width="640.000000pt" height="1280.000000pt" viewBox="0 0 640.000000 1280.000000"
 preserveAspectRatio="xMidYMid meet">
<metadata>
Created by potrace 1.15, written by Peter Selinger 2001-2017
</metadata>
<g transform="translate(0.000000,1280.000000) scale(0.100000,-0.100000)"
fill="#000000" stroke="none">
<path d="M612 12791 c-57 -5 -105 -11 -108 -13 -4 -4 13 -131 47 -353 16 -107
73 -439 89 -520 6 -27 31 -153 56 -280 26 -126 50 -246 54 -265 4 -19 15 -71
25 -115 29 -140 107 -460 160 -664 170 -648 358 -1175 521 -1464 l55 -98 47
35 c793 579 2300 1656 2312 1652 88 -29 90 -31 95 -61 3 -16 16 -120 30 -230
310 -2520 561 -5199 670 -7165 79 -1441 86 -1795 42 -2260 -35 -364 -46 -553
-38 -610 18 -120 122 -241 263 -308 117 -56 171 -67 333 -67 167 0 224 15 293
78 82 76 107 153 146 447 120 899 99 1579 -130 4060 -129 1407 -149 1695 -141
2027 11 450 82 804 327 1621 140 468 143 485 135 627 -14 255 -114 905 -275
1790 -39 215 -72 396 -73 404 -1 10 30 20 123 37 162 30 216 46 213 65 -12 90
-236 1475 -239 1478 -2 3 -84 -13 -182 -34 -97 -21 -184 -38 -192 -39 -8 -1
-17 11 -20 29 -5 25 -10 30 -30 27 -14 -1 -187 -41 -385 -88 -865 -205 -1022
-242 -1052 -249 -28 -6 -32 -10 -27 -30 5 -21 1 -24 -48 -35 -29 -6 -83 -14
-119 -17 -62 -5 -76 -2 -275 66 -881 303 -1471 451 -2039 511 -135 14 -535 20
-663 11z"/>
</g>
</svg>
