<?xml version="1.0" standalone="no"?>
<!DOCTYPE svg PUBLIC "-//W3C//DTD SVG 20010904//EN"
 "http://www.w3.org/TR/2001/REC-SVG-20010904/DTD/svg10.dtd">
<svg version="1.0" xmlns="http://www.w3.org/2000/svg"
 width="733.000000pt" height="1280.000000pt" viewBox="0 0 733.000000 1280.000000"
 preserveAspectRatio="xMidYMid meet">
<metadata>
Created by potrace 1.15, written by Peter Selinger 2001-2017
</metadata>
<g transform="translate(0.000000,1280.000000) scale(0.100000,-0.100000)"
fill="#000000" stroke="none">
<path d="M3575 12786 c-95 -22 -136 -44 -380 -206 -2089 -1386 -2833 -2539
-2747 -4262 30 -607 116 -1145 373 -2348 183 -853 270 -1183 486 -1834 l95
-288 -50 -52 c-27 -28 -343 -352 -701 -721 l-651 -669 0 -1203 0 -1203 890 0
890 0 466 335 465 335 260 0 259 0 0 -270 0 -270 390 0 390 0 0 133 c0 74 3
195 7 270 l6 137 298 0 297 0 466 -335 466 -335 890 0 890 0 0 1203 0 1202
-477 491 c-263 270 -604 620 -757 778 l-279 286 37 123 c341 1126 698 2480
830 3152 114 580 152 965 143 1435 -6 294 -23 467 -67 690 -188 941 -712 1741
-1670 2551 -384 324 -1064 804 -1212 856 -88 31 -218 39 -303 19z"/>
</g>
</svg>
