<?xml version="1.0" standalone="no"?>
<!DOCTYPE svg PUBLIC "-//W3C//DTD SVG 20010904//EN"
 "http://www.w3.org/TR/2001/REC-SVG-20010904/DTD/svg10.dtd">
<svg version="1.0" xmlns="http://www.w3.org/2000/svg"
 width="1280.000000pt" height="1280.000000pt" viewBox="0 0 1280.000000 1280.000000"
 preserveAspectRatio="xMidYMid meet">
<metadata>
Created by potrace 1.15, written by Peter Selinger 2001-2017
</metadata>
<g transform="translate(0.000000,1280.000000) scale(0.100000,-0.100000)"
fill="#000000" stroke="none">
<path d="M12586 12784 c-189 -29 -301 -71 -651 -246 -702 -351 -1328 -765
-2139 -1416 -955 -767 -1297 -1055 -1796 -1517 -821 -760 -2340 -2279 -3275
-3275 -768 -819 -1334 -1468 -1470 -1684 -22 -35 -108 -138 -190 -228 -509
-554 -830 -962 -926 -1177 l-33 -74 -448 8 c-247 4 -566 4 -711 0 l-262 -6
-265 -267 c-258 -260 -376 -393 -407 -458 -15 -31 -15 -33 18 -80 39 -56 333
-425 561 -701 87 -105 158 -195 158 -199 0 -4 -10 -18 -22 -32 l-23 -24 30
-54 c38 -68 204 -282 270 -349 67 -66 281 -232 349 -270 l54 -30 24 23 c14 12
27 22 31 22 4 0 154 -120 333 -266 376 -307 601 -484 615 -484 22 0 73 34 161
107 119 99 565 538 586 578 15 27 16 100 15 725 l-1 695 111 58 c224 115 596
410 1106 877 110 100 233 204 273 230 138 89 503 395 958 806 752 678 1639
1532 2665 2565 1115 1124 1633 1683 2196 2370 288 351 747 923 883 1098 433
559 811 1136 1075 1641 118 227 253 511 284 595 35 99 65 245 73 358 l7 97
-64 -1 c-35 -1 -104 -7 -153 -15z"/>
</g>
</svg>
