<?xml version="1.0" standalone="no"?>
<!DOCTYPE svg PUBLIC "-//W3C//DTD SVG 20010904//EN"
 "http://www.w3.org/TR/2001/REC-SVG-20010904/DTD/svg10.dtd">
<svg version="1.0" xmlns="http://www.w3.org/2000/svg"
 width="1280.000000pt" height="638.000000pt" viewBox="0 0 1280.000000 638.000000"
 preserveAspectRatio="xMidYMid meet">
<metadata>
Created by potrace 1.15, written by Peter Selinger 2001-2017
</metadata>
<g transform="translate(0.000000,638.000000) scale(0.100000,-0.100000)"
fill="#000000" stroke="none">
<path d="M11520 5880 c-118 -33 -125 -37 -150 -90 -13 -27 -30 -52 -39 -54 -9
-3 -95 -24 -191 -47 -96 -23 -211 -50 -255 -60 -178 -43 -635 -148 -695 -161
-25 -5 -124 -27 -220 -48 -178 -39 -197 -43 -400 -85 -63 -14 -203 -43 -310
-65 -107 -23 -212 -44 -232 -47 l-37 -6 -99 204 c-55 112 -108 212 -119 221
-15 14 -55 21 -169 32 -233 23 -447 45 -599 61 -77 8 -210 22 -295 30 -85 9
-243 24 -350 35 -107 11 -287 29 -398 40 -112 11 -241 24 -285 29 -185 22
-262 24 -276 8 -12 -15 17 -96 114 -312 62 -136 218 -504 222 -520 4 -20 1
-20 -139 -17 -108 2 -151 7 -176 19 -26 13 -37 14 -58 5 -13 -7 -39 -12 -57
-13 -18 0 -102 -26 -187 -58 l-155 -56 1 -45 c0 -25 8 -99 17 -165 9 -65 17
-124 17 -130 0 -7 -20 -17 -45 -23 -150 -39 -135 -31 -135 -78 l0 -43 -75 -12
c-41 -6 -75 -15 -75 -20 0 -4 5 -20 12 -33 9 -21 8 -29 -6 -45 -11 -12 -19
-45 -24 -95 l-7 -77 -95 -4 c-94 -3 -264 -36 -385 -75 -229 -74 -225 -72 -225
-100 0 -30 -101 -90 -151 -90 -32 0 -54 -9 -100 -41 -56 -40 -59 -44 -59 -84
0 -69 -73 -155 -131 -155 -20 0 -41 -15 -79 -57 -52 -56 -52 -57 -45 -108 l6
-51 -106 -24 c-87 -20 -105 -26 -99 -39 4 -9 9 -27 12 -41 2 -14 8 -29 12 -35
5 -5 10 -25 12 -44 l3 -34 -100 -19 c-55 -10 -109 -21 -120 -23 -12 -3 -42
-39 -73 -90 l-54 -85 -104 0 c-80 0 -104 3 -104 13 0 20 -35 48 -52 42 -32
-13 1 -105 39 -105 7 0 13 -4 13 -10 0 -5 -9 -10 -19 -10 -11 0 -23 -4 -26
-10 -3 -5 -21 -10 -40 -10 -30 0 -34 4 -40 33 -4 17 -9 40 -11 50 -6 19 -39
22 -78 7 -23 -8 -26 -15 -26 -55 0 -55 -6 -57 -140 -53 -87 3 -96 5 -105 25
-13 31 -54 37 -104 17 -47 -19 -19 -23 -341 51 -113 25 -241 54 -285 64 -72
16 -136 35 -218 64 -17 6 -36 25 -48 48 -21 42 -45 59 -82 59 -33 0 -37 -7
-20 -40 19 -39 12 -47 -45 -55 -26 -3 -78 -21 -116 -39 -58 -28 -71 -39 -80
-67 -12 -36 -14 -37 -86 -19 -26 7 -103 10 -180 9 -91 -2 -150 2 -181 11 -66
19 -83 10 -75 -40 6 -38 5 -40 -18 -40 -14 0 -28 -5 -31 -10 -4 -6 -25 -8 -53
-4 -103 13 -143 -46 -51 -76 44 -15 45 -16 36 -47 -10 -34 -28 -43 -88 -43
-43 0 -163 -58 -167 -81 -4 -21 41 -47 133 -78 39 -13 127 -44 197 -68 l127
-45 44 -67 c25 -36 57 -87 72 -114 15 -26 31 -47 35 -47 5 0 43 5 85 11 66 9
83 8 119 -7 35 -14 92 -17 373 -22 336 -5 556 5 738 33 l90 13 220 -55 c386
-96 545 -130 830 -178 116 -19 215 -37 221 -39 6 -2 16 -29 23 -60 12 -53 11
-57 -12 -88 -13 -18 -23 -37 -22 -43 2 -5 11 -44 20 -85 16 -69 23 -82 86
-153 76 -86 87 -112 71 -171 -10 -37 -8 -47 15 -96 41 -86 57 -104 151 -167
48 -32 90 -62 93 -66 4 -5 2 -26 -3 -47 -8 -30 -6 -46 7 -73 37 -79 109 -133
220 -165 58 -18 60 -19 63 -55 3 -31 10 -42 47 -67 74 -51 118 -62 216 -54
l86 6 20 -33 c15 -26 35 -40 83 -57 68 -26 128 -26 211 -2 41 12 51 11 82 -3
69 -33 236 -17 542 54 128 30 430 176 465 225 75 105 95 126 138 150 95 55
158 129 172 205 13 67 63 146 104 163 20 9 43 33 66 72 35 58 35 58 40 206 4
117 8 151 20 159 45 30 74 39 122 39 47 0 63 6 123 46 40 25 72 54 75 66 6 25
30 37 30 15 0 -7 22 -59 50 -115 116 -237 206 -334 363 -389 93 -32 174 -29
267 11 42 19 96 32 155 39 88 10 91 9 129 -16 48 -34 90 -41 176 -33 39 4 105
2 154 -5 135 -19 286 10 454 87 29 13 55 24 58 24 3 0 29 16 59 35 30 19 70
41 87 49 40 17 68 43 97 90 12 19 65 70 117 112 101 82 119 107 130 173 4 24
13 42 23 45 9 3 58 17 109 31 50 14 134 37 185 51 50 14 110 30 132 36 82 19
175 50 175 58 0 5 -48 68 -106 141 -95 118 -115 151 -196 318 -50 102 -90 198
-90 213 1 23 36 133 73 224 16 41 7 61 -38 81 -21 10 -39 18 -41 19 -2 1 10
74 27 161 29 154 54 312 69 443 7 61 9 65 35 68 19 2 27 9 27 23 0 16 7 19 46
19 44 0 46 -2 61 -39 13 -35 21 -41 55 -46 22 -4 41 -5 44 -3 2 3 -3 21 -11
41 -19 46 -19 47 6 47 13 0 25 11 34 34 12 29 20 34 67 44 43 8 56 8 69 -4 29
-26 165 -13 174 17 4 11 14 19 24 19 10 0 29 8 42 19 15 11 48 20 85 23 130
12 156 46 162 211 l4 117 38 0 c48 0 100 18 100 35 0 11 -15 13 -70 8 -59 -5
-70 -3 -70 10 0 11 18 18 68 26 225 38 266 46 292 63 22 13 30 25 30 47 0 17
-5 33 -10 36 -17 10 1 58 36 98 29 31 34 45 34 85 0 61 -17 93 -60 114 -29 15
-36 25 -40 55 -5 38 -5 38 -60 44 -30 4 -63 10 -73 14 -9 4 -24 2 -32 -5 -21
-18 -100 -16 -129 3 -14 10 -36 17 -49 17 -64 0 -18 18 174 67 l211 54 34 -26
c38 -29 65 -31 142 -9 120 35 166 73 178 149 9 60 -22 290 -50 372 -25 72 -79
172 -122 222 -20 25 -81 54 -104 50 -3 0 -34 -9 -70 -19z m-1395 -2052 c-26
-164 -93 -453 -123 -528 l-10 -25 -11 30 c-7 17 -19 50 -28 75 -22 59 -36 80
-110 171 -60 73 -63 79 -63 131 0 30 -5 59 -11 65 -27 27 -1 41 99 53 60 8
128 24 169 40 94 39 96 38 88 -12z m-7951 -897 c61 -11 170 -29 241 -41 142
-23 244 -45 253 -55 3 -3 7 -13 8 -22 2 -9 5 -27 9 -40 5 -21 2 -23 -29 -23
-24 0 -38 6 -45 19 -15 27 -102 34 -109 9 -3 -14 -15 -18 -49 -18 -40 0 -52 6
-118 61 -62 51 -79 60 -106 57 -22 -2 -37 -10 -44 -24 -15 -30 -41 -54 -60
-54 -9 0 -33 10 -55 22 -35 21 -39 27 -42 71 -2 27 -1 51 1 53 7 7 31 5 145
-15z m-489 -1 c9 -15 -11 -19 -97 -22 -76 -3 -105 10 -56 24 37 10 146 9 153
-2z m2153 -11 c3 -15 -35 -39 -63 -39 -16 0 -29 35 -20 50 11 17 79 8 83 -11z
m-954 -119 c187 -29 187 -37 1 -47 -117 -6 -129 -5 -141 12 -17 24 -18 55 -1
55 6 0 70 -9 141 -20z m-1616 -39 c4 -28 -9 -44 -31 -36 -13 5 -14 12 -5 36
12 34 31 34 36 0z m-158 -95 c0 -16 -30 -26 -83 -26 -25 0 -36 4 -32 11 17 27
115 40 115 15z m110 -36 c0 -5 -16 -10 -36 -10 -21 0 -33 4 -29 10 3 6 19 10
36 10 16 0 29 -4 29 -10z m6265 -640 c4 -13 15 -20 31 -20 34 0 30 -17 -11
-41 -19 -12 -35 -29 -35 -39 0 -26 -64 -78 -105 -86 -61 -11 -66 -4 -46 68 15
53 22 64 42 66 13 2 41 8 62 13 35 9 38 13 33 35 -8 30 19 34 29 4z m155 -25
c20 -22 22 -27 10 -55 -12 -29 -10 -33 36 -96 39 -54 64 -75 124 -109 56 -32
76 -49 78 -66 4 -28 43 -72 90 -101 19 -12 71 -26 124 -34 83 -12 128 -32 128
-55 0 -14 -74 -32 -130 -32 -102 0 -219 58 -300 150 -42 48 -119 178 -186 315
-32 65 -36 79 -25 92 18 21 23 20 51 -9z"/>
</g>
</svg>
