<?xml version="1.0" encoding="utf-8"?>
<!-- Svg Vector Icons : http://www.onlinewebfonts.com/icon -->
<!DOCTYPE svg PUBLIC "-//W3C//DTD SVG 1.1//EN" "http://www.w3.org/Graphics/SVG/1.1/DTD/svg11.dtd">
<svg version="1.1" xmlns="http://www.w3.org/2000/svg" xmlns:xlink="http://www.w3.org/1999/xlink" x="0px" y="0px" viewBox="0 0 1000 1000" enable-background="new 0 0 1000 1000" xml:space="preserve">
<metadata> Svg Vector Icons : http://www.onlinewebfonts.com/icon </metadata>
<g><g transform="translate(0.000000,511.000000) scale(0.100000,-0.100000)"><path d="M3588.7,4355c-323.5-88.6-604.6-358.1-710.5-681.6c-34.7-109.7-42.4-184.8-50-564.1l-7.7-437l-1120.5-5.8l-1118.6-5.8l-90.5-44.3c-142.5-71.2-258-184.8-327.3-327.3l-63.5-129v-885.7c0-874.1,0-887.6,44.3-1030.1C281-188.8,592.9-518,1012.6-668.2l165.6-59.7l1561.5-5.8l1561.5-3.8l11.5,177.1c19.3,327.3,142.5,531.4,394.7,654.6c113.6,57.8,146.3,63.5,292.7,63.5c146.3,0,179.1-5.8,292.7-63.5c252.2-123.2,373.5-323.5,394.7-652.7l11.5-181l1561.5,5.8l1561.4,5.8l165.6,59.7c410.1,146.3,716.2,462.1,862.6,889.5l50,148.3v895.3v895.3l-63.5,129c-77,155.9-213.7,286.9-362,340.8c-102.1,38.5-142.5,40.4-1199.5,40.4H7179.5l-7.7,439c-7.7,379.3-15.4,454.4-50,564.1c-107.8,329.2-387,594.9-718.2,681.6C6257.2,4395.5,3729.3,4393.5,3588.7,4355z M6265,3681.2c92.4-38.5,136.7-78.9,181-167.5c32.7-63.5,36.6-117.4,36.6-458.2v-385.1H5000H3517.5v385.1c0,340.8,3.9,394.7,36.6,458.2c44.3,86.6,88.6,127.1,175.2,165.6C3831.3,3723.5,6161,3723.5,6265,3681.2z"/><path d="M4838.3-92.5c-90.5-30.8-192.5-127.1-248.4-231c-38.5-71.2-42.4-104-42.4-423.6c0-321.5,3.9-352.3,42.4-425.5c144.4-269.6,475.6-338.9,698.9-146.3c148.3,127.1,163.7,177.1,163.7,571.8c0,319.6-3.9,352.3-42.4,425.5C5296.5-107.9,5059.7-13.6,4838.3-92.5z"/><path d="M440.8-2312.4l5.8-1559.5l57.8-82.8c32.7-46.2,96.3-109.7,142.5-142.5l82.8-57.8l4247.3-5.8l4245.4-3.9l84.7,40.4c104,50.1,206,169.4,234.9,273.4c15.4,57.8,21.2,494.8,17.3,1584.6l-5.8,1503.7L9391.7-855c-171.3-98.2-381.2-175.2-568-207.9c-73.2-13.5-656.5-21.2-1628.8-21.2H5679.6l-23.1-80.9c-55.8-186.7-198.3-350.4-387-437c-86.6-40.4-134.8-50.1-269.6-50.1s-182.9,9.6-269.6,50.1c-188.7,86.6-331.2,250.3-387,437l-23.1,80.9H2805.1c-972.3,0-1555.7,7.7-1628.8,21.2c-221.4,38.5-487.1,144.4-677.7,269.6l-61.6,40.4L440.8-2312.4z"/></g></g>
</svg>