<?xml version="1.0" standalone="no"?>
<!DOCTYPE svg PUBLIC "-//W3C//DTD SVG 20010904//EN"
 "http://www.w3.org/TR/2001/REC-SVG-20010904/DTD/svg10.dtd">
<svg version="1.0" xmlns="http://www.w3.org/2000/svg"
 width="981.000000pt" height="1280.000000pt" viewBox="0 0 981.000000 1280.000000"
 preserveAspectRatio="xMidYMid meet">
<metadata>
Created by potrace 1.15, written by Peter Selinger 2001-2017
</metadata>
<g transform="translate(0.000000,1280.000000) scale(0.100000,-0.100000)"
fill="#000000" stroke="none">
<path d="M3042 12780 c-55 -34 -68 -81 -81 -285 -6 -99 -36 -596 -66 -1105
-31 -508 -57 -926 -59 -927 -2 -2 -11 0 -21 3 -13 5 -16 14 -11 38 14 68 19
243 7 250 -6 4 -11 18 -11 32 0 33 -67 102 -106 110 -23 4 -37 -1 -68 -25 -21
-17 -42 -31 -45 -31 -4 0 -17 -68 -30 -151 -25 -160 -24 -168 22 -169 9 0 17
-7 17 -15 0 -8 -6 -15 -14 -15 -7 0 -19 -6 -25 -14 -20 -24 15 -48 65 -44 58
4 57 -15 0 -24 -54 -7 -66 -14 -66 -35 0 -12 11 -14 53 -11 46 3 52 1 52 -17
0 -17 -8 -21 -57 -25 -92 -8 -93 -27 -2 -45 30 -6 54 -15 54 -20 -1 -11 -22
-11 -62 0 -34 9 -49 -17 -24 -43 13 -15 14 -28 6 -78 -9 -52 -7 -65 10 -99 11
-22 20 -58 20 -80 0 -37 3 -43 34 -58 34 -16 35 -15 50 9 22 33 42 30 55 -7
13 -39 27 -31 35 21 16 103 28 139 46 145 15 5 18 15 17 63 -2 63 10 132 22
132 4 0 11 -42 15 -92 5 -76 -12 -278 -94 -1141 l-100 -1048 -30 -27 c-57 -53
-64 -172 -10 -172 11 0 20 -4 20 -10 0 -5 -8 -10 -19 -10 -36 0 -70 -39 -91
-107 -11 -36 -20 -77 -20 -92 0 -15 -8 -31 -20 -39 -16 -10 -20 -10 -20 1 0
18 -98 127 -114 127 -23 0 -49 -39 -71 -105 -21 -61 -35 -74 -35 -33 0 24 -28
79 -49 95 -24 18 -51 16 -51 -4 0 -10 5 -36 9 -58 5 -22 12 -71 16 -110 7 -67
6 -69 -10 -47 -9 12 -22 22 -30 22 -7 0 -17 9 -20 20 -15 47 -115 132 -115 98
0 -59 -32 -564 -41 -643 -25 -234 -26 -238 -168 -500 -111 -206 -127 -241
-114 -250 20 -15 9 -52 -17 -60 -27 -9 -34 -35 -9 -35 27 0 17 -13 -34 -48
l-42 -29 -345 23 c-408 27 -453 28 -448 12 2 -6 17 -16 33 -21 15 -5 43 -19
60 -31 18 -11 41 -26 51 -33 16 -10 8 -12 -46 -13 -69 0 -105 -12 -75 -24 17
-6 106 -17 294 -35 51 -5 96 -14 100 -20 4 -6 41 -10 96 -9 91 1 353 -28 390
-43 12 -5 -1 -6 -35 -4 -30 3 -163 9 -295 15 -132 6 -270 13 -307 16 -95 7
-89 -24 9 -51 47 -13 48 -13 13 -14 -20 -1 -40 -5 -45 -10 -19 -17 -111 -29
-188 -24 -55 4 -77 2 -77 -6 0 -17 45 -31 103 -31 29 0 61 -6 72 -14 40 -27
103 -37 310 -46 195 -9 389 -30 402 -44 18 -17 -370 0 -643 29 -125 14 -250
37 -263 50 -12 12 -10 107 3 155 l14 54 -29 37 c-24 30 -44 42 -105 61 l-76
23 48 7 c63 9 72 19 51 63 l-17 35 -139 0 -138 0 -22 -102 c-32 -153 -40 -237
-41 -399 l0 -147 37 13 c27 9 43 10 57 3 11 -6 244 -26 519 -44 275 -18 501
-35 503 -37 2 -1 -136 -107 -306 -235 -275 -206 -331 -252 -302 -252 4 0 48
30 97 66 l90 65 -78 -73 c-42 -41 -77 -82 -77 -91 0 -10 -15 -27 -34 -38 -69
-40 -55 -85 16 -50 25 11 52 21 62 21 9 0 35 9 57 21 47 23 53 21 43 -15 -5
-22 -12 -26 -41 -26 -34 0 -96 -33 -260 -137 l-51 -32 20 -63 c27 -82 28 -271
3 -413 -65 -375 -149 -651 -286 -935 -51 -105 -70 -134 -119 -180 l-59 -55 90
-244 90 -244 -190 -466 c-183 -450 -190 -468 -180 -506 6 -22 13 -201 16 -398
3 -196 9 -357 13 -357 14 0 84 -78 138 -154 42 -59 58 -76 64 -65 5 8 38 68
75 134 36 66 130 224 209 350 78 127 193 318 254 425 220 382 349 555 625 839
130 134 339 321 358 321 11 0 257 -140 257 -146 0 -2 -50 -29 -111 -60 -61
-30 -108 -58 -104 -62 3 -4 29 -23 57 -42 50 -34 54 -41 147 -240 l96 -205 -1
-185 c-1 -183 -10 -275 -55 -545 -25 -155 -24 -152 -68 -174 -35 -18 -39 -26
-69 -122 -18 -56 -31 -104 -28 -106 2 -2 26 12 53 33 26 20 63 43 81 51 32 13
72 10 72 -6 0 -4 -32 -29 -70 -55 -206 -141 -276 -334 -220 -605 10 -51 21
-95 22 -97 5 -4 111 66 120 80 4 6 8 43 8 83 0 217 81 385 204 426 33 11 42
19 49 48 27 107 27 107 47 102 25 -7 50 13 50 38 0 15 -7 19 -35 19 -24 0 -37
6 -45 19 -20 38 -7 417 25 746 21 208 19 240 -19 410 -19 83 -32 152 -30 154
2 2 25 -5 52 -16 46 -19 51 -20 76 -4 25 15 29 15 63 -4 31 -17 40 -32 66
-100 37 -99 38 -189 8 -440 -13 -106 -23 -271 -27 -438 l-7 -269 -30 -21 c-16
-12 -37 -21 -48 -19 -22 4 -34 -21 -44 -90 -7 -46 9 -128 25 -128 5 0 12 10
15 23 16 56 28 77 46 77 11 0 20 -1 20 -2 1 -2 9 -151 18 -333 l16 -330 47 -3
c39 -3 51 1 78 25 l31 28 -1 243 c0 133 3 242 6 242 4 0 15 -7 25 -16 16 -14
18 -14 27 3 5 10 15 42 22 72 20 86 -3 271 -34 271 -18 0 -36 -44 -36 -88 0
-20 -5 -44 -11 -52 -11 -15 -10 33 12 650 9 260 29 493 43 507 3 3 6 -44 6
-105 0 -71 4 -112 10 -112 6 0 32 10 58 23 40 19 63 22 161 22 l114 0 10 -35
c13 -47 2 -252 -17 -320 -9 -30 -16 -60 -16 -66 0 -7 60 -13 178 -17 125 -5
200 -12 254 -26 136 -35 272 -116 391 -233 38 -37 71 -67 72 -66 1 2 31 131
67 288 51 225 68 286 81 288 10 2 17 -3 17 -11 0 -8 -30 -157 -66 -332 -51
-249 -63 -320 -53 -331 7 -9 8 -18 2 -27 -5 -6 -36 -45 -68 -85 l-57 -74 21
-21 c20 -20 21 -20 57 -4 20 10 38 16 41 14 2 -3 -3 -22 -11 -42 -22 -51 -21
-53 22 -60 80 -14 239 -59 390 -111 136 -48 319 -104 336 -104 4 0 6 43 6 95
l0 95 68 43 c171 110 564 315 882 460 l105 48 -31 14 c-80 34 -200 68 -338 96
-235 48 -356 103 -413 188 -32 47 -29 58 18 73 36 10 48 9 88 -7 25 -10 78
-20 118 -22 43 -3 76 -10 83 -18 9 -11 21 -10 68 8 57 21 87 22 275 16 l77 -3
0 -34 c0 -22 8 -41 26 -59 25 -24 29 -25 105 -19 71 7 84 5 137 -19 l58 -26
195 95 c172 84 220 114 421 258 376 270 657 492 933 737 l110 98 -7 129 c-3
71 -6 164 -7 207 -1 57 -4 77 -14 77 -23 0 -138 -78 -190 -128 -52 -50 -117
-133 -117 -149 0 -5 12 -15 26 -22 l26 -12 -6 -102 c-4 -56 -8 -116 -9 -134
-3 -41 -27 -69 -27 -32 -1 45 -19 226 -25 252 -6 21 -45 47 -71 47 -2 0 -10
-13 -19 -30 -17 -34 -41 -41 -31 -10 3 11 9 30 13 42 5 18 -5 13 -48 -25 -113
-100 -276 -232 -331 -268 -76 -48 -310 -151 -525 -229 -179 -66 -192 -74 -174
-123 6 -15 2 -36 -12 -64 l-21 -43 27 -28 c25 -26 29 -42 41 -146 8 -65 18
-122 24 -128 6 -6 17 -6 32 2 29 16 39 4 14 -19 -14 -14 -69 -27 -207 -51
-103 -18 -189 -31 -191 -29 -2 2 3 38 10 79 9 47 13 139 13 245 l-2 169 119
56 119 56 -30 17 -30 16 43 7 c60 9 60 20 2 34 -57 14 -57 25 -3 34 60 11 73
16 73 31 0 11 -8 13 -30 9 -23 -5 -30 -3 -30 10 0 20 5 20 -64 -4 -43 -14 -63
-17 -77 -10 -14 8 -31 4 -68 -15 -28 -14 -62 -25 -75 -25 -21 0 -31 -10 -51
-50 -26 -51 -98 -110 -135 -110 -8 0 -26 -7 -39 -16 -21 -15 -22 -21 -17 -93
l6 -76 -41 86 c-36 76 -45 88 -71 93 -49 10 -269 7 -329 -4 -59 -11 -282 -30
-287 -25 -8 7 146 107 236 154 54 27 194 89 312 139 251 104 301 128 280 135
-73 23 -113 43 -146 72 -45 40 -41 46 43 64 47 11 57 11 72 -3 10 -9 34 -16
55 -16 54 0 194 37 245 66 24 13 46 24 50 24 3 0 7 -24 8 -54 1 -65 25 -114
59 -122 37 -10 82 3 117 33 36 30 123 73 149 73 25 0 196 69 241 98 22 13 41
22 43 20 2 -2 -5 -17 -15 -33 -13 -22 -35 -37 -86 -55 -73 -27 -88 -42 -57
-59 14 -8 36 -3 93 20 40 16 82 38 92 47 11 9 28 17 39 17 15 0 29 23 64 106
l45 107 53 4 c47 4 61 11 112 55 139 118 278 188 434 217 l65 12 48 94 c61
121 74 188 52 271 -8 34 -24 74 -35 89 -22 31 -7 30 -210 15 -139 -11 -350
-65 -350 -90 0 -7 -15 -22 -34 -33 -27 -16 -33 -25 -29 -45 3 -13 -2 -37 -10
-53 l-14 -28 -24 37 c-13 20 -27 37 -30 37 -4 0 -12 -28 -19 -62 -18 -95 -55
-126 -77 -67 -11 27 -15 30 -28 19 -12 -10 -15 -10 -15 4 0 9 -4 16 -10 16 -5
0 -10 -4 -10 -10 0 -5 -13 -16 -28 -24 -47 -24 -122 -239 -122 -347 0 -59 12
-79 58 -96 l23 -9 -23 -34 c-13 -18 -54 -56 -92 -84 -60 -43 -77 -50 -125 -54
-60 -4 -132 15 -139 36 -2 7 21 24 60 41 67 31 86 47 92 77 3 11 9 32 15 47 6
16 11 43 11 60 0 18 23 125 51 238 l52 205 69 12 c98 17 119 16 125 -8 6 -24
31 -23 47 2 8 14 4 24 -23 52 -56 57 -87 67 -209 66 -84 -2 -106 1 -104 11 12
46 -22 214 -70 352 -17 51 -39 128 -49 172 -33 154 -61 198 -132 212 -65 13
-59 34 25 94 40 28 96 62 125 76 48 22 54 29 74 83 39 107 83 119 94 25 10
-77 -13 -137 -67 -172 -39 -26 -40 -28 -33 -72 14 -106 61 -266 120 -411 34
-85 68 -174 75 -196 17 -58 56 -76 125 -58 28 8 57 11 66 8 9 -2 65 21 124 52
60 32 149 76 200 99 62 28 103 53 124 78 l32 36 -24 48 c-66 131 -145 354
-188 536 -13 53 -26 97 -30 97 -21 0 -124 -129 -153 -191 l-33 -70 -47 193
c-56 229 -66 272 -63 274 56 34 267 137 306 148 68 20 179 20 296 1 50 -8 123
-15 163 -15 65 0 73 -2 68 -17 -43 -140 -61 -286 -47 -375 10 -61 36 -138 46
-138 2 0 13 17 24 38 23 45 91 109 124 118 32 7 144 -49 219 -110 73 -59 112
-120 134 -209 26 -109 70 -234 94 -267 32 -45 100 -38 100 11 0 13 14 17 78
22 42 2 78 3 80 2 2 -2 -7 -20 -21 -42 -13 -21 -54 -96 -92 -168 -81 -155
-135 -244 -228 -383 -38 -57 -66 -106 -63 -109 2 -3 62 2 133 11 372 47 529
56 595 32 20 -7 55 -27 77 -45 22 -17 53 -36 69 -42 27 -9 35 -6 80 28 28 21
137 83 242 137 105 54 228 124 273 154 90 61 291 213 349 264 l37 33 6 290 6
290 -53 -100 c-84 -156 -132 -221 -257 -345 -132 -131 -241 -204 -379 -256
-119 -44 -123 -45 -135 -10 -8 23 -6 31 7 38 44 25 197 163 250 226 144 172
267 406 341 648 l12 41 -74 -39 c-109 -56 -143 -50 -143 27 0 23 18 92 40 155
l41 113 3 196 c2 108 9 256 16 329 6 74 9 137 5 140 -3 4 -57 -46 -118 -110
-122 -126 -149 -145 -313 -214 -144 -60 -326 -110 -493 -133 -162 -23 -311
-34 -311 -24 1 5 120 91 265 192 306 213 357 257 375 321 7 25 34 92 60 150
65 142 66 146 36 154 -13 3 -31 9 -39 12 -10 4 -43 -20 -94 -67 -227 -211
-490 -416 -702 -548 -131 -81 -251 -146 -251 -135 0 11 183 226 303 356 63 68
175 181 250 252 75 71 134 132 132 136 -9 15 -129 50 -290 85 -88 19 -176 39
-195 45 -19 5 -41 10 -47 10 -19 0 -16 -46 7 -90 21 -41 26 -70 12 -70 -19 0
-90 60 -110 92 -11 18 -32 44 -46 57 -26 24 -26 24 -41 5 -8 -10 -20 -40 -26
-66 -11 -42 -17 -49 -48 -59 -51 -16 -109 -51 -176 -105 -76 -62 -65 -44 107
183 76 101 141 189 144 197 7 19 -289 165 -430 211 -174 57 -175 57 -283 -13
-50 -34 -125 -89 -165 -124 -61 -53 -90 -70 -178 -103 -204 -75 -417 -168
-633 -273 l-217 -106 -44 -75 c-24 -42 -74 -137 -111 -211 -63 -123 -77 -143
-159 -225 -58 -58 -113 -102 -152 -123 -86 -45 -88 -40 -8 17 65 46 187 162
234 223 12 16 34 79 50 140 26 105 81 272 101 309 4 9 50 31 101 48 51 18 188
79 303 136 116 57 263 121 327 143 68 23 142 57 176 79 32 21 78 46 102 56 38
14 53 29 92 90 74 114 74 125 2 84 -49 -29 -184 -43 -236 -25 -82 27 -88 67
-22 152 l47 59 -23 19 c-16 13 -20 22 -13 29 7 7 15 5 26 -5 31 -31 36 -13 11
40 -9 19 -22 34 -29 34 -8 0 -23 14 -35 30 l-22 31 110 147 111 147 -247 6
c-245 6 -301 12 -397 44 -108 37 -160 80 -271 226 -40 53 -87 108 -106 124
-44 38 -153 89 -230 109 -35 8 -97 24 -138 35 -41 10 -95 26 -120 36 -77 29
-236 16 -475 -39 -349 -80 -446 -104 -620 -155 -93 -28 -196 -57 -227 -66
l-57 -16 -52 -107 c-31 -65 -54 -100 -56 -90 -6 26 25 139 46 168 43 60 201
124 531 214 86 23 119 36 107 41 -10 4 -39 5 -64 1 -40 -5 -44 -4 -33 9 11 13
8 14 -16 10 -238 -39 -227 -38 -280 -13 l-49 23 -1 80 c0 44 -8 114 -18 155
-13 56 -17 101 -13 175 7 152 39 222 171 376 64 75 65 77 55 113 -12 45 -16
44 -134 -61 -244 -215 -393 -493 -446 -829 -7 -46 -13 -187 -14 -334 -1 -238
-3 -268 -34 -460 -31 -191 -32 -205 -16 -215 9 -5 61 -42 114 -81 96 -70 97
-71 114 -133 36 -130 90 -199 184 -238 23 -10 47 -28 53 -41 12 -26 10 -26
-83 8 -48 18 -48 18 -56 -3 -5 -12 -12 -60 -16 -107 -4 -47 -13 -98 -20 -115
-18 -43 -103 -125 -152 -147 l-43 -19 0 -118 0 -118 -72 38 c-40 21 -78 39
-84 39 -6 0 -21 -23 -35 -52 -13 -29 -48 -85 -76 -126 -29 -40 -53 -83 -53
-95 0 -17 17 -31 79 -64 43 -24 83 -43 89 -43 7 0 6 12 -3 34 l-14 34 29 -11
c24 -9 32 -8 47 5 17 15 25 15 118 -11 55 -16 113 -31 129 -35 l29 -7 -29 -31
c-42 -44 -91 -73 -178 -103 -75 -27 -77 -29 -110 -89 -19 -34 -50 -103 -71
-154 -57 -145 -35 -159 81 -52 41 39 79 70 85 70 5 0 9 -12 9 -27 0 -44 44
-126 91 -172 56 -53 194 -124 217 -112 42 22 142 142 176 209 l36 72 74 0 c41
0 143 5 227 11 137 9 156 9 191 -7 50 -22 48 -40 -4 -48 -76 -11 -413 -56
-425 -56 -7 0 -16 -16 -22 -35 -14 -53 -57 -120 -93 -149 l-33 -25 60 -62 60
-61 -45 5 c-25 4 -103 15 -174 25 l-128 19 -19 -31 c-26 -41 -55 -137 -74
-244 -40 -216 -66 -285 -97 -254 -9 9 -97 523 -98 570 0 7 -33 -10 -75 -38
l-74 -50 -56 21 c-168 63 -335 230 -460 460 l-46 84 6 -70 c28 -323 93 -681
195 -1073 22 -84 40 -157 40 -161 0 -4 -13 -6 -30 -3 -29 4 -31 8 -86 176 -62
191 -110 376 -120 466 l-7 60 -33 -28 -34 -27 2 -526 2 -525 -46 -65 c-25 -35
-58 -83 -73 -106 -15 -24 -30 -43 -33 -43 -3 0 -16 10 -29 22 l-23 21 -22 -20
c-24 -21 -41 -20 -93 8 -16 9 -53 20 -80 23 -28 4 -56 11 -63 15 -26 16 44 34
144 39 l101 4 43 77 c24 42 51 87 59 100 l16 25 -48 -28 c-26 -16 -50 -26 -53
-23 -6 6 35 117 65 176 18 33 26 41 41 36 25 -8 25 -6 -4 74 -35 98 -60 260
-47 308 6 21 15 90 21 153 6 63 15 151 20 195 44 380 72 1028 44 1039 -8 3
-14 12 -14 19 0 19 170 42 238 33 l48 -6 17 112 c9 61 15 113 13 115 -2 2 -45
-21 -96 -51 -80 -47 -96 -53 -117 -43 -29 13 -29 4 3 365 14 161 23 296 20
300 -6 6 -218 34 -221 29 -1 -1 -38 -240 -83 -530 -44 -291 -83 -531 -86 -534
-3 -4 -9 -3 -13 1 -4 3 37 336 90 739 l98 732 -21 17 -22 17 64 417 63 416 37
-6 c41 -7 37 -15 54 123 5 47 4 53 -10 48 -11 -4 -16 -1 -16 12 0 38 -15 30
-38 -21 -26 -58 -39 -53 -23 9 7 24 24 48 46 66 34 27 35 30 35 95 0 65 -1 68
-31 86 -24 14 -29 23 -25 40 13 44 20 125 95 1101 42 550 80 991 84 981 4 -9
7 -32 7 -51 0 -18 6 -38 14 -44 12 -10 17 -6 25 26 6 21 11 44 11 51 0 6 9 12
20 12 23 0 35 21 45 73 4 20 12 37 17 37 9 0 4 -96 -8 -162 -4 -20 0 -29 16
-38 18 -10 22 -7 35 24 9 20 20 36 26 36 7 0 9 10 5 25 -3 13 1 42 10 65 30
74 0 189 -46 177 -9 -2 -45 1 -81 7 l-64 12 -3 75 c-1 41 20 303 48 582 27
279 50 519 50 533 0 21 -3 25 -17 19 -60 -24 -57 -32 -50 131 6 157 32 375 47
409 6 13 8 -26 4 -111 -4 -72 -3 -140 0 -152 11 -34 34 -26 45 16 16 66 85
815 78 853 -4 20 -24 55 -44 79 -60 70 -129 88 -191 50z m-328 -1926 c25 -10
19 -26 -6 -19 -31 10 -47 25 -26 25 9 0 23 -3 32 -6z m-20 -66 c-6 -22 -42
-57 -57 -58 -4 0 -10 8 -13 18 -3 9 -10 25 -15 34 -14 27 -12 28 42 28 47 0
50 -1 43 -22z m-82 -330 c-9 -9 -15 -9 -24 0 -9 9 -7 12 12 12 19 0 21 -3 12
-12z m8 -164 c0 -2 -7 -4 -15 -4 -8 0 -15 4 -15 10 0 5 7 7 15 4 8 -4 15 -8
15 -10z m-25 -64 c3 -5 1 -10 -4 -10 -6 0 -11 5 -11 10 0 6 2 10 4 10 3 0 8
-4 11 -10z m382 -192 c-7 -175 -25 -338 -57 -512 -20 -110 -37 -159 -26 -76 3
25 13 140 21 255 9 116 25 271 35 345 11 74 20 138 20 143 0 4 3 7 7 7 3 0 3
-73 0 -162z m-163 -2335 c-3 -21 -16 -58 -28 -83 -21 -44 -21 -45 -24 -16 -3
25 13 106 25 129 2 4 11 7 19 7 12 0 14 -8 8 -37z m-427 -161 l32 -47 -14 -55
c-8 -30 -15 -67 -15 -82 0 -24 -4 -28 -29 -28 -47 0 -52 17 -31 100 13 49 18
90 14 118 -4 23 -2 42 2 42 5 0 23 -22 41 -48z m2953 -107 c16 -8 35 -23 42
-33 7 -10 30 -30 52 -44 23 -16 51 -50 72 -87 l33 -60 -39 -71 c-38 -70 -110
-176 -157 -234 -21 -25 -31 -29 -86 -31 -67 -3 -117 -20 -117 -42 0 -17 10
-16 34 2 27 20 112 20 123 0 8 -13 14 -10 38 15 16 16 34 30 41 30 7 0 21 11
31 24 15 20 44 31 158 59 77 19 142 33 143 31 4 -3 -47 -123 -60 -140 -5 -6
-42 -24 -83 -39 -71 -25 -94 -40 -82 -51 3 -3 22 2 42 11 54 22 53 12 -2 -23
-66 -41 -137 -55 -271 -50 -70 2 -112 -1 -113 -7 -2 -15 -2 -17 4 -60 l6 -40
-15 42 c-11 30 -39 64 -92 113 -41 38 -77 68 -79 66 -2 -2 18 -32 44 -67 52
-69 97 -162 108 -221 6 -32 4 -38 -10 -38 -15 0 -14 -4 4 -34 16 -25 21 -50
21 -97 l-1 -64 -42 80 c-48 92 -58 82 -23 -22 23 -69 24 -73 7 -82 -10 -6 -27
-7 -39 -4 -17 4 -22 0 -28 -21 -5 -21 -9 -24 -24 -16 -10 6 -27 10 -38 10 -13
0 -21 11 -28 36 -5 19 -13 34 -19 32 -11 -4 -14 -108 -2 -115 4 -2 7 -15 7
-29 0 -13 -3 -24 -7 -24 -25 1 -53 45 -53 84 0 17 -6 26 -16 26 -9 0 -21 14
-27 30 -22 59 -36 27 -17 -39 13 -46 4 -52 -14 -10 l-15 34 -1 -47 c0 -27 -4
-48 -9 -48 -16 0 -23 98 -11 151 11 45 11 52 -6 68 -11 9 -43 54 -73 99 -29
45 -57 82 -62 82 -4 0 -2 -18 6 -39 7 -22 11 -42 8 -45 -9 -8 -33 14 -33 29 0
7 -12 32 -27 55 l-28 42 -29 -63 c-15 -35 -29 -65 -30 -66 0 -1 -28 5 -61 12
-64 15 -75 14 -55 -10 11 -13 8 -15 -15 -15 -16 0 -37 7 -47 17 -24 22 -24 63
1 70 13 3 20 17 25 51 6 43 4 48 -30 83 -49 51 -39 69 42 73 73 4 128 30 177
85 56 62 71 98 72 172 0 55 -4 72 -28 108 -34 51 -73 69 -174 81 -84 9 -110
24 -78 43 71 42 187 49 279 17 52 -18 60 -18 79 -5 28 20 54 19 66 -2 8 -15
10 -14 16 12 13 51 55 121 85 138 17 10 49 17 82 17 l53 0 -51 -24 c-27 -13
-66 -42 -86 -65 -61 -71 -85 -188 -53 -252 56 -108 316 -170 465 -111 125 50
230 154 230 228 0 74 -50 146 -142 206 -27 16 -48 32 -48 34 0 10 54 3 80 -11z
m-2930 -173 c0 -9 -16 -134 -36 -278 -27 -204 -33 -275 -27 -319 l8 -58 100
-28 c133 -38 129 -37 116 -53 -9 -11 -23 -11 -83 0 -99 18 -96 18 -111 -18
-13 -31 -14 -32 -21 -10 -7 21 -25 31 -27 15 0 -5 -22 -208 -49 -453 -49 -437
-50 -442 -45 -278 5 182 -1 218 -40 218 -12 0 -34 -9 -48 -20 -22 -17 -40 -20
-134 -20 -59 0 -138 3 -175 7 l-68 6 40 30 c31 24 44 45 60 92 33 101 59 233
71 372 l12 132 74 77 74 76 46 181 c37 146 52 188 73 212 34 37 46 60 54 105
l6 35 65 -3 c52 -3 65 -7 65 -20z m3525 -162 c44 -44 53 -49 81 -44 26 5 35 1
57 -26 15 -17 27 -37 27 -44 0 -25 -13 -25 -32 -1 -29 38 -53 47 -91 37 -29
-8 -39 -6 -73 20 -21 16 -48 36 -58 44 -19 13 -19 14 4 39 13 14 26 25 30 25
3 0 28 -23 55 -50z m362 -191 c51 -9 60 -14 73 -42 12 -26 20 -31 43 -29 20 3
43 -8 87 -41 33 -25 65 -47 72 -50 10 -3 8 -9 -5 -23 -15 -16 -19 -17 -26 -5
-9 13 -42 12 -83 -4 -11 -4 -18 0 -23 14 -6 21 -8 20 -43 -9 -36 -29 -37 -30
-44 -9 -7 17 -14 20 -38 16 -16 -4 -32 -2 -35 3 -3 6 -14 14 -24 20 -16 8 -33
-13 -136 -175 -65 -102 -120 -185 -122 -185 -2 0 7 21 21 48 39 78 96 238 112
319 9 43 15 106 12 147 l-3 71 52 -28 c28 -15 78 -32 110 -38z m378 -129 c3
-11 15 -20 26 -20 11 0 19 -7 19 -16 0 -11 -6 -14 -22 -8 -71 22 -79 29 -56
52 17 17 26 15 33 -8z m-2562 -434 c15 -32 27 -63 27 -67 0 -13 -71 25 -93 49
-17 18 -18 31 -12 109 4 48 14 113 23 143 l17 55 5 -115 c5 -98 9 -124 33
-174z m2507 250 c0 -2 -75 -67 -166 -145 -112 -96 -188 -153 -237 -177 -40
-20 -144 -81 -232 -137 -127 -80 -176 -117 -237 -181 -42 -45 -77 -74 -77 -66
0 8 5 39 12 68 12 49 19 58 107 133 147 126 198 162 295 211 50 25 189 102
310 171 237 135 225 129 225 123z m-943 -87 c-7 -59 11 -83 43 -54 11 10 21
16 23 14 1 -2 9 -16 17 -32 12 -24 11 -29 -7 -50 -11 -12 -28 -44 -38 -72 -32
-86 -81 -158 -155 -223 -65 -59 -70 -61 -70 -38 0 14 6 29 13 33 7 4 19 23 27
42 7 19 29 49 48 68 21 21 31 40 28 49 -3 9 -1 25 6 37 7 14 11 59 9 119 -2
81 1 105 19 145 19 42 22 46 32 29 6 -10 8 -40 5 -67z m-475 -78 c14 -33 23
-62 20 -65 -25 -26 -77 47 -67 94 4 16 10 30 13 30 4 0 19 -27 34 -59z m-592
-382 c0 -16 -17 0 -63 62 -81 107 -87 119 -87 171 l0 43 75 -127 c41 -70 75
-137 75 -149z m-252 -4 c86 -56 110 -80 97 -94 -4 -3 -41 12 -83 34 -82 42
-179 126 -167 145 7 12 2 15 153 -85z m-1612 -282 c-3 -38 -9 -112 -13 -166
-6 -98 -6 -98 22 -127 16 -17 23 -30 16 -30 -11 0 -11 -3 -1 -15 7 -9 20 -13
27 -11 11 5 13 0 7 -17 -9 -30 -12 -33 -25 -20 -8 8 -18 4 -35 -15 -22 -27
-23 -27 -39 -7 -9 12 -14 33 -11 50 2 17 0 40 -5 52 -8 21 25 345 37 364 3 5
10 9 16 9 7 0 9 -22 4 -67z m2734 39 c0 -19 -37 -46 -232 -172 l-207 -133 39
-28 c25 -18 40 -37 40 -50 0 -13 5 -19 13 -16 6 2 86 52 177 110 90 59 166
104 168 102 13 -12 -21 -43 -155 -145 -160 -122 -173 -134 -173 -162 0 -28 64
-23 149 13 40 17 74 29 76 27 6 -6 -166 -150 -180 -152 -6 0 -59 41 -116 92
-104 93 -104 94 -141 190 -44 113 -40 128 28 111 40 -10 45 -8 186 65 80 42
152 76 160 76 8 0 46 18 84 39 73 42 84 46 84 33z m-3735 -477 c88 -13 197
-25 243 -25 56 0 81 -3 77 -11 -13 -20 27 -49 77 -55 l49 -7 -6 -41 c-4 -22
-14 -48 -23 -56 -12 -11 -17 -32 -18 -75 0 -33 -1 -87 -2 -120 -4 -153 -4
-155 22 -165 19 -7 26 -19 31 -54 8 -50 14 -54 50 -30 25 16 25 16 24 -17 0
-19 -4 -56 -7 -84 l-7 -49 -18 27 c-9 14 -30 33 -45 41 -28 15 -29 14 -94 -52
-65 -65 -67 -70 -93 -167 -25 -96 -47 -134 -86 -147 -9 -3 -61 -227 -54 -236
1 -1 57 23 124 54 66 32 123 55 126 53 14 -14 -13 -49 -64 -82 -31 -20 -68
-48 -81 -62 -13 -14 -33 -25 -45 -25 -15 0 -33 -18 -61 -62 -23 -35 -75 -104
-117 -154 -46 -55 -77 -101 -77 -114 0 -13 27 -72 60 -132 33 -60 60 -112 60
-117 0 -4 -18 -50 -40 -101 -32 -73 -38 -95 -28 -102 7 -4 51 -29 97 -56 94
-53 88 -62 -24 -37 -141 31 -171 74 -161 230 4 60 1 120 -9 180 -8 50 -18 106
-21 125 l-6 35 -20 -40 c-32 -62 -65 -100 -104 -121 -29 -15 -45 -37 -85 -116
-64 -128 -65 -153 -2 -250 53 -82 121 -231 151 -329 l19 -67 -58 -83 c-137
-194 -172 -239 -259 -334 -83 -90 -265 -320 -339 -429 -15 -22 -56 -93 -91
-156 -85 -157 -123 -212 -205 -299 -65 -69 -363 -331 -376 -331 -3 0 -16 81
-28 179 l-22 180 36 123 37 123 150 170 c82 94 157 183 165 199 10 20 13 44
10 75 -20 164 -31 211 -67 295 -47 112 -64 219 -58 364 5 93 11 125 50 242 25
75 83 214 128 310 162 344 170 366 235 680 50 240 65 287 153 499 73 173 103
223 200 338 90 106 109 134 200 286 86 143 132 206 152 207 8 0 87 -11 175
-25z m794 -628 c15 -12 45 -30 68 -41 23 -10 43 -27 46 -37 7 -27 -9 -24 -76
14 -39 22 -67 32 -86 29 -25 -3 -30 -12 -56 -90 -36 -108 -44 -85 -19 55 13
73 23 103 34 106 21 5 58 -10 89 -36z m119 -155 c2 -15 -2 -22 -12 -22 -11 0
-16 9 -16 26 0 31 23 28 28 -4z m2835 -386 c9 -7 17 -23 17 -34 0 -25 33 -46
60 -37 17 5 20 2 20 -20 0 -15 12 -70 26 -122 16 -61 22 -98 16 -106 -5 -7
-12 -35 -15 -64 -5 -39 -1 -61 14 -92 23 -49 49 -153 49 -203 0 -20 14 -74 31
-120 l31 -83 -16 -71 -17 -71 -67 -32 c-57 -27 -71 -31 -94 -22 -18 7 -28 18
-28 31 0 11 5 19 11 17 5 -1 21 25 35 57 13 33 33 69 43 80 19 21 18 26 -25
301 -24 154 -43 296 -44 316 0 21 -15 65 -35 105 -19 38 -35 77 -35 86 0 27
-11 48 -26 48 -8 0 -14 -4 -14 -9 0 -11 -66 -3 -92 11 -32 16 -19 28 30 29 26
0 56 4 67 9 28 12 37 11 58 -4z m-2943 -12 c30 -12 40 -22 40 -38 0 -13 11
-33 25 -46 14 -13 25 -29 25 -36 0 -7 6 -17 14 -21 7 -4 19 -19 26 -33 7 -14
21 -31 32 -38 27 -20 22 -39 -21 -80 -29 -28 -44 -54 -60 -106 -11 -37 -21
-78 -21 -90 -1 -37 -16 2 -35 89 -21 97 -27 106 -68 99 -96 -16 -237 -65 -237
-83 0 -4 7 -16 14 -27 13 -19 13 -24 -7 -52 -12 -18 -29 -32 -38 -32 -26 0
-79 -67 -79 -98 l0 -27 -26 26 c-22 22 -24 31 -18 64 5 30 13 40 40 51 18 8
45 14 59 14 29 0 34 24 8 39 -17 10 -17 12 0 43 18 32 18 33 -3 50 -19 15 -20
21 -10 58 11 41 19 47 36 31 5 -5 43 -11 84 -12 68 -2 80 1 117 25 54 36 104
47 128 30 10 -7 22 -11 26 -8 11 7 -1 65 -17 85 -8 8 -14 27 -14 42 0 27 -15
34 -108 53 -39 8 -41 19 -4 32 38 14 46 14 92 -4z m2430 -459 c11 -82 39 -262
62 -400 31 -194 39 -264 34 -313 -12 -116 -14 -119 -63 -136 -42 -14 -44 -14
-37 2 4 9 8 33 9 53 0 20 7 44 14 53 12 15 11 43 -7 199 -29 242 -64 676 -57
695 12 33 24 -8 45 -153z m-218 -704 l23 -124 -35 -28 c-19 -16 -38 -29 -42
-29 -4 0 -8 53 -8 118 0 64 -3 127 -6 140 -5 16 -2 22 10 22 18 0 20 17 6 74
-5 22 -6 45 -2 50 7 12 21 -45 54 -223z"/>
<path d="M4658 6911 c-25 -12 -32 -22 -30 -39 1 -13 -5 -50 -13 -82 -20 -76
-20 -86 0 -70 9 7 17 11 19 9 10 -10 46 -150 46 -177 0 -60 93 -111 186 -100
24 2 34 13 62 68 18 36 35 86 38 111 l6 47 -79 91 c-81 93 -141 144 -180 153
-12 3 -37 -2 -55 -11z m106 -219 c20 -50 24 -74 19 -108 -3 -24 -9 -44 -12
-44 -8 0 -41 163 -41 200 0 31 4 26 34 -48z"/>
<path d="M5700 8725 c0 -10 32 -52 72 -94 39 -42 84 -94 100 -115 31 -43 37
-96 13 -116 -22 -18 -19 -41 11 -81 25 -33 34 -52 48 -96 6 -19 3 -23 -12 -23
-23 0 -32 -18 -32 -68 l0 -37 -64 -16 -64 -16 -21 36 c-38 66 -33 64 -86 37
-26 -15 -54 -26 -60 -26 -7 0 -18 -7 -25 -16 -13 -14 -73 -44 -90 -44 -5 0
-11 14 -15 31 -13 57 -29 14 -34 -92 l-6 -102 -40 -14 c-21 -7 -48 -22 -60
-33 -11 -10 -35 -25 -54 -33 -32 -14 -31 -14 61 -21 51 -4 125 -13 163 -21 39
-8 110 -21 159 -30 145 -26 186 -55 306 -209 43 -56 114 -138 157 -182 85 -90
127 -111 268 -140 89 -18 515 -32 515 -16 0 5 -39 57 -86 114 -165 196 -188
242 -265 501 -64 219 -98 299 -173 411 -114 173 -308 337 -546 464 -117 62
-140 69 -140 47z"/>
<path d="M4451 8063 c-6 -21 -15 -58 -19 -82 -7 -41 -10 -45 -57 -63 -27 -11
-51 -21 -53 -23 -1 -1 3 -14 9 -29 10 -20 17 -24 36 -20 26 7 26 5 13 -51 -15
-65 8 -109 45 -88 12 7 59 62 90 107 13 17 16 17 72 -17 70 -43 103 -54 103
-35 0 16 -24 53 -58 90 -28 30 -25 46 5 30 16 -9 18 -5 20 54 l2 63 -47 -18
-48 -19 -44 69 c-25 38 -48 69 -51 69 -3 0 -11 -17 -18 -37z"/>
<path d="M2882 7474 c-22 -42 -85 -468 -87 -586 -1 -65 2 -118 7 -118 4 0 8
-9 8 -20 0 -13 10 -24 26 -30 21 -8 25 -15 20 -38 -3 -15 -8 -47 -11 -72 -4
-25 -9 -53 -11 -62 -8 -27 21 -22 44 7 11 14 24 45 27 68 4 23 16 59 26 79 14
28 19 59 19 125 0 52 9 132 22 194 23 112 20 159 -7 123 -14 -18 -14 -18 -15
4 0 35 -20 15 -21 -21 0 -18 -4 -41 -9 -52 -6 -13 -9 57 -8 187 2 142 -1 211
-9 219 -8 8 -14 6 -21 -7z"/>
</g>
</svg>
