<?xml version="1.0" standalone="no"?>
<!DOCTYPE svg PUBLIC "-//W3C//DTD SVG 20010904//EN"
 "http://www.w3.org/TR/2001/REC-SVG-20010904/DTD/svg10.dtd">
<svg version="1.0" xmlns="http://www.w3.org/2000/svg"
 width="902.000000pt" height="1280.000000pt" viewBox="0 0 902.000000 1280.000000"
 preserveAspectRatio="xMidYMid meet">
<metadata>
Created by potrace 1.15, written by Peter Selinger 2001-2017
</metadata>
<g transform="translate(0.000000,1280.000000) scale(0.100000,-0.100000)"
fill="#000000" stroke="none">
<path d="M5245 12779 c-1613 -61 -2841 -324 -3890 -834 -446 -216 -891 -502
-1245 -798 -97 -81 -117 -103 -84 -93 47 14 522 130 734 180 1406 328 2613
507 3819 566 264 13 1002 13 1246 0 628 -34 1186 -102 1715 -211 132 -28 499
-113 527 -123 8 -3 9 -16 2 -46 -9 -40 -8 -42 46 -110 l55 -69 -55 -268 c-31
-147 -76 -362 -100 -478 -24 -115 -170 -813 -324 -1550 -154 -737 -451 -2159
-660 -3160 -209 -1001 -518 -2479 -686 -3285 -168 -806 -350 -1675 -404 -1932
-53 -258 -96 -468 -95 -468 19 0 249 -48 346 -72 70 -18 131 -29 134 -25 4 4
132 604 285 1335 152 730 422 2020 599 2867 176 847 352 1689 390 1870 38 182
196 935 350 1675 385 1846 414 1982 470 2250 159 759 230 1101 230 1113 0 7
21 43 46 81 l46 69 142 702 c77 387 139 705 136 708 -3 2 -138 25 -300 51
-162 26 -307 49 -322 52 -24 5 -28 2 -28 -18 0 -45 -2 -45 -255 -32 -881 46
-1481 64 -2120 62 -302 0 -640 -5 -750 -9z"/>
</g>
</svg>
