<?xml version="1.0" standalone="no"?>
<!DOCTYPE svg PUBLIC "-//W3C//DTD SVG 20010904//EN"
 "http://www.w3.org/TR/2001/REC-SVG-20010904/DTD/svg10.dtd">
<svg version="1.0" xmlns="http://www.w3.org/2000/svg"
 width="1280.000000pt" height="1249.000000pt" viewBox="0 0 1280.000000 1249.000000"
 preserveAspectRatio="xMidYMid meet">
<metadata>
Created by potrace 1.15, written by Peter Selinger 2001-2017
</metadata>
<g transform="translate(0.000000,1249.000000) scale(0.100000,-0.100000)"
fill="#000000" stroke="none">
<path d="M9358 12480 c-43 -5 -99 -18 -124 -29 -110 -49 -258 -183 -344 -311
-80 -120 -111 -154 -173 -195 -54 -35 -64 -46 -79 -91 -9 -28 -21 -81 -26
-119 l-9 -68 35 -45 c42 -55 51 -63 165 -144 111 -79 112 -88 26 -208 -96
-133 -120 -198 -80 -219 10 -6 27 -25 38 -43 21 -37 115 -250 111 -253 -2 -1
-23 -8 -48 -16 -52 -16 -52 -13 -11 -129 17 -47 31 -95 31 -108 0 -21 -3 -22
-37 -16 -66 12 -78 30 -94 141 -12 89 -21 109 -49 118 -29 9 -109 -20 -152
-55 -44 -37 -63 -89 -78 -222 -13 -109 -7 -153 25 -218 38 -75 57 -152 43
-167 -20 -19 -246 -81 -340 -93 -144 -18 -549 -23 -963 -11 -479 13 -889 28
-1042 37 l-113 6 0 82 c0 97 -13 121 -68 131 -51 8 -102 40 -102 63 0 43 -22
82 -45 82 -24 0 -33 -14 -83 -132 -12 -27 -29 -49 -41 -53 -25 -8 -41 -60 -41
-138 0 -50 -4 -61 -30 -89 -27 -28 -30 -38 -30 -94 l0 -64 -157 1 c-87 0 -244
4 -350 8 -218 7 -221 8 -248 91 -9 26 -27 58 -41 71 -25 23 -31 24 -177 24
-146 0 -154 -1 -209 -28 -58 -28 -74 -51 -63 -87 4 -14 1 -22 -10 -27 -63 -24
-2456 107 -2958 162 -142 15 -263 10 -542 -26 -242 -30 -257 -37 -306 -130
-19 -37 -24 -63 -27 -159 -5 -164 -7 -162 119 -183 114 -19 202 -56 232 -98
10 -14 23 -57 29 -96 l10 -71 102 -6 c55 -4 718 -31 1471 -61 1641 -65 1575
-62 1575 -83 0 -38 -132 -974 -163 -1157 -13 -77 -24 -141 -23 -142 6 -8 355
-20 405 -13 75 10 84 18 121 90 54 107 108 147 205 153 l40 2 20 -205 c21
-206 35 -241 35 -85 0 115 16 182 51 218 26 26 34 28 72 22 50 -9 73 -20 107
-50 28 -26 94 -47 225 -70 91 -16 195 -42 195 -49 0 -3 7 -39 15 -82 17 -91
33 -119 80 -138 50 -21 53 -49 16 -161 -30 -92 -32 -125 -7 -125 7 0 36 -16
66 -35 l55 -36 -55 6 c-76 7 -867 73 -965 80 -67 5 -77 4 -64 -7 10 -8 143
-32 305 -56 449 -67 615 -105 721 -167 61 -37 75 -62 77 -145 1 -63 -2 -73
-22 -88 -16 -12 -26 -38 -38 -92 -20 -99 -40 -131 -94 -155 -131 -58 -143 -67
-180 -137 -44 -83 -42 -81 -93 -87 l-42 -6 -16 -285 c-9 -157 -17 -286 -18
-287 0 -1 -133 -1 -295 0 -260 2 -321 -2 -305 -17 2 -2 128 -18 281 -36 152
-17 289 -35 304 -39 40 -10 47 -57 39 -275 -9 -277 -30 -396 -121 -692 -38
-124 -76 -189 -133 -228 -67 -47 -118 -56 -310 -56 -172 0 -221 -5 -221 -20 0
-4 39 -11 88 -14 187 -15 406 -37 411 -41 21 -22 -346 -1164 -388 -1209 -31
-33 -82 -46 -210 -53 -129 -7 -124 -12 38 -38 l113 -18 -5 -41 c-9 -62 -287
-877 -306 -899 -4 -4 -76 -25 -159 -47 -187 -49 -216 -61 -267 -109 -22 -20
-52 -45 -67 -54 -20 -13 -28 -26 -28 -46 l0 -28 -102 -7 c-303 -21 -521 -55
-773 -123 -148 -39 -243 -75 -297 -111 -38 -25 -42 -31 -52 -93 -4 -21 -14
-43 -22 -50 -10 -8 -65 -16 -147 -20 -177 -11 -214 -17 -236 -40 -11 -12 -41
-23 -77 -29 -101 -17 -478 -23 -661 -11 -247 16 -338 38 -468 114 -64 37 -121
52 -143 38 -21 -13 -10 -44 18 -51 16 -4 25 -13 25 -25 0 -18 -8 -20 -90 -23
-82 -3 -415 21 -492 34 l-31 6 -6 -84 c-3 -45 -8 -377 -11 -735 l-5 -653 6400
0 6400 0 0 210 0 210 -176 0 -177 0 7 1323 c3 734 2 1361 -2 1409 -7 68 -15
96 -35 125 -30 45 -34 72 -47 333 -13 237 -27 348 -86 684 -61 353 -70 447
-56 605 14 154 32 229 62 251 15 11 20 23 17 36 -4 10 -18 132 -32 269 -37
354 -49 434 -100 653 -25 107 -45 201 -45 210 0 11 16 22 48 32 37 12 51 23
64 50 22 44 24 160 3 247 -8 35 -33 165 -55 290 -22 126 -49 266 -60 313 -19
86 -47 448 -71 925 -6 127 -16 243 -21 258 -6 15 -30 44 -54 64 -31 25 -47 47
-55 76 -18 66 -99 497 -106 558 -5 52 -4 57 16 64 16 5 21 14 21 38 -1 40 -5
51 -123 322 -52 121 -121 283 -152 360 -32 77 -81 176 -111 220 -29 44 -60 96
-70 116 -13 29 -34 47 -98 82 -226 126 -357 178 -552 222 -165 37 -210 58
-236 109 -11 23 -29 52 -39 65 -24 30 -34 84 -20 110 6 11 33 49 60 85 27 35
56 86 65 113 60 182 85 682 41 847 -35 131 -156 311 -262 388 -101 74 -296
157 -438 188 -114 24 -431 35 -567 20z m-733 -1837 c3 -15 3 -65 0 -110 l-7
-83 -42 0 c-48 0 -66 13 -66 50 0 48 71 170 99 170 5 0 12 -12 16 -27z m497
-174 c20 -26 20 -26 -11 -117 -17 -50 -44 -119 -61 -152 l-30 -60 -40 6 c-26
4 -45 2 -55 -6 -12 -10 -18 -10 -30 0 -26 21 -17 81 23 166 22 43 47 113 56
156 l17 76 56 -22 c31 -12 65 -33 75 -47z m-269 -40 c14 -23 -7 -118 -36 -161
-13 -18 -34 -38 -47 -45 -23 -12 -25 -11 -28 13 -3 22 17 136 35 197 6 23 61
20 76 -4z m-226 -45 c8 -20 -13 -134 -27 -148 -14 -14 -53 25 -75 74 -17 37
-17 41 -1 65 13 20 25 25 57 25 27 0 42 -5 46 -16z m-6362 -859 c1112 -61
1618 -96 1757 -120 45 -8 84 -15 86 -15 1 0 2 -14 2 -30 0 -47 -35 -75 -112
-89 -125 -22 -562 -13 -1643 34 -725 31 -1101 58 -1123 79 -8 8 29 86 58 120
46 54 64 57 300 52 118 -3 422 -17 675 -31z m2599 -458 c10 -7 26 -44 37 -82
21 -77 34 -95 82 -111 48 -16 62 -53 62 -164 0 -154 -14 -180 -100 -180 -52 0
-54 2 -103 55 -50 54 -67 93 -103 230 -8 31 -25 62 -45 82 -32 32 -54 103 -41
137 14 35 173 60 211 33z m736 -246 c0 -27 -24 -43 -62 -39 -28 2 -34 7 -36
31 -3 26 -2 27 47 27 43 0 51 -3 51 -19z m641 -27 c27 -28 -38 -107 -122 -149
-61 -32 -69 -23 -69 83 l0 84 90 -4 c49 -1 94 -8 101 -14z m1884 -501 c-62
-148 -69 -235 -30 -383 46 -175 54 -214 85 -415 46 -300 58 -333 158 -446 71
-79 146 -95 310 -69 95 16 149 45 227 126 68 70 111 101 122 90 3 -3 1 -76 -5
-163 -12 -176 -8 -219 19 -249 24 -26 65 -148 115 -342 35 -140 41 -155 66
-168 29 -15 251 -33 406 -34 45 0 82 -4 82 -9 0 -25 -56 -84 -140 -148 -108
-81 -178 -161 -203 -230 -21 -59 -35 -169 -38 -291 l-2 -92 -39 0 c-84 0
-1412 96 -1878 135 -385 33 -943 85 -946 88 -2 1 1 34 6 72 28 225 62 606 62
704 1 101 -1 116 -18 128 -31 23 -113 42 -214 50 l-95 8 -24 70 c-18 56 -24
93 -25 183 l-1 113 33 30 c24 22 43 29 75 30 23 1 56 4 72 8 30 6 29 7 -34 39
-35 17 -74 32 -86 32 -13 0 -28 7 -35 15 -35 43 -29 249 9 328 27 55 52 70
134 78 37 3 69 8 71 10 3 2 -2 64 -10 137 -16 160 -39 222 -79 222 -17 0 -25
5 -22 13 3 9 37 11 134 9 98 -3 139 0 165 11 42 18 79 69 132 183 l38 81 47
-3 c25 -2 129 -8 231 -14 102 -6 213 -13 248 -16 l62 -6 28 -56 c39 -81 57
-90 189 -98 100 -6 115 -5 140 12 15 10 40 24 54 30 16 7 34 31 48 60 41 87
92 123 176 124 17 0 39 7 49 15 12 9 42 15 79 15 52 0 58 -2 52 -17z m-2758
-2132 c18 -35 44 -76 58 -91 22 -23 25 -37 30 -125 7 -116 -3 -148 -49 -153
-40 -5 -79 36 -108 112 -19 51 -23 80 -23 177 0 121 10 153 44 147 9 -2 31
-32 48 -67z m1433 -566 c562 -43 1298 -103 1630 -135 381 -37 873 -90 878 -95
7 -7 -27 -151 -48 -206 -12 -29 -53 -111 -91 -181 -44 -81 -73 -146 -79 -180
-5 -29 -23 -179 -40 -333 -17 -154 -35 -284 -40 -289 -5 -4 -206 -11 -447 -14
l-438 -6 417 -36 c229 -19 420 -39 424 -42 12 -12 -37 -444 -62 -551 -36 -151
-69 -330 -98 -521 -14 -92 -27 -170 -29 -172 -2 -3 -76 2 -163 10 -274 26
-483 38 -664 40 -170 1 -230 -5 -230 -23 0 -21 103 -35 430 -61 140 -11 284
-25 320 -31 98 -15 232 -48 247 -61 9 -8 12 -25 7 -62 -12 -108 -36 -224 -60
-291 -41 -114 -53 -189 -65 -400 -6 -110 -12 -205 -14 -210 -2 -8 -324 -68
-678 -126 -48 -8 -75 -18 -90 -34 -31 -32 -64 -35 -319 -22 l-228 11 0 42 c0
64 -14 90 -64 119 -40 23 -47 33 -61 83 -30 111 -49 140 -112 170 -91 43 -99
67 -128 396 -19 214 -17 227 42 246 59 19 58 25 -6 43 -80 22 -107 57 -117
150 l-7 67 39 0 c22 0 174 -9 339 -20 338 -22 411 -24 420 -10 10 15 -56 27
-394 70 -178 22 -340 48 -360 56 -83 35 -118 95 -141 244 -7 41 -23 125 -36
185 -13 61 -46 241 -74 400 -28 160 -58 318 -65 353 -8 35 -15 66 -15 69 0 3
185 3 410 -2 226 -4 410 -4 410 -1 0 12 -91 28 -415 71 -187 25 -357 48 -377
51 -36 6 -37 8 -52 73 -25 110 -56 298 -71 436 -13 113 -34 538 -35 707 l0 57
33 -5 c17 -2 183 -16 367 -29z m-815 -697 c16 -72 68 -514 61 -524 -1 -2 -800
63 -802 65 -1 1 20 79 46 174 26 94 55 202 64 240 l18 67 304 0 304 0 5 -22z
m-460 -548 c167 -9 547 -39 552 -44 3 -2 162 -1280 160 -1282 -3 -3 -462 23
-642 36 -207 15 -409 37 -608 66 -93 13 -171 24 -174 24 -8 0 6 96 27 185 10
44 46 152 80 240 34 88 108 288 166 445 58 157 110 297 116 313 10 25 14 27
72 27 33 0 147 -5 251 -10z m5185 -957 c18 -43 107 -283 197 -533 157 -434
165 -459 170 -546 l6 -91 -43 -64 c-74 -110 -108 -146 -198 -211 -48 -34 -109
-81 -136 -104 -50 -44 -80 -57 -202 -93 -56 -16 -73 -26 -83 -47 -11 -26 -14
-26 -73 -21 -66 6 -84 19 -112 84 -8 17 -28 39 -45 47 -17 9 -47 34 -67 56
-20 21 -51 44 -69 50 -39 13 -58 34 -73 79 -11 32 -6 44 116 290 124 247 187
390 362 816 122 298 158 365 195 365 19 0 28 -13 55 -77z m-5345 -373 c657
-63 873 -101 902 -160 14 -27 17 -185 7 -263 -6 -44 -9 -47 -52 -61 -25 -9
-70 -16 -100 -16 l-54 0 6 33 c24 129 14 215 -27 242 -35 22 -110 6 -187 -42
-74 -45 -88 -72 -90 -168 -1 -112 3 -108 -119 -103 -70 3 -123 0 -156 -8 -27
-8 -104 -21 -170 -30 -66 -8 -142 -22 -169 -30 -27 -8 -153 -21 -280 -29 -374
-24 -368 -24 -362 -10 2 7 34 100 71 206 87 257 144 409 164 438 l15 24 246
-6 c135 -3 295 -11 355 -17z m-800 -1040 c27 -10 27 -12 20 -68 -9 -73 -17
-87 -56 -101 -68 -23 -152 -9 -164 29 -7 23 20 116 38 127 11 7 73 18 119 22
9 0 29 -4 43 -9z m-29 -307 c42 -30 72 -98 85 -191 12 -86 3 -145 -24 -150
-10 -2 -51 28 -101 75 -47 43 -112 103 -145 133 -53 48 -61 60 -61 91 0 58 24
69 140 66 60 -2 81 -7 106 -24z m3054 -209 c220 -30 222 -31 190 -47 -27 -14
-35 -36 -26 -73 4 -15 14 -24 25 -24 42 0 51 -48 64 -317 l5 -103 -41 6 c-123
17 -166 42 -216 126 -34 57 -91 79 -217 86 l-106 5 7 46 c17 114 27 144 66
186 22 23 39 47 39 53 0 6 -19 17 -42 23 -50 15 -68 26 -68 45 0 22 109 18
320 -12z"/>
<path d="M8670 10920 c-60 -14 -82 -72 -34 -90 43 -17 51 -12 82 45 29 54 30
55 9 54 -12 -1 -38 -5 -57 -9z"/>
</g>
</svg>
