<?xml version="1.0" standalone="no"?>
<!DOCTYPE svg PUBLIC "-//W3C//DTD SVG 20010904//EN"
 "http://www.w3.org/TR/2001/REC-SVG-20010904/DTD/svg10.dtd">
<svg version="1.0" xmlns="http://www.w3.org/2000/svg"
 width="1186.000000pt" height="1280.000000pt" viewBox="0 0 1186.000000 1280.000000"
 preserveAspectRatio="xMidYMid meet">
<metadata>
Created by potrace 1.15, written by Peter Selinger 2001-2017
</metadata>
<g transform="translate(0.000000,1280.000000) scale(0.100000,-0.100000)"
fill="#000000" stroke="none">
<path d="M10045 12532 c-33 -16 -105 -64 -160 -107 -124 -98 -201 -145 -236
-145 -46 0 -71 30 -83 100 -14 77 -29 89 -79 65 -96 -45 -177 -146 -238 -295
-42 -102 -43 -109 -47 -238 -4 -127 -5 -133 -29 -152 -36 -28 -94 -26 -129 3
-15 13 -41 53 -58 88 -21 44 -42 71 -66 86 -57 35 -78 59 -90 101 -13 49 -29
56 -113 47 -45 -5 -67 -3 -80 7 -10 8 -29 52 -43 103 -38 135 -64 175 -173
265 -52 44 -109 82 -125 86 -46 10 -54 -11 -53 -134 0 -110 -11 -173 -53 -283
-33 -91 -122 -179 -179 -179 -31 0 -69 40 -88 95 -28 76 -49 73 -100 -17 -23
-40 -74 -111 -112 -158 -39 -46 -72 -90 -72 -97 -1 -7 -2 -19 -3 -25 -1 -7
-20 -26 -44 -42 -23 -15 -63 -55 -88 -87 l-45 -58 -107 38 c-59 22 -150 55
-202 75 -125 47 -160 47 -238 -4 -56 -36 -66 -39 -110 -33 -80 9 -106 -10
-223 -163 -93 -124 -102 -139 -107 -187 -3 -41 -20 -79 -78 -182 -82 -145 -90
-183 -54 -243 l20 -33 -66 -90 c-53 -72 -68 -100 -72 -136 -7 -61 -175 -346
-221 -375 -19 -13 -86 -105 -184 -256 -85 -130 -159 -248 -167 -261 -8 -15
-10 -42 -7 -72 6 -46 2 -55 -83 -211 -50 -90 -90 -174 -90 -187 0 -13 -39 -91
-87 -174 -99 -169 -113 -182 -250 -229 -45 -15 -196 -50 -335 -78 -388 -78
-561 -127 -768 -219 -325 -145 -585 -367 -775 -661 -34 -52 -120 -198 -192
-325 -127 -223 -925 -1624 -2303 -4040 -370 -649 -686 -1209 -702 -1244 -53
-116 -70 -243 -47 -353 25 -117 89 -208 221 -311 36 -29 133 -109 215 -179
717 -613 1336 -959 2348 -1314 99 -34 205 -72 235 -84 69 -27 169 -36 243 -20
125 26 264 123 344 240 47 69 3118 5469 3183 5596 140 276 197 540 187 863 -9
294 -49 460 -247 1026 -57 162 -80 257 -80 326 0 57 0 58 43 81 40 22 48 34
148 237 73 149 116 226 142 250 27 27 72 110 173 321 112 235 154 310 234 425
150 216 160 233 160 282 0 43 23 89 146 289 l44 72 43 -5 c50 -6 94 13 125 52
11 13 53 89 93 168 53 105 81 148 102 160 19 12 40 42 65 97 l37 80 52 -118
c119 -270 317 -791 398 -1044 l38 -117 -27 -31 c-28 -34 -33 -68 -15 -103 13
-24 97 -128 113 -139 13 -9 22 -213 9 -205 -12 7 -83 -124 -118 -217 -27 -73
-33 -159 -14 -217 17 -51 91 -169 103 -162 11 7 4 -107 -29 -472 -30 -328 -31
-349 -5 -390 22 -35 20 -34 205 -112 211 -89 324 -149 361 -190 51 -58 58 -90
49 -227 -8 -123 -9 -161 -5 -206 1 -14 -1 -43 -5 -66 -5 -30 -3 -51 9 -75 29
-60 55 -71 199 -85 72 -7 153 -18 179 -25 42 -10 51 -16 64 -48 8 -20 34 -56
57 -80 67 -70 248 -143 313 -127 28 7 198 114 550 343 166 108 226 152 239
177 20 38 20 46 -15 357 -18 153 -20 200 -11 210 28 32 215 441 232 509 11 41
33 154 50 250 37 215 56 294 119 480 74 223 118 476 139 795 12 185 28 239
131 445 107 216 130 276 130 348 0 145 -98 378 -124 295 -3 -10 -10 -42 -16
-71 -14 -76 -48 -148 -100 -213 -93 -116 -193 -179 -284 -179 -91 0 -138 55
-170 200 -9 41 -24 92 -33 112 -19 46 -14 62 67 188 31 49 78 138 104 197 46
107 84 163 110 163 7 0 30 -18 50 -40 43 -46 58 -46 116 -1 73 58 73 56 -15
257 -43 98 -89 196 -102 217 -35 55 -54 39 -82 -68 -29 -110 -66 -160 -144
-199 -46 -23 -76 -30 -135 -33 -98 -5 -132 13 -157 84 -9 26 -24 67 -32 90
-20 58 -80 136 -127 167 -45 29 -101 34 -185 14 -105 -24 -131 17 -131 204 0
217 -28 260 -193 294 -87 18 -121 42 -143 99 -36 96 0 256 117 522 66 147 79
194 59 218 -18 22 -47 19 -115 -13z"/>
<path d="M10472 12103 c-18 -50 -21 -60 -32 -140 -10 -74 -8 -87 19 -196 34
-136 68 -204 152 -305 102 -124 145 -118 136 18 -3 43 -16 107 -31 150 -42
122 -164 430 -184 464 -24 41 -46 44 -60 9z"/>
</g>
</svg>
