<?xml version="1.0" standalone="no"?>
<!DOCTYPE svg PUBLIC "-//W3C//DTD SVG 20010904//EN"
 "http://www.w3.org/TR/2001/REC-SVG-20010904/DTD/svg10.dtd">
<svg version="1.0" xmlns="http://www.w3.org/2000/svg"
 width="1280.000000pt" height="640.000000pt" viewBox="0 0 1280.000000 640.000000"
 preserveAspectRatio="xMidYMid meet">
<metadata>
Created by potrace 1.15, written by Peter Selinger 2001-2017
</metadata>
<g transform="translate(0.000000,640.000000) scale(0.100000,-0.100000)"
fill="#000000" stroke="none">
<path d="M8575 5658 c-30 -82 -44 -133 -38 -139 5 -3 321 -111 703 -239 669
-225 729 -245 740 -259 3 -4 46 -20 95 -36 71 -24 100 -40 140 -76 46 -42 66
-52 240 -110 105 -35 201 -64 215 -65 14 0 51 -9 83 -19 56 -18 58 -21 53 -47
-4 -19 0 -30 11 -37 15 -8 12 -22 -28 -139 -24 -72 -41 -133 -39 -135 3 -2 92
-34 198 -70 l194 -66 14 37 c8 20 19 46 24 57 5 13 9 -66 9 -209 l1 -229 -302
7 c-167 3 -763 9 -1324 12 l-1022 7 -5 326 c-6 362 -12 417 -64 609 -33 121
-41 139 -80 183 -86 95 -179 131 -388 150 -127 12 -138 15 -153 37 -9 14 -12
26 -6 30 120 82 300 217 308 231 3 5 3 16 0 25 -13 35 -56 16 -188 -83 -72
-54 -169 -123 -216 -154 l-85 -56 -120 9 c-453 34 -1167 37 -1695 5 -560 -33
-756 -54 -984 -102 -181 -37 -265 -67 -449 -160 -403 -201 -793 -438 -1133
-686 -186 -136 -196 -139 -434 -147 -279 -9 -747 -49 -1140 -96 -613 -74
-1133 -193 -1422 -326 -61 -28 -68 -35 -89 -82 -13 -30 -23 -77 -25 -114 -2
-42 -14 -91 -38 -150 -19 -48 -42 -114 -51 -147 -10 -33 -26 -69 -36 -80 -46
-51 -51 -84 -40 -288 14 -270 15 -434 1 -490 -16 -63 0 -136 45 -204 58 -88
139 -135 261 -152 124 -18 217 -41 352 -87 152 -52 240 -66 261 -40 14 17 43
20 102 10 l36 -6 7 -92 c23 -300 143 -538 361 -712 480 -385 1189 -231 1466
318 75 149 111 332 99 505 l-5 72 47 11 c26 5 65 12 85 16 l38 6 13 -46 c16
-62 39 -82 108 -96 61 -13 235 -7 294 10 140 40 1193 37 3325 -10 624 -14 936
-25 1282 -47 235 -14 298 -15 380 -5 54 7 134 12 178 12 l80 0 0 -123 c0 -137
19 -235 67 -357 107 -272 356 -492 643 -570 102 -28 295 -38 403 -20 105 17
250 70 346 127 101 61 238 194 304 295 120 185 179 425 153 627 -6 47 -10 85
-8 87 1 1 32 5 70 9 55 6 67 5 67 -7 0 -21 32 -47 66 -54 23 -4 59 8 161 55
l131 60 464 61 c254 34 474 62 488 62 14 0 57 -7 95 -17 91 -22 182 -14 248
20 27 14 59 25 71 25 26 0 119 45 136 65 21 25 72 266 67 318 -6 71 -19 80
-139 88 -57 3 -115 12 -130 19 -23 11 -26 17 -21 49 3 20 14 56 24 80 26 60
42 215 35 337 -7 125 -7 157 0 274 6 105 -6 185 -36 222 -17 22 -51 167 -55
235 -1 17 -8 40 -16 49 -32 39 -63 42 -492 50 l-417 7 0 34 c0 37 3 38 49 22
18 -6 34 -9 36 -7 2 2 -11 96 -30 208 -19 113 -35 213 -35 222 0 28 29 10 45
-28 15 -36 50 -58 108 -69 31 -6 42 -4 61 14 l23 21 249 -84 250 -83 67 21
c52 16 69 26 73 44 4 15 14 22 29 22 19 0 27 10 44 61 20 61 20 61 0 66 -15 4
-18 11 -13 27 3 11 7 23 8 26 0 4 -16 31 -37 62 -31 45 -48 59 -85 73 -71 25
-74 27 -95 84 -13 33 -29 57 -43 63 -18 9 -23 18 -21 45 2 31 -1 35 -36 48
-38 13 -39 13 -49 -17 -9 -25 -15 -29 -37 -25 -18 4 -41 -4 -74 -24 -26 -16
-53 -29 -61 -29 -7 0 -233 74 -502 165 l-489 166 -37 -17 c-20 -9 -39 -22 -42
-30 -4 -10 -18 -9 -68 8 -35 12 -74 29 -88 39 -14 9 -109 45 -211 78 -178 59
-189 61 -244 53 -53 -9 -68 -6 -158 24 -55 18 -103 32 -107 29 -4 -2 -108 30
-231 71 -641 218 -1199 404 -1209 404 -6 0 -13 -6 -15 -12z m-777 -456 c2 -7
-7 -12 -23 -12 -24 0 -26 2 -15 15 14 17 31 16 38 -3z m731 -1592 c-12 -249
-36 -540 -65 -795 -26 -238 -82 -636 -89 -644 -7 -7 -7 -3 20 209 29 240 69
638 90 905 25 326 43 510 49 503 2 -1 0 -82 -5 -178z"/>
</g>
</svg>
