<?xml version="1.0" standalone="no"?>
<!DOCTYPE svg PUBLIC "-//W3C//DTD SVG 20010904//EN"
 "http://www.w3.org/TR/2001/REC-SVG-20010904/DTD/svg10.dtd">
<svg version="1.0" xmlns="http://www.w3.org/2000/svg"
 width="1280.000000pt" height="692.000000pt" viewBox="0 0 1280.000000 692.000000"
 preserveAspectRatio="xMidYMid meet">
<metadata>
Created by potrace 1.15, written by Peter Selinger 2001-2017
</metadata>
<g transform="translate(0.000000,692.000000) scale(0.100000,-0.100000)"
fill="#000000" stroke="none">
<path d="M4990 6913 c-25 -1 -115 -7 -200 -13 -610 -40 -1302 -92 -1335 -100
-22 -5 -86 -10 -143 -10 -84 0 -110 -4 -143 -21 -31 -15 -40 -25 -37 -42 3
-20 11 -23 111 -31 59 -5 107 -12 107 -16 0 -12 -47 -29 -99 -36 -28 -3 -57
-14 -65 -23 -39 -43 -45 -196 -21 -529 20 -271 41 -450 61 -509 12 -33 13 -48
5 -51 -22 -7 -41 -61 -42 -119 -3 -113 14 -474 23 -479 12 -7 10 -134 -2 -134
-33 0 -288 191 -510 383 -132 114 -208 168 -288 205 -49 22 -75 26 -182 30
-88 3 -154 -1 -220 -12 -52 -9 -131 -20 -175 -26 -44 -5 -121 -17 -171 -26
l-91 -17 -6 -76 c-5 -64 -3 -80 12 -101 21 -29 41 -112 41 -170 0 -31 5 -43
25 -56 16 -11 31 -38 46 -85 12 -38 26 -72 30 -75 5 -3 9 -20 9 -39 0 -18 6
-35 13 -38 16 -6 73 -206 75 -267 2 -32 19 -96 34 -125 18 -35 33 -155 20
-155 -5 0 -17 9 -27 20 -10 11 -22 20 -27 20 -4 0 -158 74 -341 164 -450 222
-589 280 -792 334 -128 33 -302 36 -479 8 -101 -16 -123 -23 -151 -48 -18 -15
-38 -28 -44 -28 -18 0 -14 -126 5 -163 20 -39 82 -119 161 -209 94 -108 456
-511 480 -536 13 -13 23 -25 23 -27 0 -3 22 -29 49 -57 97 -105 101 -111 101
-140 0 -22 -6 -31 -27 -39 -106 -43 -174 -82 -188 -109 -19 -37 -19 -119 0
-190 8 -30 15 -77 15 -105 1 -77 28 -104 119 -118 55 -9 71 -15 69 -27 -2 -8
-8 -15 -13 -15 -17 -1 -96 -55 -102 -70 -3 -8 -11 -15 -19 -15 -19 0 -19 -99
0 -126 8 -11 22 -52 31 -89 18 -78 49 -125 97 -148 30 -14 173 -49 206 -50 32
-1 5 -84 -144 -444 -232 -561 -264 -669 -221 -750 37 -69 141 -89 382 -73 206
14 271 26 318 56 70 46 387 324 560 492 94 92 296 278 447 413 l275 246 125 9
c166 12 257 9 361 -10 47 -9 151 -21 230 -25 145 -9 186 -18 205 -42 6 -8 18
-59 28 -114 9 -55 22 -118 27 -140 6 -22 14 -67 19 -100 4 -33 17 -82 28 -110
12 -27 46 -158 77 -290 42 -180 66 -260 94 -320 26 -55 40 -100 45 -143 3 -35
10 -71 15 -81 6 -10 22 -83 36 -162 31 -173 59 -278 92 -342 34 -68 56 -87
101 -87 35 0 62 -14 62 -32 0 -4 -18 -11 -39 -14 -38 -6 -91 -47 -79 -60 3 -3
28 -8 55 -12 44 -7 48 -10 51 -37 2 -16 10 -38 18 -49 8 -11 14 -35 14 -53 0
-18 6 -52 13 -74 l12 -40 45 4 c81 7 150 30 145 47 -13 46 -27 111 -24 114 2
2 72 9 154 16 83 7 173 16 200 21 28 6 109 14 180 19 72 6 216 17 320 25 204
17 586 35 596 29 4 -2 13 -24 20 -49 13 -42 39 -63 39 -30 0 8 4 15 10 15 5 0
27 19 49 41 26 28 52 44 78 49 74 15 133 45 133 67 0 9 -91 33 -123 33 -16 0
-36 8 -77 32 -8 4 -22 11 -30 15 -8 3 -30 20 -49 36 l-34 29 -18 -23 c-18 -23
-22 -24 -171 -24 -84 1 -219 5 -300 9 -145 8 -148 9 -148 31 0 12 7 28 15 35
8 7 15 19 15 27 0 20 289 584 309 604 17 16 334 57 611 79 74 5 151 12 171 15
31 4 38 2 42 -17 6 -20 10 -21 91 -15 73 5 95 11 149 41 96 54 335 111 413 99
20 -3 35 1 43 11 8 9 26 16 42 16 24 0 29 4 29 25 0 22 -4 25 -34 25 -21 0
-36 6 -40 15 -8 22 -53 19 -59 -4 -4 -16 -12 -18 -53 -14 -165 14 -314 37
-358 55 -64 25 -174 35 -205 19 -12 -7 -26 -23 -31 -36 -8 -22 -11 -23 -45
-12 -19 6 -53 25 -74 44 -22 18 -48 33 -58 33 -11 0 -28 7 -39 15 -10 8 -28
15 -40 15 -28 0 -36 10 -20 25 8 8 77 20 182 30 159 15 374 46 579 81 93 16
272 73 410 130 44 18 103 38 130 45 70 18 125 70 125 118 0 26 -6 39 -19 46
-84 44 -138 61 -289 91 l-173 35 -382 -1 c-365 0 -383 1 -415 20 -18 11 -43
20 -55 20 -31 0 -67 27 -67 51 0 11 11 36 23 57 13 20 42 75 64 122 21 47 65
128 96 181 31 53 61 107 66 121 11 30 30 34 301 68 91 12 299 41 462 65 164
25 309 45 323 45 33 0 488 125 540 149 22 10 58 23 80 30 60 19 177 77 204
100 13 12 32 21 43 21 10 0 18 3 18 8 0 12 -43 37 -73 42 -37 7 -35 23 5 33
44 12 70 36 62 59 -8 27 35 58 130 91 69 24 164 38 656 97 316 38 661 82 765
96 105 15 213 28 240 30 28 2 70 8 95 13 25 6 133 15 241 21 187 10 199 9 240
-10 58 -26 99 -26 99 -1 0 11 -9 26 -20 34 -18 13 -19 15 -5 21 9 3 222 40
473 81 642 106 822 142 1046 210 149 45 334 112 362 130 13 8 28 15 34 15 6 0
24 10 40 22 16 12 33 18 37 15 9 -9 33 48 33 77 0 13 -6 23 -12 24 -7 0 -31 5
-53 11 -329 86 -613 137 -950 171 -620 62 -755 70 -1251 70 -476 0 -483 0
-605 25 -106 22 -266 50 -549 97 -145 24 -423 -3 -693 -67 -59 -14 -136 -25
-171 -25 -43 0 -66 -4 -68 -12 -4 -10 -141 -14 -633 -16 l-629 -3 -95 25 c-53
14 -136 32 -185 41 -106 18 -421 35 -667 35 l-176 0 -33 46 c-18 26 -59 75
-92 109 -32 34 -58 68 -58 74 0 6 -4 11 -8 11 -22 0 -52 43 -52 74 l0 33 122
17 c68 9 133 23 145 31 12 8 31 15 41 15 10 0 27 9 37 20 10 11 26 22 36 25
22 7 25 41 6 58 -29 27 -81 47 -120 47 -23 1 -67 10 -97 21 -30 11 -84 29
-120 41 -36 11 -66 24 -68 29 -2 5 -12 9 -23 9 -10 0 -33 9 -51 20 -18 11 -43
20 -56 20 -34 0 -162 37 -191 56 -46 30 -220 206 -330 334 -59 69 -186 224
-281 345 -96 121 -201 250 -234 286 -34 37 -83 95 -111 129 -27 34 -61 74 -75
88 -14 14 -30 36 -37 49 -12 23 -11 23 49 23 86 0 187 19 225 42 23 14 64 22
145 29 62 5 136 13 163 19 28 5 73 9 101 9 35 1 59 7 77 21 14 11 32 20 40 20
7 0 24 9 36 19 l22 19 -27 21 c-23 18 -39 21 -118 19 -50 -1 -111 -3 -136 -5z"/>
</g>
</svg>
