<?xml version="1.0" standalone="no"?>
<!DOCTYPE svg PUBLIC "-//W3C//DTD SVG 20010904//EN"
 "http://www.w3.org/TR/2001/REC-SVG-20010904/DTD/svg10.dtd">
<svg version="1.0" xmlns="http://www.w3.org/2000/svg"
 width="1280.000000pt" height="851.000000pt" viewBox="0 0 1280.000000 851.000000"
 preserveAspectRatio="xMidYMid meet">
<metadata>
Created by potrace 1.15, written by Peter Selinger 2001-2017
</metadata>
<g transform="translate(0.000000,851.000000) scale(0.100000,-0.100000)"
fill="#000000" stroke="none">
<path d="M5165 7814 c-66 -25 -147 -54 -180 -66 -33 -11 -69 -29 -79 -39 -25
-23 -33 26 153 -897 84 -414 151 -769 149 -790 l-3 -37 -95 -5 c-94 -5 -97 -6
-263 -84 -92 -44 -172 -85 -178 -92 -8 -10 5 -24 53 -59 35 -26 85 -58 112
-71 26 -14 145 -84 265 -156 270 -163 296 -188 196 -188 -66 0 -434 45 -870
105 -563 79 -552 78 -679 49 -153 -35 -186 -28 -73 15 48 18 87 37 87 41 0 21
-87 24 -605 26 -430 2 -567 5 -589 15 -23 11 -67 10 -249 -5 -269 -21 -539
-53 -587 -68 -63 -19 -254 -128 -311 -176 -31 -26 -76 -63 -100 -83 -53 -45
-50 -55 37 -114 149 -103 744 -481 819 -521 17 -9 166 -97 333 -196 220 -131
302 -185 302 -198 0 -33 -20 -73 -58 -115 -20 -22 -51 -61 -68 -85 -24 -35
-54 -59 -143 -109 -61 -35 -175 -105 -253 -157 -328 -220 -499 -383 -666 -637
-94 -142 -125 -244 -83 -267 31 -16 299 -12 417 6 58 9 107 14 111 11 11 -11
-43 -71 -173 -193 -424 -398 -702 -698 -845 -913 -86 -130 -111 -203 -111
-321 0 -116 8 -134 74 -154 181 -55 382 -58 615 -12 576 115 1593 507 2216
854 76 42 132 66 185 78 83 18 103 18 562 -22 96 -8 281 -16 410 -17 333 -3
310 -11 715 246 872 553 947 604 1196 804 122 98 244 195 273 215 69 50 108
51 71 2 -34 -45 -40 -44 429 -44 244 0 458 -3 475 -6 39 -8 39 -24 0 -94 -18
-30 -44 -80 -59 -110 -31 -62 -72 -100 -251 -233 -144 -107 -422 -379 -512
-501 -127 -172 -237 -423 -237 -540 0 -77 19 -89 143 -88 275 2 566 124 942
396 124 89 607 498 728 616 145 141 274 308 339 440 29 58 57 109 63 113 5 4
66 6 135 4 260 -7 2746 14 2780 24 27 7 48 27 95 91 33 45 97 121 143 170 46
49 82 94 80 101 -4 13 -216 157 -402 273 -96 60 -127 74 -159 74 -25 0 -215
59 -505 156 l-464 157 -72 -7 c-55 -5 -103 -1 -207 18 -73 14 -215 39 -314 56
-224 38 -553 103 -705 138 -103 24 -135 26 -307 27 -105 0 -194 3 -198 7 -4 4
9 14 29 22 30 13 42 13 74 2 30 -10 107 -10 402 0 201 7 442 17 535 23 94 6
298 16 455 22 157 5 371 13 475 17 l190 8 130 97 c122 93 154 122 142 133 -12
13 -1023 259 -1127 275 -46 7 -118 7 -231 -1 -90 -5 -272 -13 -404 -16 -172
-5 -248 -11 -267 -20 -16 -8 -58 -14 -100 -14 -40 0 -173 -7 -296 -16 -122
-10 -225 -15 -228 -12 -3 3 223 461 501 1018 278 557 505 1016 503 1021 -3 10
-332 -152 -360 -178 -10 -9 -83 -104 -162 -212 -201 -275 -692 -952 -800
-1101 -198 -277 -328 -450 -337 -450 -5 0 -33 13 -62 30 -91 51 -193 73 -347
74 -110 0 -150 -4 -220 -23 -151 -40 -254 -27 -353 45 -114 85 -194 112 -368
129 -58 6 -74 12 -135 55 -38 27 -99 79 -136 115 -57 56 -71 65 -93 59 -28 -7
-33 7 -10 26 10 8 13 21 9 34 -4 12 -80 136 -169 276 -324 510 -632 1000 -984
1568 l-113 182 -37 -1 c-20 0 -90 -21 -156 -45z"/>
</g>
</svg>
