<?xml version="1.0" standalone="no"?>
<!DOCTYPE svg PUBLIC "-//W3C//DTD SVG 20010904//EN"
 "http://www.w3.org/TR/2001/REC-SVG-20010904/DTD/svg10.dtd">
<svg version="1.0" xmlns="http://www.w3.org/2000/svg"
 width="1280.000000pt" height="640.000000pt" viewBox="0 0 1280.000000 640.000000"
 preserveAspectRatio="xMidYMid meet">
<metadata>
Created by potrace 1.15, written by Peter Selinger 2001-2017
</metadata>
<g transform="translate(0.000000,640.000000) scale(0.100000,-0.100000)"
fill="#000000" stroke="none">
<path d="M5190 4692 c-32 -16 -36 -22 -44 -79 -9 -57 -12 -63 -33 -63 -16 0
-23 -6 -23 -20 0 -18 -7 -20 -70 -20 -40 0 -70 4 -70 10 0 6 -50 10 -130 10
-80 0 -130 -4 -130 -10 0 -6 -60 -10 -159 -10 -159 0 -159 0 -178 25 -17 24
-28 26 -139 37 -84 7 -127 8 -139 0 -14 -7 -25 -6 -42 5 -20 13 -68 15 -333
11 -170 -2 -311 -6 -314 -9 -3 -3 -13 -34 -22 -70 -22 -83 -21 -219 2 -338
l18 -92 322 3 c305 3 323 4 344 23 16 14 24 16 27 8 6 -16 33 -16 142 -2 126
16 127 16 139 44 l12 25 160 0 160 0 0 -35 c0 -19 -4 -35 -10 -35 -5 0 -10
-26 -11 -57 0 -32 -3 -52 -6 -45 -3 8 -32 12 -94 12 l-89 0 -1 -72 c0 -117
-39 -195 -53 -108 -12 76 -35 93 -88 66 -25 -13 -34 -12 -100 15 -103 40 -178
36 -178 -10 0 -17 10 -19 78 -23 53 -2 89 -10 117 -24 37 -19 40 -24 43 -67 3
-45 2 -47 -23 -47 -24 0 -87 -16 -307 -81 l-66 -19 -7 -53 c-11 -83 -67 -237
-109 -300 -48 -71 -112 -129 -185 -164 -47 -23 -69 -27 -142 -28 -78 0 -91 3
-160 37 -117 58 -219 171 -301 332 l-40 79 -286 -7 c-158 -3 -453 -11 -657
-16 -203 -5 -539 -14 -745 -20 l-376 -9 -169 -88 -170 -88 -215 -5 -215 -5
-26 -49 c-43 -78 -53 -149 -43 -284 12 -161 11 -376 -4 -567 -7 -88 -17 -223
-22 -300 -6 -77 -15 -202 -21 -279 -5 -76 -8 -140 -5 -143 4 -4 125 22 456 98
69 16 184 42 255 59 72 16 209 48 305 70 96 22 234 54 305 70 72 17 189 43
260 60 72 17 189 43 260 60 72 16 209 48 305 70 96 22 234 54 305 70 72 17
186 43 255 59 69 16 208 48 310 71 102 23 187 44 189 46 2 2 16 -3 31 -11 36
-19 85 -75 114 -133 14 -27 30 -53 38 -58 10 -8 430 -45 494 -44 7 0 17 30 24
68 17 102 76 269 122 347 54 92 183 220 273 271 69 39 71 41 114 132 27 56 50
92 60 92 8 0 25 9 37 21 l22 21 41 -37 c49 -45 124 -155 141 -209 12 -37 10
-109 -6 -208 -5 -29 -3 -38 8 -38 9 0 24 32 42 90 43 138 86 182 229 236 94
35 111 47 145 99 25 37 30 58 36 135 4 49 9 97 13 106 5 14 31 15 228 8 122
-3 226 -4 231 -1 5 3 252 8 549 11 562 7 874 18 2045 72 422 19 425 20 474
117 24 47 30 72 30 126 l1 68 614 6 c338 4 1241 7 2007 7 l1392 0 17 43 c23
57 23 154 -1 204 l-19 38 -1033 3 c-568 1 -1031 -1 -1029 -5 3 -5 -245 -5
-551 -1 -307 4 -1329 6 -2272 5 l-1715 -2 -3 53 -3 52 -130 0 -129 0 0 39 0
39 174 7 175 7 153 -36 c354 -82 412 -90 658 -90 l225 -1 12 85 c15 110 15
314 0 410 l-12 75 -115 8 c-212 16 -400 -10 -767 -104 -148 -38 -156 -39 -327
-39 -111 0 -176 4 -176 10 0 6 -52 10 -135 10 -83 0 -135 -4 -135 -10 0 -6
-30 -10 -70 -10 -63 0 -70 2 -70 20 0 11 -7 20 -15 20 -11 0 -15 13 -15 53 -1
85 -32 107 -153 107 -49 0 -83 -6 -107 -18z m430 -544 l0 -38 -335 0 -335 0 0
34 0 35 53 3 c28 2 179 3 335 4 l282 1 0 -39z m-72 -155 c-159 -2 -417 -2
-576 0 -158 1 -28 2 288 2 316 0 446 -1 288 -2z m575 0 c-13 -2 -35 -2 -50 0
-16 2 -5 4 22 4 28 0 40 -2 28 -4z m5280 -10 c-29 -2 -78 -2 -110 0 -32 2 -8
3 52 3 61 0 87 -1 58 -3z m-5615 -10 c-26 -2 -71 -2 -100 0 -29 2 -8 3 47 3
55 0 79 -1 53 -3z m5810 0 c-27 -2 -69 -2 -95 0 -27 2 -5 3 47 3 52 0 74 -1
48 -3z m-6305 -20 c-18 -2 -48 -2 -65 0 -18 2 -4 4 32 4 36 0 50 -2 33 -4z
m6774 0 c-20 -2 -52 -2 -70 0 -17 2 0 4 38 4 39 0 53 -2 32 -4z m-7124 -20
c-13 -2 -33 -2 -45 0 -13 2 -3 4 22 4 25 0 35 -2 23 -4z m7450 0 c-13 -2 -35
-2 -50 0 -16 2 -5 4 22 4 28 0 40 -2 28 -4z m-7680 -20 c-7 -2 -21 -2 -30 0
-10 3 -4 5 12 5 17 0 24 -2 18 -5z m7900 0 c-7 -2 -21 -2 -30 0 -10 3 -4 5 12
5 17 0 24 -2 18 -5z m134 -19 c-3 -3 -12 -4 -19 -1 -8 3 -5 6 6 6 11 1 17 -2
13 -5z m-10 -70 c-3 -3 -12 -4 -19 -1 -8 3 -5 6 6 6 11 1 17 -2 13 -5z m-149
-21 c-10 -2 -26 -2 -35 0 -10 3 -2 5 17 5 19 0 27 -2 18 -5z m-225 -20 c-13
-2 -35 -2 -50 0 -16 2 -5 4 22 4 28 0 40 -2 28 -4z m-335 -20 c-21 -2 -55 -2
-75 0 -21 2 -4 4 37 4 41 0 58 -2 38 -4z m-490 -20 c-27 -2 -69 -2 -95 0 -27
2 -5 3 47 3 52 0 74 -1 48 -3z m-200 -10 c-32 -2 -86 -2 -120 0 -35 2 -9 3 57
3 66 0 94 -1 63 -3z m-6298 -439 c83 -70 79 -176 -9 -242 -35 -26 -192 -96
-237 -106 -22 -5 -34 -2 -46 11 -30 36 -98 171 -98 197 0 33 22 106 33 106 15
0 47 -66 47 -100 0 -56 20 -111 50 -142 31 -31 38 -33 60 -18 13 9 12 13 -5
28 -41 36 -47 53 -55 148 -5 73 -11 100 -23 109 -10 7 -17 15 -17 18 0 4 55 8
123 10 67 1 127 4 134 5 6 1 25 -10 43 -24z"/>
</g>
</svg>
