<?xml version="1.0" standalone="no"?>
<!DOCTYPE svg PUBLIC "-//W3C//DTD SVG 20010904//EN"
 "http://www.w3.org/TR/2001/REC-SVG-20010904/DTD/svg10.dtd">
<svg version="1.0" xmlns="http://www.w3.org/2000/svg"
 width="1280.000000pt" height="1110.000000pt" viewBox="0 0 1280.000000 1110.000000"
 preserveAspectRatio="xMidYMid meet">
<metadata>
Created by potrace 1.15, written by Peter Selinger 2001-2017
</metadata>
<g transform="translate(0.000000,1110.000000) scale(0.100000,-0.100000)"
fill="#000000" stroke="none">
<path d="M4010 11089 c-238 -30 -500 -119 -710 -239 -200 -115 -273 -212 -363
-481 -67 -199 -80 -345 -57 -639 6 -69 11 -184 12 -256 1 -111 -2 -137 -18
-170 -32 -67 -62 -75 -307 -84 -251 -10 -295 -20 -419 -103 -127 -84 -446
-354 -511 -433 -120 -143 -254 -369 -302 -509 -42 -124 -38 -251 15 -457 41
-159 38 -196 -28 -343 -84 -186 -161 -427 -235 -735 -99 -408 -136 -690 -113
-866 11 -84 0 -94 -104 -94 -115 0 -139 16 -155 103 -14 72 -69 96 -223 97
-74 0 -85 -3 -106 -23 -44 -44 -68 -131 -74 -260 l-5 -119 -41 -29 c-108 -79
-258 -403 -260 -565 -1 -62 3 -76 26 -110 32 -46 34 -74 12 -135 -22 -60 -29
-251 -15 -387 16 -158 44 -256 90 -322 20 -30 67 -107 102 -170 88 -158 135
-203 270 -259 128 -53 271 -136 322 -187 34 -34 38 -43 34 -74 -3 -19 -48
-118 -99 -219 -51 -101 -94 -187 -96 -191 -1 -4 24 -25 57 -48 109 -77 173
-168 207 -295 22 -82 18 -134 -16 -206 -17 -36 -46 -127 -65 -203 -21 -84 -51
-174 -77 -231 l-43 -92 1 -210 c0 -166 5 -240 22 -350 46 -290 132 -601 205
-740 17 -33 55 -83 84 -111 76 -74 293 -226 398 -279 115 -58 197 -70 425 -62
243 9 381 49 524 151 66 47 176 159 176 179 0 26 61 137 135 247 187 278 268
521 355 1060 45 282 108 537 172 699 40 103 61 128 111 141 78 20 251 92 432
180 509 249 741 415 1304 933 229 210 349 313 356 305 3 -3 -17 -94 -44 -204
-80 -326 -108 -552 -98 -803 7 -168 15 -202 58 -247 39 -41 46 -88 30 -221
-32 -265 -80 -475 -141 -623 -58 -140 -91 -305 -91 -458 0 -172 42 -215 241
-252 156 -30 291 -71 440 -137 361 -158 629 -226 940 -239 284 -12 445 54 411
167 -24 79 -168 203 -264 228 -72 18 -256 174 -425 361 -125 137 -176 208
-202 278 -24 62 -46 242 -43 354 3 148 77 340 179 463 132 161 240 470 339
975 63 325 120 771 145 1145 11 170 40 852 40 946 l0 57 147 36 c288 72 555
210 719 371 79 78 106 123 185 322 67 169 146 326 314 623 188 333 246 455
254 535 8 76 44 139 147 257 144 166 326 308 631 490 l208 125 359 7 c198 4
380 10 405 13 42 6 44 7 18 14 -15 4 -77 13 -137 20 -61 7 -110 15 -110 19 0
3 56 16 125 29 107 20 141 23 241 17 137 -9 141 -7 243 111 90 105 96 108 205
103 154 -6 185 -4 205 14 36 33 191 38 876 32 358 -4 692 -9 743 -13 l94 -6
-4 140 c-3 122 -6 144 -22 162 -27 29 -86 27 -154 -5 -46 -22 -80 -28 -226
-40 -181 -14 -811 -34 -1107 -34 l-176 0 -7 103 c-19 276 -49 400 -101 413
-55 14 -121 -46 -289 -263 l-109 -141 -1361 -7 c-749 -3 -1426 -5 -1506 -3
l-145 3 -6 85 c-3 47 -9 93 -13 102 -27 59 -176 97 -531 138 -239 27 -954 100
-986 100 -41 0 -146 -137 -221 -288 -58 -117 -63 -125 -113 -153 -62 -35 -84
-57 -94 -95 -11 -43 -51 -57 -156 -58 -160 -1 -184 12 -256 136 -22 37 -59 87
-83 111 -35 36 -46 56 -60 113 -22 92 -35 202 -36 297 0 95 9 106 110 136 89
27 114 43 130 81 26 63 -18 179 -221 578 -211 415 -255 480 -383 556 -175 105
-419 147 -666 115z m6947 -1754 c7 -22 21 -78 30 -124 l17 -84 -25 -20 c-21
-17 -35 -19 -119 -15 -52 3 -105 10 -117 16 -56 30 -30 95 82 201 89 84 110
88 132 26z m-3725 5 c184 -9 226 -19 248 -59 15 -30 12 -97 -5 -111 -9 -7 -71
-19 -138 -26 -162 -17 -677 -29 -850 -19 -163 8 -172 14 -162 84 10 63 29 96
65 111 63 26 512 37 842 20z m1207 -944 c41 -50 -107 -237 -473 -593 -500
-488 -613 -569 -943 -676 -214 -70 -292 -84 -362 -67 -109 26 -382 236 -432
332 -10 21 -19 53 -19 73 0 34 6 53 65 209 14 39 30 106 36 150 7 55 15 85 26
94 18 13 214 15 378 3 l90 -6 13 -235 c7 -129 14 -235 15 -236 1 -1 133 26
292 60 l290 63 6 59 c4 32 10 148 14 256 5 127 11 201 19 206 19 15 527 218
626 251 200 65 335 87 359 57z m-1737 -184 c61 -36 75 -122 28 -175 -41 -47
-150 -77 -163 -44 -15 39 -30 200 -21 215 22 34 101 36 156 4z m-1493 -1849
c179 -104 421 -284 421 -314 0 -23 -490 -319 -530 -319 -23 0 -9 405 21 593
13 78 19 81 88 40z m-4359 -803 c0 -10 -15 -35 -34 -54 -55 -59 -108 -41 -70
23 31 53 104 74 104 31z"/>
</g>
</svg>
