<?xml version="1.0" standalone="no"?>
<!DOCTYPE svg PUBLIC "-//W3C//DTD SVG 20010904//EN"
 "http://www.w3.org/TR/2001/REC-SVG-20010904/DTD/svg10.dtd">
<svg version="1.0" xmlns="http://www.w3.org/2000/svg"
 width="1097.000000pt" height="1280.000000pt" viewBox="0 0 1097.000000 1280.000000"
 preserveAspectRatio="xMidYMid meet">
<metadata>
Created by potrace 1.15, written by Peter Selinger 2001-2017
</metadata>
<g transform="translate(0.000000,1280.000000) scale(0.100000,-0.100000)"
fill="#000000" stroke="none">
<path d="M4074 8893 c-38 -19 -80 -43 -94 -52 -14 -10 -36 -23 -50 -29 -14 -7
-46 -25 -72 -40 -25 -15 -90 -51 -143 -80 l-97 -54 -42 45 c-52 56 -83 67
-107 38 -11 -14 -29 -21 -51 -21 -37 0 -48 -6 -64 -35 -7 -13 -26 -22 -53 -26
-50 -7 -61 -20 -54 -63 4 -28 1 -33 -28 -46 -49 -23 -56 -41 -31 -88 l21 -40
-42 -22 c-23 -11 -61 -32 -84 -46 l-42 -25 -36 35 c-36 36 -58 43 -85 26 -12
-7 -12 -17 -4 -57 6 -26 14 -55 17 -63 5 -11 -31 -37 -139 -100 -289 -168
-561 -350 -1064 -708 -399 -285 -569 -417 -904 -700 -402 -340 -568 -497 -621
-587 -28 -48 -71 -173 -62 -181 5 -6 62 42 622 516 501 424 630 524 1140 885
383 272 625 433 888 591 l222 134 21 -26 c75 -93 141 -64 103 46 -13 37 -19
30 83 88 l59 32 28 -21 c16 -12 38 -34 50 -50 28 -38 74 -49 131 -32 41 13 46
12 55 -4 6 -9 29 -37 51 -62 23 -26 49 -60 57 -78 9 -17 32 -41 51 -52 24 -15
37 -32 43 -59 6 -25 19 -43 40 -57 39 -25 69 -76 78 -133 4 -26 15 -48 26 -55
10 -6 19 -20 19 -30 0 -10 5 -28 11 -40 17 -32 86 -97 103 -97 20 0 56 -53 56
-82 0 -30 17 -48 45 -48 12 0 30 -9 40 -20 20 -22 61 -27 67 -8 10 30 31 -42
38 -131 5 -53 15 -114 23 -136 47 -128 145 -304 228 -408 26 -34 41 -65 49
-105 6 -31 29 -111 52 -176 38 -114 40 -126 45 -275 3 -86 1 -208 -5 -271 -7
-63 -15 -182 -18 -265 l-7 -150 33 -90 c18 -49 41 -133 51 -185 36 -173 80
-353 114 -465 19 -60 39 -128 45 -150 12 -40 29 -195 21 -195 -2 0 -30 18 -62
40 -32 22 -80 49 -106 59 -166 66 -154 63 -213 52 -30 -5 -107 -13 -170 -16
l-115 -7 -90 45 c-49 25 -109 47 -132 51 -98 14 -350 -33 -426 -81 -60 -36
-125 -101 -149 -147 -21 -40 -58 -222 -58 -283 0 -69 36 -110 120 -139 30 -10
61 -22 68 -27 23 -17 13 -47 -23 -68 -41 -25 -55 -46 -55 -87 0 -38 -48 -109
-116 -171 -121 -111 -304 -199 -521 -252 -120 -29 -133 -31 -203 -20 -41 6
-86 14 -100 17 -14 4 -22 4 -19 0 4 -4 49 -18 100 -31 l94 -25 -65 6 c-36 3
-76 7 -90 10 l-25 4 25 -10 c41 -18 152 -28 210 -19 58 9 242 74 389 138 141
60 285 174 371 293 25 35 31 38 36 22 3 -11 10 -31 16 -46 7 -18 6 -33 -3 -50
-29 -55 -125 -167 -182 -212 -111 -86 -344 -192 -512 -232 l-30 -7 33 -9 c31
-8 65 -3 116 18 14 5 17 4 12 -4 -13 -21 18 -13 101 27 138 67 288 176 405
294 l107 107 11 -42 c6 -24 15 -56 20 -72 6 -15 8 -31 5 -35 -11 -18 16 -136
38 -170 14 -21 32 -73 41 -117 17 -79 47 -138 93 -181 14 -13 23 -34 23 -51 0
-43 27 -126 51 -156 14 -18 19 -36 16 -53 -2 -14 -1 -40 3 -57 5 -17 11 -63
14 -103 3 -39 13 -88 23 -107 14 -30 15 -41 4 -73 -7 -21 -11 -44 -9 -51 3
-14 -172 -126 -277 -176 -38 -19 -117 -50 -175 -70 -157 -55 -229 -109 -230
-172 0 -26 7 -36 42 -59 53 -35 106 -42 161 -22 25 9 71 16 114 15 61 -1 81 4
140 32 143 68 181 79 312 90 69 6 169 15 221 20 112 10 144 22 161 62 14 35 7
138 -16 218 -22 77 -44 202 -52 286 -5 62 -3 78 17 119 18 37 21 55 15 88 -8
48 -8 60 -4 138 1 31 -3 70 -10 86 -10 25 -8 38 14 98 15 38 25 85 24 104 -1
20 6 54 16 75 21 49 14 87 -25 145 -34 50 -39 77 -12 66 9 -4 71 -25 136 -46
66 -22 167 -63 225 -91 324 -155 361 -169 487 -188 83 -13 142 -9 239 17 100
25 240 34 288 17 34 -12 50 -12 87 -3 42 11 50 9 95 -14 28 -13 87 -36 133
-51 45 -14 99 -34 120 -45 86 -44 497 -145 712 -175 25 -4 110 -19 190 -33
143 -27 145 -27 220 -81 96 -70 264 -151 328 -159 46 -5 51 -3 79 27 l31 33
65 -18 c46 -12 67 -23 70 -36 4 -15 14 -19 45 -19 32 0 55 -10 104 -43 35 -24
68 -54 74 -66 17 -34 74 -90 93 -90 36 -1 69 -11 134 -41 49 -23 67 -37 67
-51 0 -33 108 -67 125 -39 8 13 47 13 94 0 20 -5 53 -12 74 -15 27 -4 41 -13
49 -31 13 -29 74 -48 127 -41 53 8 224 -48 237 -76 11 -27 89 -54 113 -41 29
17 99 0 134 -33 37 -36 97 -67 147 -78 46 -10 144 -69 195 -117 31 -29 49 -38
75 -38 38 0 164 -75 209 -124 14 -14 48 -32 80 -42 55 -16 157 -80 196 -124
11 -12 32 -28 47 -36 35 -18 139 -18 182 0 37 15 76 60 76 87 0 13 9 19 32 21
20 2 36 11 43 23 5 11 36 44 68 74 31 30 57 60 57 67 0 7 -11 26 -25 42 -19
22 -41 33 -97 47 -135 32 -233 67 -313 110 -44 24 -104 53 -133 64 -30 12 -79
42 -110 67 -31 26 -66 50 -78 55 -16 5 -21 14 -17 27 4 15 -8 27 -54 54 -32
19 -74 41 -93 48 -83 33 -180 100 -180 126 0 7 -20 27 -45 44 -33 23 -51 29
-70 24 -27 -7 -34 -2 -230 124 -124 81 -145 99 -145 129 0 27 -51 63 -88 63
-26 0 -142 86 -142 105 0 7 -9 20 -21 31 -11 10 -25 27 -31 37 -8 17 -7 18 14
12 12 -3 48 -17 79 -31 42 -18 63 -22 80 -16 22 9 21 10 -16 22 -22 7 -60 23
-85 36 -54 28 -203 86 -323 126 -49 17 -87 32 -85 34 5 4 115 -25 233 -61 93
-28 179 -67 190 -85 3 -5 13 -10 22 -10 25 0 -46 44 -133 83 -86 38 -135 54
-264 88 -47 12 -115 35 -152 51 -56 23 -79 28 -145 26 -66 -1 -83 -5 -110 -25
-32 -25 -33 -25 -82 -8 -64 21 -74 33 -56 68 8 15 22 39 30 55 21 39 19 60
-14 117 -40 70 -117 138 -194 173 -59 27 -67 34 -76 69 -6 21 -20 72 -31 113
-11 41 -29 86 -40 100 -11 14 -42 70 -70 126 -27 55 -58 109 -70 119 -11 10
-20 27 -20 37 0 26 -23 69 -50 93 -13 11 -33 43 -45 71 -13 27 -37 71 -54 96
-17 26 -35 67 -40 93 -5 26 -14 52 -20 58 -23 23 -10 29 15 6 38 -36 61 -79
68 -129 4 -25 18 -65 31 -90 27 -51 33 -42 9 15 -27 65 -11 75 24 15 39 -67
39 -61 7 55 -14 50 -30 107 -36 127 -14 55 -52 93 -148 149 -47 28 -103 67
-123 87 -33 31 -40 34 -62 24 -21 -9 -27 -7 -52 20 -16 16 -42 37 -58 46 -30
18 -104 120 -173 241 -60 104 -119 177 -181 224 -40 31 -62 58 -93 118 -30 57
-72 112 -152 199 -120 130 -124 135 -239 310 -100 151 -212 284 -336 398
l-100 92 20 52 c10 28 26 92 34 142 8 50 23 129 34 176 28 125 43 218 36 235
-7 18 -37 20 -54 3 -9 -9 -12 -1 -12 38 -1 126 -56 278 -129 352 -79 81 -225
130 -345 117 -179 -21 -311 -105 -372 -239 -29 -63 -47 -190 -38 -266 4 -30 4
-53 2 -50 -3 3 -49 64 -104 135 -54 72 -133 177 -177 234 -72 94 -78 105 -67
126 9 17 9 28 1 43 -6 11 -11 40 -11 63 0 34 -8 52 -47 102 -27 34 -77 90
-112 126 -58 60 -60 61 -25 16 73 -92 95 -125 82 -120 -7 3 -24 22 -38 43 -13
20 -46 59 -72 86 -26 27 -48 56 -48 65 0 27 -75 101 -103 101 -30 0 -167 95
-183 127 -17 36 -46 64 -89 85 -21 11 -64 45 -95 74 -31 29 -72 60 -92 68 -28
12 -37 22 -41 48 -4 18 -9 43 -13 55 -5 19 1 26 39 45 49 25 233 127 303 168
23 14 65 38 93 54 27 16 52 35 56 44 8 20 -39 118 -63 131 -16 9 -33 4 -88
-26z m461 -1223 c16 -16 26 -32 23 -35 -7 -7 -68 43 -68 56 0 17 16 9 45 -21z
m1863 -2892 c83 -99 123 -134 234 -202 90 -55 118 -86 118 -132 0 -22 10 -45
28 -66 15 -18 43 -62 61 -98 19 -36 41 -74 51 -85 9 -11 20 -28 23 -37 3 -9
41 -37 84 -63 52 -30 80 -53 83 -68 3 -12 20 -29 38 -37 17 -8 34 -23 37 -32
10 -29 101 -103 143 -117 53 -18 116 -82 108 -109 -12 -37 -85 -18 -266 71
-91 45 -183 94 -205 109 -59 41 -148 69 -255 79 -52 5 -125 18 -162 29 -74 22
-66 11 -98 142 -11 41 -56 113 -110 173 -9 11 -23 36 -29 55 -6 19 -34 64 -63
98 -47 57 -52 70 -56 120 -4 61 5 84 96 239 36 62 37 63 52 41 8 -13 48 -62
88 -110z m842 -843 c20 -24 6 -28 -15 -5 -10 11 -13 20 -8 20 6 0 16 -7 23
-15z m-9 -32 c13 -16 12 -17 -3 -4 -10 7 -18 15 -18 17 0 8 8 3 21 -13z
m-2817 -593 c-7 -6 -24 22 -23 40 0 9 6 5 14 -10 7 -14 11 -27 9 -30z m-621
-195 c17 -48 7 -71 -12 -29 -10 24 -15 74 -7 74 2 0 11 -20 19 -45z m4734 -44
c27 -16 3 -13 -53 5 -52 18 -74 31 -74 45 0 8 85 -25 127 -50z m-4150 -18 c-3
-10 -5 -2 -5 17 0 19 2 27 5 18 2 -10 2 -26 0 -35z m3 -174 c0 -6 -4 -7 -10
-4 -5 3 -10 11 -10 16 0 6 5 7 10 4 6 -3 10 -11 10 -16z m2 -170 c-5 -42 -22
-46 -22 -5 0 26 4 36 13 33 6 -2 11 -15 9 -28z"/>
</g>
</svg>
