<?xml version="1.0" standalone="no"?>
<!DOCTYPE svg PUBLIC "-//W3C//DTD SVG 20010904//EN"
 "http://www.w3.org/TR/2001/REC-SVG-20010904/DTD/svg10.dtd">
<svg version="1.0" xmlns="http://www.w3.org/2000/svg"
 width="1280.000000pt" height="715.000000pt" viewBox="0 0 1280.000000 715.000000"
 preserveAspectRatio="xMidYMid meet">
<metadata>
Created by potrace 1.15, written by Peter Selinger 2001-2017
</metadata>
<g transform="translate(0.000000,715.000000) scale(0.100000,-0.100000)"
fill="#000000" stroke="none">
<path d="M8675 5896 l8 -1016 -49 0 c-50 1 -78 6 -289 56 -66 15 -131 28 -145
28 -36 1 -40 -17 -5 -25 17 -4 101 -24 188 -44 98 -24 157 -42 157 -50 0 -8
-29 -17 -77 -25 -106 -17 -103 -15 -103 -71 0 -35 -4 -51 -15 -55 -11 -5 -15
-22 -15 -69 l0 -64 54 -15 c48 -14 69 -14 175 -3 67 7 124 11 126 8 3 -2 5
-45 5 -96 l0 -91 -40 -39 c-22 -21 -40 -48 -40 -60 0 -36 -20 -45 -101 -45
l-77 0 -7 31 c-6 27 -10 30 -38 27 -26 -2 -31 -7 -29 -23 2 -17 -6 -23 -42
-33 -60 -16 -79 -45 -74 -114 2 -29 8 -61 13 -72 8 -17 4 -18 -81 -12 -68 6
-101 3 -139 -8 -27 -9 -64 -16 -82 -16 -20 0 -36 -7 -42 -17 -9 -16 -12 -16
-21 -3 -5 8 -10 23 -10 33 0 16 -10 21 -38 18 -8 -1 -16 7 -19 18 -5 20 -13
21 -113 21 -59 0 -128 -3 -154 -6 l-46 -7 0 -51 c0 -52 -13 -73 -53 -89 -9 -3
-17 -13 -17 -21 0 -10 -22 -15 -87 -21 -49 -4 -98 -13 -110 -21 -12 -8 -32
-14 -44 -14 -12 0 -37 -12 -56 -26 -33 -25 -34 -25 -82 -9 -44 14 -53 14 -85
1 -24 -10 -42 -27 -53 -51 -22 -46 4 -49 -402 51 -221 54 -316 82 -342 100
-19 13 -46 24 -60 24 -13 1 -82 16 -154 35 -107 28 -134 39 -151 61 l-22 27
-159 -6 c-87 -2 -166 -8 -175 -12 -24 -10 -30 -37 -23 -100 l7 -55 118 0 c105
0 121 -2 151 -23 19 -13 65 -28 107 -35 40 -6 126 -30 192 -52 94 -31 125 -38
140 -30 23 12 61 3 360 -85 107 -31 230 -67 273 -79 42 -13 79 -25 81 -27 2
-2 2 -26 -1 -53 l-6 -48 -101 6 c-56 4 -108 9 -116 11 -41 12 -60 -53 -24 -80
11 -8 66 -30 124 -49 l105 -34 -2 -114 c-3 -149 -8 -175 -36 -181 -12 -3 -87
-11 -167 -17 -406 -31 -472 -39 -491 -56 -13 -11 -28 -15 -49 -11 -17 4 -30 2
-30 -3 0 -17 -21 -11 -52 15 -57 48 -118 53 -343 24 -117 -15 -119 -18 -123
-184 -4 -128 -5 -135 -26 -140 -30 -7 -150 -33 -216 -46 -66 -14 -89 -33 -124
-104 -31 -61 -28 -90 10 -107 22 -10 24 -17 24 -86 0 -58 -3 -73 -13 -69 -33
12 -38 -9 -17 -62 24 -61 26 -101 6 -101 -28 0 -27 -19 4 -79 31 -62 37 -91
20 -91 -20 0 -9 -40 20 -73 24 -28 28 -40 24 -68 -5 -30 -2 -36 25 -51 25 -14
30 -23 33 -59 3 -39 6 -44 36 -53 29 -8 32 -12 32 -48 0 -34 4 -40 30 -49 24
-9 30 -17 30 -41 0 -24 6 -32 30 -41 26 -10 30 -17 30 -47 0 -32 4 -37 33 -45
27 -9 33 -16 41 -52 8 -35 15 -43 38 -48 25 -6 28 -11 28 -45 0 -38 1 -39 37
-42 33 -3 39 -7 43 -33 4 -24 11 -31 35 -33 17 -2 36 -9 44 -15 8 -7 24 -10
37 -9 12 2 33 -3 46 -11 13 -8 49 -18 80 -22 31 -3 62 -13 69 -21 6 -8 27 -14
45 -14 19 0 34 -4 34 -10 0 -5 15 -10 34 -10 18 0 39 -7 46 -15 7 -8 28 -15
47 -15 21 0 36 -6 39 -15 4 -10 20 -15 44 -15 26 0 40 -5 44 -16 5 -13 14 -15
41 -10 27 5 37 3 41 -9 4 -10 19 -15 44 -15 22 0 43 -7 51 -16 9 -11 22 -14
46 -9 25 4 35 2 39 -10 4 -9 19 -15 40 -15 18 0 37 -6 41 -13 4 -8 25 -17 47
-20 21 -3 47 -13 57 -22 11 -11 25 -14 39 -10 13 4 28 1 38 -8 9 -8 34 -17 54
-21 25 -5 39 -13 44 -28 5 -18 12 -20 54 -15 37 4 50 2 54 -9 3 -9 20 -14 45
-14 25 0 41 -5 45 -15 3 -10 19 -15 44 -15 26 0 45 -7 57 -20 11 -12 31 -20
50 -20 18 0 38 -7 45 -15 8 -9 29 -15 55 -15 29 0 45 -5 49 -15 3 -10 19 -15
44 -15 23 0 45 -6 52 -15 7 -9 29 -15 54 -15 30 0 44 -5 54 -20 9 -15 23 -20
56 -20 30 0 46 -5 50 -15 4 -10 20 -15 50 -15 29 0 48 -5 53 -15 5 -8 31 -18
58 -22 28 -3 55 -13 61 -21 9 -13 41 -15 175 -16 l164 0 240 63 c132 35 272
71 310 81 246 64 443 137 476 178 9 11 39 27 65 37 97 34 94 32 94 70 0 53 23
91 60 98 20 5 30 12 30 25 0 29 6 30 75 14 59 -14 75 -14 175 1 106 16 113 16
189 -3 88 -22 426 -94 656 -141 136 -27 318 -41 343 -25 4 2 61 14 127 26 74
13 210 52 356 100 129 43 254 83 277 90 24 6 42 17 42 25 0 13 12 17 93 31 27
4 37 11 37 25 0 13 10 20 38 24 68 10 86 19 92 45 6 26 51 48 98 49 17 1 22 7
22 29 0 15 8 43 18 62 11 19 17 41 15 48 -3 8 7 12 30 12 l35 0 -4 78 c-3 42
-7 85 -9 95 -2 11 3 17 15 17 10 0 25 3 34 6 14 5 13 9 -4 31 -22 29 -27 81
-7 88 6 2 75 11 152 20 77 9 143 19 148 24 5 5 -11 46 -34 92 -23 46 -57 120
-75 164 -18 44 -65 141 -105 216 l-72 136 -86 12 c-47 7 -105 15 -128 18 -42
5 -43 6 -43 44 0 58 -19 135 -41 163 -15 19 -32 26 -81 31 -72 8 -84 15 -93
56 -5 20 -14 31 -31 35 -13 3 -24 12 -24 20 0 7 -19 18 -42 24 -73 19 -73 18
-54 38 23 27 21 79 -4 87 -15 5 -20 15 -20 40 0 27 -9 41 -51 79 -30 27 -61
46 -74 46 -14 0 -31 11 -42 26 -24 33 -100 45 -125 20 -23 -22 -40 -21 -186
15 -277 68 -282 68 -293 47 -14 -26 -38 -22 -49 7 -8 22 -16 25 -55 25 -34 0
-47 -4 -52 -17 -11 -27 -9 -111 3 -123 5 -5 41 -16 80 -23 59 -10 69 -15 72
-35 3 -20 -1 -22 -38 -22 -33 0 -43 -4 -47 -20 -6 -22 -32 -27 -50 -9 -5 5
-36 13 -67 16 -53 6 -56 5 -56 -17 0 -21 -3 -22 -47 -17 -27 4 -122 14 -213
24 -91 9 -170 22 -177 29 -17 17 -87 28 -91 15 -6 -17 -54 -13 -76 7 -32 28
-163 64 -187 51 -15 -7 -44 -3 -117 17 -53 15 -133 29 -177 33 -58 4 -80 10
-80 20 0 17 31 20 265 25 102 2 192 6 200 9 8 3 73 8 144 11 108 5 133 9 150
25 12 10 37 26 56 35 20 9 58 36 84 61 44 40 48 48 42 76 -5 24 2 44 29 93 41
74 43 107 14 202 -19 62 -20 69 -5 80 21 15 22 97 1 114 -8 7 -15 21 -15 31 0
10 -10 25 -22 34 l-23 15 -3 1529 c-3 1347 -6 1530 -19 1535 -13 5 -14 -167
-11 -1506 1 -832 -1 -1537 -5 -1565 -10 -60 -13 -62 -95 -36 -35 11 -62 27
-75 45 -23 31 -61 37 -75 12 -14 -25 -151 -4 -171 26 -14 21 -65 28 -76 10
-14 -22 -25 -7 -25 33 0 50 -19 73 -67 83 -27 5 -34 1 -63 -35 -19 -23 -39
-41 -45 -41 -8 0 -15 32 -19 97 -4 54 -12 101 -18 105 -6 3 -22 2 -35 -3 -21
-8 -23 -6 -23 19 0 22 11 36 49 65 28 20 67 61 88 91 21 31 46 58 55 61 16 6
56 117 73 203 11 54 -3 92 -39 107 -55 23 -220 35 -326 24 -125 -12 -144 -30
-170 -150 -38 -179 -41 -189 -66 -189 -48 0 -73 17 -80 57 -4 24 -20 52 -42
75 -22 24 -37 51 -41 75 -5 32 -10 38 -34 41 -53 6 -21 27 56 36 51 6 77 13
77 22 0 7 12 14 28 16 21 2 26 8 24 23 -2 11 -12 27 -22 35 -10 8 -20 26 -22
40 -2 19 -10 26 -29 28 -21 2 -28 10 -33 33 -4 23 -11 29 -32 29 -14 0 -33 -9
-42 -20 -17 -19 -18 -19 -106 10 -49 17 -108 30 -131 30 -34 0 -44 4 -48 20
-7 27 -26 25 -36 -4 -11 -28 -28 -36 -64 -29 l-27 5 -1 632 c-3 965 -11 1398
-28 1404 -11 4 -12 -153 -6 -1012z m163 -1242 c-5 -28 -28 -29 -28 -1 0 13 3
27 7 31 10 10 25 -10 21 -30z m122 -26 c0 -45 -19 -48 -34 -6 -11 33 -2 60 19
52 10 -4 15 -19 15 -46z m-152 -106 c3 -36 -1 -48 -22 -67 -20 -18 -26 -34
-26 -65 0 -43 -2 -45 -31 -30 -17 9 -19 22 -19 105 0 102 2 105 60 102 34 -2
35 -4 38 -45z m252 18 c0 -6 -32 -10 -75 -10 -43 0 -75 4 -75 10 0 6 32 10 75
10 43 0 75 -4 75 -10z m820 -631 c0 -33 -17 -44 -55 -35 -32 8 -34 49 -3 70
30 21 58 4 58 -35z m1020 -879 c0 -16 -7 -20 -35 -20 -39 0 -42 6 -19 38 12
18 19 20 35 12 10 -6 19 -20 19 -30z m-5272 -167 c-5 -27 -8 -86 -6 -133 3
-76 1 -85 -16 -88 -18 -4 -18 2 -11 130 6 122 15 155 36 143 3 -3 2 -26 -3
-52z m162 37 c0 -11 -4 -20 -10 -20 -5 0 -10 9 -10 20 0 11 5 20 10 20 6 0 10
-9 10 -20z m5463 -14 c38 -12 69 -25 70 -30 1 -5 -39 -8 -90 -7 -78 2 -93 0
-101 -15 -9 -17 -13 -16 -49 8 -21 14 -48 29 -60 33 -13 3 -23 13 -23 21 0 11
4 12 19 4 28 -15 77 -12 91 5 14 16 40 13 143 -19z m-5261 -38 c-15 -15 -26
-4 -18 18 5 13 9 15 18 6 9 -9 9 -15 0 -24z m-177 -63 c22 -23 33 -45 21 -45
-3 0 -21 9 -40 21 -22 13 -33 26 -29 35 7 20 19 18 48 -11z m-125 -45 c0 -11
-7 -20 -15 -20 -15 0 -21 21 -8 33 12 13 23 7 23 -13z m58 8 c-2 -6 -10 -14
-16 -16 -7 -2 -10 2 -6 12 7 18 28 22 22 4z m-58 -84 c0 -9 -5 -14 -12 -12
-18 6 -21 28 -4 28 9 0 16 -7 16 -16z m6640 -1112 c0 -21 -4 -32 -9 -26 -12
13 -22 60 -14 67 12 13 23 -5 23 -41z m-20 -159 c0 -23 -17 -49 -26 -41 -9 10
4 58 16 58 6 0 10 -8 10 -17z m-667 -303 c3 -14 -3 -26 -20 -40 -31 -24 -33
-24 -62 -4 -19 14 -22 22 -16 53 4 20 9 39 11 43 9 13 81 -30 87 -52z"/>
<path d="M1593 6023 c20 -1230 20 -1248 8 -1290 -17 -62 -30 -70 -123 -77
-129 -11 -232 -26 -241 -35 -11 -11 16 -109 50 -176 13 -27 42 -71 64 -97 l39
-47 -32 -45 c-28 -41 -36 -46 -70 -46 -37 0 -38 1 -38 35 0 34 -1 35 -36 35
-36 0 -37 0 -31 -35 6 -37 -6 -53 -27 -36 -20 17 -64 -3 -76 -34 -22 -58 -5
-156 30 -175 24 -13 70 -13 70 0 0 17 83 11 105 -8 18 -15 20 -27 17 -129 -3
-90 -7 -113 -18 -113 -22 0 -104 44 -148 79 -30 24 -42 28 -56 21 -33 -18 -38
-70 -6 -70 17 0 172 -76 180 -88 4 -7 -30 -65 -60 -101 -2 -2 -24 9 -48 23
-37 22 -50 25 -66 16 -22 -12 -26 -42 -7 -58 6 -6 28 -14 47 -19 48 -13 53
-45 9 -58 -48 -15 -59 -39 -31 -68 12 -13 22 -35 22 -49 l0 -25 -122 -7 c-125
-7 -170 -19 -176 -47 -2 -12 12 -19 59 -29 39 -9 69 -22 83 -37 16 -17 38 -25
81 -31 33 -4 58 -10 57 -14 -1 -5 -2 -50 -2 -102 l0 -94 -87 -27 c-80 -24 -93
-32 -143 -85 -89 -94 -120 -155 -127 -244 -6 -73 -7 -76 -39 -96 -28 -16 -34
-26 -34 -52 0 -26 -9 -40 -41 -68 -39 -33 -41 -38 -46 -105 -5 -68 -8 -73 -81
-175 -42 -58 -99 -134 -128 -170 -63 -79 -70 -95 -89 -213 -22 -133 -20 -157
15 -205 21 -30 30 -53 30 -81 0 -22 10 -64 21 -95 24 -61 20 -86 -11 -86 -28
0 -26 -40 5 -124 31 -83 32 -104 3 -108 -20 -3 -22 -8 -20 -36 2 -19 15 -57
28 -85 29 -63 30 -73 4 -80 -30 -8 -27 -60 5 -81 28 -18 34 -46 10 -46 -23 0
-15 -71 16 -132 5 -10 9 -25 9 -33 0 -8 4 -23 9 -33 15 -29 28 -65 48 -127
l19 -60 139 -6 c77 -4 235 -7 352 -8 193 -1 213 1 222 17 5 9 19 67 31 127 11
61 28 143 36 183 l15 72 52 27 c60 30 74 31 205 6 88 -16 155 -18 712 -16 748
3 1087 15 1178 43 84 26 136 25 199 -4 48 -23 58 -24 139 -16 101 9 132 0 140
-39 18 -88 28 -125 56 -201 41 -116 71 -166 103 -172 66 -13 666 16 678 33 20
27 37 61 37 72 0 8 6 20 14 26 8 7 17 30 21 51 4 21 13 41 21 44 8 3 14 16 14
30 0 14 4 27 9 31 6 3 13 25 17 50 3 24 12 50 20 56 19 16 19 79 -1 79 -8 0
-15 3 -15 8 0 10 30 54 46 67 19 16 6 75 -17 75 -25 0 -24 8 7 77 14 32 26 76
27 98 2 37 0 40 -25 43 l-27 3 25 67 c31 84 30 145 -3 150 -25 4 -29 22 -11
55 6 12 15 56 20 97 5 41 11 94 14 117 6 46 -27 206 -53 257 -9 17 -71 85
-138 151 -77 75 -129 134 -139 158 -8 21 -22 45 -31 53 -10 11 -15 35 -15 79
0 51 -4 69 -23 92 -12 15 -47 68 -76 117 -43 71 -52 92 -44 106 14 22 4 37
-27 41 -16 3 -30 15 -40 35 -25 50 -56 87 -99 119 -22 17 -43 38 -47 48 -8 25
-57 47 -105 47 -23 0 -63 10 -89 23 -46 21 -48 24 -54 76 -4 30 -14 82 -22
117 -19 74 -16 89 23 98 67 17 143 59 149 82 4 16 13 24 28 24 33 0 61 24 53
45 -7 15 -22 17 -168 14 l-161 -4 -14 28 c-14 25 -13 30 6 56 25 37 25 57 0
73 -27 17 -25 35 6 42 20 5 25 12 22 34 -5 40 -45 42 -83 2 -16 -16 -36 -30
-46 -30 -14 0 -49 38 -49 54 0 9 71 42 130 61 70 22 76 28 62 60 -13 29 -28
32 -53 9 -27 -24 -157 -74 -195 -74 l-34 0 0 103 c0 145 4 141 -159 139 -122
-1 -131 0 -131 17 0 10 9 21 20 24 11 3 20 10 20 17 0 7 -9 14 -20 17 -18 5
-20 14 -20 112 0 58 -5 273 -10 476 -5 204 -14 676 -20 1050 -7 374 -14 686
-16 694 -3 9 -8 11 -14 5 -9 -9 -6 -201 31 -1781 6 -276 9 -509 6 -518 -5 -10
-20 -15 -52 -15 -33 0 -45 -4 -45 -15 0 -13 -23 -15 -144 -15 -86 0 -147 4
-151 10 -3 6 -15 10 -26 10 -16 0 -19 7 -19 43 l0 43 -74 13 c-47 7 -76 17
-80 27 -3 9 -20 14 -45 14 -33 0 -40 3 -43 23 -2 17 -11 23 -35 25 -28 3 -32
0 -35 -25 l-3 -28 -95 -2 -95 -3 -27 39 c-31 45 -111 81 -182 81 l-43 0 -7 47
c-3 26 -15 56 -25 67 -11 12 -21 39 -23 61 l-3 40 85 -2 c47 -2 138 -6 203
-10 102 -7 120 -6 127 7 12 25 19 139 8 146 -5 4 -8 32 -6 63 l3 56 -115 13
c-63 7 -178 13 -255 14 l-139 2 -26 30 c-21 25 -25 40 -25 90 0 56 -2 61 -22
64 -22 3 -23 0 -23 -67 0 -61 -3 -72 -22 -85 -12 -9 -35 -16 -51 -16 -37 0
-87 -22 -111 -49 -11 -11 -22 -21 -26 -21 -4 0 -10 269 -14 598 -8 754 -16
1032 -29 1032 -7 0 -8 -137 -4 -417z m235 -1225 c2 -10 -5 -19 -18 -23 -27 -8
-43 6 -34 29 8 22 48 17 52 -6z m122 -8 c0 -21 -24 -28 -35 -10 -8 14 3 30 21
30 8 0 14 -9 14 -20z m55 -50 c0 -26 -5 -45 -12 -47 -9 -3 -13 10 -13 47 0 37
4 50 13 48 7 -3 12 -22 12 -48z m975 -705 c0 -10 -10 -15 -30 -15 -20 0 -30 5
-30 15 0 10 10 15 30 15 20 0 30 -5 30 -15z m-530 -20 c0 -16 -27 -32 -37 -22
-3 4 -3 13 0 22 8 20 37 20 37 0z m164 -4 c9 -13 -19 -21 -75 -21 -37 0 -49 4
-49 15 0 12 13 15 59 15 33 0 62 -4 65 -9z m-2204 -2600 c0 -22 -4 -43 -10
-46 -6 -4 -10 12 -10 39 0 25 5 46 10 46 6 0 10 -18 10 -39z m-1 -238 c1 -24
-3 -43 -8 -43 -9 0 -20 108 -11 116 8 9 19 -30 19 -73z m11 -229 c0 -24 -5
-34 -15 -34 -10 0 -15 10 -15 33 0 19 3 37 6 40 13 13 24 -5 24 -39z"/>
</g>
</svg>
