<?xml version="1.0" standalone="no"?>
<!DOCTYPE svg PUBLIC "-//W3C//DTD SVG 20010904//EN"
 "http://www.w3.org/TR/2001/REC-SVG-20010904/DTD/svg10.dtd">
<svg version="1.0" xmlns="http://www.w3.org/2000/svg"
 width="1280.000000pt" height="745.000000pt" viewBox="0 0 1280.000000 745.000000"
 preserveAspectRatio="xMidYMid meet">
<metadata>
Created by potrace 1.15, written by Peter Selinger 2001-2017
</metadata>
<g transform="translate(0.000000,745.000000) scale(0.100000,-0.100000)"
fill="#000000" stroke="none">
<path d="M9236 6188 c-3 -145 -10 -510 -16 -813 -17 -928 -31 -1529 -36 -1552
-5 -28 -27 -29 -147 -6 -69 13 -87 20 -85 32 2 9 12 16 23 16 17 0 21 10 28
73 5 40 7 79 4 86 -5 13 -33 22 -147 47 -25 5 -85 10 -135 11 -49 0 -165 2
-257 3 l-168 3 0 -42 c0 -23 -5 -47 -12 -54 -16 -16 -111 -15 -127 1 -10 10
-14 9 -22 -5 -6 -10 -17 -18 -26 -18 -14 0 -15 22 -9 218 4 119 11 278 16 352
5 74 14 257 20 405 6 149 15 365 20 480 16 357 33 916 27 922 -19 18 -25 -32
-31 -239 -10 -351 -25 -784 -36 -1058 -6 -135 -17 -429 -24 -653 -8 -225 -17
-412 -21 -415 -3 -3 -15 -1 -25 6 -24 14 -106 16 -115 2 -3 -5 -15 -10 -26
-10 -28 0 -21 -34 9 -38 12 -2 22 -10 22 -19 0 -12 -8 -14 -37 -9 -21 3 -53 6
-70 6 -26 0 -36 6 -48 30 -14 27 -21 30 -61 30 -38 0 -46 -3 -54 -25 -9 -25
-34 -33 -44 -16 -4 5 -2 21 4 36 5 14 21 89 34 165 14 76 31 151 39 167 23 45
35 124 28 185 -4 32 -11 61 -15 65 -10 10 -123 9 -243 -2 l-93 -8 0 25 c0 17
-8 28 -26 37 -23 10 -25 16 -22 58 3 46 2 47 -29 54 -18 3 -39 12 -47 18 -7 6
-98 18 -201 26 -103 9 -192 18 -197 21 -5 3 -7 13 -6 21 2 9 -3 18 -9 20 -7 3
-13 -1 -13 -8 0 -7 -7 -20 -15 -29 -14 -16 -24 -15 -148 12 -72 15 -148 28
-167 28 -38 0 -62 6 -305 70 -196 52 -225 57 -225 38 0 -16 37 -28 300 -94
102 -26 199 -55 216 -65 17 -11 40 -19 50 -19 11 0 33 -9 50 -19 17 -10 50
-22 73 -26 32 -5 41 -11 39 -23 -2 -10 -16 -19 -32 -22 -26 -4 -27 -6 -13 -19
12 -9 14 -18 7 -31 -7 -13 -8 -87 -1 -121 2 -14 62 -31 85 -25 19 5 28 17 40
60 9 30 16 60 16 66 0 9 11 11 38 6 20 -3 42 -6 49 -6 8 0 6 -15 -5 -50 -15
-44 -20 -50 -44 -50 -27 0 -28 -1 -28 -59 0 -51 -3 -61 -20 -66 -13 -4 -22
-19 -26 -43 -9 -50 -20 -62 -53 -56 -23 5 -36 -1 -70 -33 -23 -23 -41 -49 -41
-61 0 -17 -6 -22 -28 -22 -26 0 -28 3 -24 30 4 28 2 30 -27 30 -26 0 -31 -4
-31 -24 0 -22 -6 -26 -46 -32 -37 -5 -50 -13 -65 -38 -41 -65 -1 -166 65 -166
33 0 48 -22 44 -66 -3 -35 -6 -39 -38 -45 -19 -4 -55 -9 -80 -11 l-45 -2 -3
47 -3 47 -175 0 -174 0 0 -52 c0 -61 -6 -72 -40 -83 -38 -12 -125 -63 -145
-85 -24 -26 -28 -25 -80 10 -50 34 -56 35 -95 15 -18 -9 -34 -30 -45 -60 -14
-34 -28 -50 -59 -68 -29 -15 -44 -32 -51 -55 -8 -27 -14 -32 -40 -33 -16 0
-41 -2 -55 -4 -27 -3 -112 4 -380 35 -96 11 -251 29 -345 40 -205 23 -445 52
-655 79 -372 48 -383 50 -405 71 -18 17 -35 20 -106 20 -46 0 -111 5 -144 10
-33 6 -127 19 -210 30 -82 10 -204 26 -270 35 -66 9 -165 18 -220 19 -81 2
-113 8 -169 29 -63 25 -80 27 -218 27 -175 0 -211 -10 -233 -64 -8 -20 -15
-52 -15 -72 0 -31 8 -45 44 -79 51 -49 77 -54 286 -56 202 -1 292 -11 326 -38
23 -18 37 -21 69 -17 22 4 74 2 115 -4 41 -5 154 -19 250 -29 217 -25 357 -46
392 -59 20 -9 34 -7 62 8 34 17 44 17 163 4 71 -8 139 -16 153 -19 14 -3 104
-14 200 -26 182 -21 361 -44 635 -79 88 -11 237 -29 330 -40 247 -29 289 -36
293 -48 8 -24 44 -61 91 -93 28 -19 51 -40 51 -48 0 -15 41 -67 128 -165 28
-32 52 -63 52 -68 0 -7 -28 -8 -77 -3 -82 8 -133 33 -133 66 0 29 -48 59 -94
59 -41 0 -156 -51 -200 -89 -15 -13 -38 -15 -131 -12 -62 1 -137 -2 -169 -9
-48 -10 -56 -15 -56 -34 0 -18 -14 -28 -75 -55 -41 -19 -94 -46 -118 -62 -43
-28 -43 -28 -98 -14 -29 8 -57 15 -61 15 -14 0 -8 -33 8 -51 9 -10 13 -23 9
-28 -12 -20 -39 -11 -76 25 -30 30 -45 37 -79 38 -35 1 -46 -4 -64 -27 -26
-32 -33 -33 -54 -7 -52 63 -415 81 -463 23 -8 -9 -14 -69 -17 -178 l-5 -164
-56 -6 c-49 -5 -196 -30 -326 -54 -48 -9 -176 -108 -219 -169 -21 -31 -27 -49
-24 -83 3 -38 9 -47 54 -84 49 -38 52 -42 52 -88 0 -39 -3 -47 -19 -48 -10 -1
-23 -3 -29 -4 -5 -1 -12 -3 -15 -4 -3 0 2 -12 11 -26 12 -18 15 -36 10 -65 -3
-23 -2 -49 3 -59 8 -14 4 -26 -15 -52 -24 -33 -24 -34 -5 -43 21 -9 45 -85 46
-146 0 -30 4 -36 25 -38 30 -4 100 -69 100 -93 0 -22 16 -33 68 -48 23 -6 56
-25 72 -41 17 -17 40 -30 51 -30 22 0 94 -34 104 -50 3 -5 18 -10 33 -10 15 0
43 -10 62 -21 19 -12 59 -30 89 -40 29 -10 68 -28 86 -39 18 -11 40 -20 50
-20 9 0 34 -9 54 -20 115 -62 354 -138 628 -200 l91 -21 169 21 c92 12 186 25
208 30 22 5 111 15 197 22 140 11 159 10 175 -4 10 -8 40 -25 67 -37 28 -12
64 -32 81 -46 18 -13 66 -39 107 -58 42 -20 104 -53 139 -75 100 -61 212 -120
276 -143 32 -12 63 -26 69 -31 37 -28 374 -98 476 -98 65 0 270 27 383 51 28
5 77 14 110 18 33 5 71 13 85 18 14 6 38 8 55 6 16 -2 46 3 66 13 22 10 51 14
71 12 18 -3 46 -1 63 5 35 11 121 25 221 35 39 4 78 13 87 20 9 8 25 11 36 7
11 -3 37 -2 58 4 21 5 63 12 93 15 30 4 87 11 125 17 39 6 95 12 126 13 30 2
65 9 77 15 11 6 41 11 65 11 25 0 61 7 82 15 20 9 45 13 56 10 11 -4 42 1 69
10 27 9 53 14 58 11 5 -3 30 1 57 9 26 8 79 15 116 15 40 0 86 7 109 16 22 9
54 14 73 11 18 -3 56 4 89 15 32 11 67 17 78 13 12 -4 28 -1 36 6 13 11 119
28 209 34 22 1 51 7 65 12 14 6 66 14 115 18 52 4 100 14 114 22 21 14 69 21
176 27 17 0 41 7 54 14 14 9 36 11 57 7 30 -5 35 -3 46 20 9 21 18 25 54 25
35 0 44 4 50 23 9 29 22 37 61 37 28 0 35 5 47 35 14 33 27 40 85 47 17 2 27
13 35 38 10 31 16 36 51 40 32 4 41 10 43 27 4 29 20 41 62 45 25 2 36 8 38
23 7 33 23 45 63 45 34 0 39 3 39 23 0 37 27 67 61 67 23 0 29 4 29 21 0 33
38 79 66 79 20 0 24 5 24 32 0 18 7 52 16 75 13 34 22 43 41 43 24 0 24 0 17
80 -6 78 -6 80 16 80 18 0 21 4 16 22 -24 89 -30 142 -18 146 7 2 18 15 23 29
7 20 14 24 32 19 42 -11 180 -19 175 -10 -23 42 -78 168 -78 180 0 8 -16 50
-36 92 -20 42 -45 96 -55 120 -11 24 -28 46 -41 51 -13 4 -84 13 -158 20 -216
19 -240 22 -240 31 0 15 19 22 74 29 36 4 51 10 51 21 0 8 8 26 18 40 24 34
22 84 -5 115 -19 21 -35 27 -90 32 -71 6 -78 12 -78 74 0 15 -13 37 -33 57
-26 26 -43 32 -92 38 -33 3 -82 13 -108 21 -27 8 -81 18 -120 22 l-71 6 -9 43
-8 42 -113 0 c-75 0 -116 4 -124 12 -7 7 -42 15 -78 18 -61 5 -65 4 -70 -17
-6 -21 -10 -22 -59 -17 -42 5 -53 3 -58 -10 -5 -13 -21 -16 -75 -16 -97 0
-132 8 -132 31 0 15 -7 19 -35 19 -19 0 -35 3 -35 7 0 4 19 27 42 50 41 42 42
44 29 76 -49 124 -48 114 -19 144 87 93 88 154 6 334 -30 67 -55 89 -100 89
l-21 0 7 318 c4 174 11 580 17 902 5 322 14 711 19 865 12 360 12 585 1 585
-5 0 -11 -118 -15 -262z m-2231 -1738 c-3 -5 -22 -10 -41 -10 -19 0 -34 5 -34
10 0 6 18 10 41 10 24 0 38 -4 34 -10z m1123 -527 c2 -8 -5 -13 -17 -13 -12 0
-21 6 -21 16 0 18 31 15 38 -3z m152 -3 c0 -5 -13 -10 -30 -10 -16 0 -30 5
-30 10 0 6 14 10 30 10 17 0 30 -4 30 -10z m-6122 -82 c13 -13 16 -59 6 -95
-13 -47 -63 -14 -64 40 0 54 30 83 58 55z m6941 -687 c8 -14 2 -16 -40 -18
-56 -1 -68 19 -21 35 32 11 49 6 61 -17z m-351 -41 c27 -36 27 -45 3 -71 -17
-19 -35 -21 -195 -26 -116 -4 -176 -3 -176 4 0 17 39 60 73 82 31 19 133 37
228 40 39 1 48 -3 67 -29z m-4903 -380 c3 -5 1 -10 -4 -10 -6 0 -20 -9 -31
-20 -30 -30 -27 -103 5 -142 30 -36 31 -44 4 -58 -19 -11 -19 -13 -5 -29 30
-34 20 -51 -29 -51 l-45 0 0 150 c0 131 2 150 18 159 22 13 79 14 87 1z m263
-6 c9 -3 19 -55 10 -54 -16 2 -116 58 -111 63 6 6 71 1 101 -9z m224 -31 c22
-20 24 -76 3 -93 -12 -10 -20 -6 -47 22 -18 19 -39 37 -47 39 -11 4 -12 9 -2
27 14 27 66 30 93 5z m6526 -762 c3 -8 -1 -12 -9 -9 -7 2 -15 10 -17 17 -3 8
1 12 9 9 7 -2 15 -10 17 -17z m-8 -175 c0 -20 -26 -40 -35 -26 -10 16 2 40 20
40 8 0 15 -6 15 -14z m-742 -61 c6 -13 8 -27 3 -29 -11 -7 -53 38 -44 47 13
14 30 6 41 -18z m682 -90 c0 -16 -27 -32 -37 -22 -3 4 -3 13 0 22 8 20 37 20
37 0z m-610 -33 c0 -4 17 -18 38 -31 48 -29 47 -64 -1 -80 -16 -6 -31 -11 -32
-11 -1 0 -5 19 -9 43 -4 23 -9 52 -13 65 -3 13 -1 22 6 22 6 0 11 -3 11 -8z
m-6072 -249 c3 -20 -1 -23 -27 -23 -32 0 -36 6 -25 35 10 24 48 15 52 -12z
m-128 -38 c6 -8 38 -17 70 -21 l59 -6 11 -54 c8 -38 8 -59 0 -74 -13 -24 -11
-23 -62 -8 -36 11 -38 13 -36 47 2 26 -1 36 -14 39 -10 2 -19 -5 -23 -17 -7
-24 -15 -25 -67 -10 -37 10 -38 11 -38 59 0 42 3 49 23 53 45 9 65 7 77 -8z
m-202 -18 c2 -10 -3 -17 -12 -17 -18 0 -29 16 -21 31 9 14 29 6 33 -14z m65
-12 c-6 -16 -16 -19 -26 -8 -9 8 13 34 24 28 4 -3 6 -12 2 -20z m1114 -168 c2
-3 0 -15 -7 -26 -9 -17 -20 -21 -66 -21 l-55 0 22 31 c20 28 26 31 61 26 22
-3 42 -8 45 -10z m83 -22 c0 -17 -2 -18 -24 -9 -23 9 -20 24 4 24 11 0 20 -7
20 -15z m4525 -15 c3 -5 1 -10 -4 -10 -6 0 -11 5 -11 10 0 6 2 10 4 10 3 0 8
-4 11 -10z m-585 -101 c0 -5 -7 -9 -15 -9 -15 0 -20 12 -9 23 8 8 24 -1 24
-14z m-636 -68 c3 -5 -1 -11 -9 -15 -15 -6 -29 7 -18 18 9 9 21 8 27 -3z
m-659 -92 c8 -13 6 -15 -23 -24 -22 -6 -23 -5 -13 14 13 23 26 27 36 10z
m-708 -101 c31 -29 29 -38 -11 -38 -41 0 -51 12 -36 40 13 25 18 25 47 -2z"/>
</g>
</svg>
