<?xml version="1.0" standalone="no"?>
<!DOCTYPE svg PUBLIC "-//W3C//DTD SVG 20010904//EN"
 "http://www.w3.org/TR/2001/REC-SVG-20010904/DTD/svg10.dtd">
<svg version="1.0" xmlns="http://www.w3.org/2000/svg"
 width="1280.000000pt" height="588.000000pt" viewBox="0 0 1280.000000 588.000000"
 preserveAspectRatio="xMidYMid meet">
<metadata>
Created by potrace 1.15, written by Peter Selinger 2001-2017
</metadata>
<g transform="translate(0.000000,588.000000) scale(0.100000,-0.100000)"
fill="#000000" stroke="none">
<path d="M9327 5843 c-4 -3 -7 -110 -7 -237 0 -127 -4 -334 -10 -461 -5 -126
-17 -426 -25 -665 -8 -239 -17 -469 -20 -510 -2 -41 -7 -142 -10 -225 -3 -82
-8 -192 -11 -243 l-6 -94 -42 6 c-22 3 -117 7 -211 7 -93 1 -178 6 -189 11
-29 15 -36 -1 -43 -104 l-6 -95 -103 -1 -103 0 -6 29 c-8 37 -20 37 -34 -2 -9
-27 -14 -30 -47 -27 -35 3 -38 6 -53 53 -12 38 -21 51 -38 53 -20 3 -23 -1
-23 -35 0 -62 -9 -68 -102 -68 l-83 0 -3 30 c-2 24 3 34 27 48 36 21 67 63 77
103 4 16 26 50 50 76 24 26 44 52 44 58 0 6 24 40 54 76 59 72 83 138 72 199
-8 43 -60 89 -90 80 -21 -7 -231 -34 -273 -34 -45 -2 -56 -27 -50 -121 3 -47
15 -141 27 -209 l21 -123 -22 -24 c-17 -18 -25 -21 -36 -13 -7 6 -13 18 -13
25 0 8 -31 36 -69 64 -38 28 -71 56 -74 64 -3 8 -39 22 -84 31 -104 23 -201
62 -208 84 -3 10 -20 33 -39 52 -31 32 -34 40 -40 122 -4 57 -3 87 4 87 6 0
27 -7 48 -16 51 -23 312 -29 312 -8 0 10 14 14 49 14 28 0 52 4 55 8 8 14 -10
33 -40 41 -16 4 -34 18 -41 32 -8 16 -23 26 -45 29 -27 4 -34 10 -36 31 -4 35
-37 45 -57 16 -14 -20 -17 -20 -117 -9 -57 7 -134 19 -173 27 -38 8 -87 15
-108 15 -45 0 -77 15 -77 35 0 8 -7 15 -15 15 -10 0 -15 -10 -15 -30 0 -27 -3
-30 -32 -30 -18 0 -76 9 -128 19 -52 11 -98 16 -103 12 -4 -4 -47 -2 -95 5
-105 16 -447 68 -589 91 -57 9 -106 13 -110 10 -16 -17 21 -28 148 -47 241
-35 393 -60 452 -75 32 -8 69 -15 82 -15 13 0 27 -4 30 -10 3 -5 19 -10 35
-10 15 0 30 -5 32 -10 2 -6 45 -18 96 -27 64 -11 92 -21 92 -30 0 -12 -11 -13
-55 -8 -38 5 -55 4 -55 -4 0 -6 6 -11 13 -12 6 0 48 -6 92 -13 l80 -12 -4 -44
c-8 -91 -13 -84 69 -100 41 -8 80 -18 86 -22 13 -9 6 -117 -8 -135 -6 -7 -18
-13 -27 -13 -24 0 -129 -58 -192 -106 -70 -54 -104 -93 -119 -138 -10 -33 -14
-35 -58 -38 l-47 -3 -2 -45 c-1 -25 -2 -48 -2 -52 -1 -5 -8 -8 -16 -8 -10 0
-15 10 -15 28 0 36 -13 55 -36 50 -14 -2 -20 -13 -22 -41 l-3 -37 -135 0 -134
0 0 34 c0 19 -5 38 -10 41 -6 4 -35 3 -65 0 l-55 -7 0 -54 c0 -50 -2 -54 -23
-54 -13 0 -46 -11 -73 -25 -46 -24 -51 -24 -82 -9 -25 12 -51 14 -115 9 -138
-10 -141 -11 -176 -61 -38 -52 -61 -54 -73 -7 -5 18 -12 35 -17 38 -16 9 -39
-6 -51 -34 -13 -33 -37 -47 -105 -61 -58 -13 -151 -54 -180 -81 -19 -17 -46
-18 -380 -19 -213 -1 -395 3 -445 9 -81 11 -162 20 -675 75 -126 14 -315 35
-420 46 -104 12 -271 30 -370 41 -263 28 -279 31 -290 46 -7 9 -62 18 -171 28
-88 8 -230 23 -315 34 -85 11 -188 22 -229 25 -292 22 -349 29 -385 42 -46 18
-134 20 -200 3 -89 -22 -114 -102 -50 -158 38 -33 38 -33 155 -32 96 2 344
-32 364 -49 12 -9 20 -9 29 -2 8 7 26 8 52 2 38 -8 275 -36 545 -64 69 -7 135
-19 148 -27 19 -12 23 -11 35 5 13 18 20 18 118 7 57 -6 185 -20 284 -31 378
-40 473 -51 570 -64 55 -8 129 -17 165 -21 36 -3 90 -10 120 -15 51 -9 166
-23 545 -67 l140 -16 54 -49 c29 -27 72 -59 95 -71 102 -53 227 -106 291 -122
39 -9 74 -19 79 -22 22 -14 -29 -23 -127 -23 -136 0 -171 -13 -184 -66 l-9
-39 -99 -5 c-111 -6 -154 -25 -155 -68 0 -35 -18 -62 -40 -62 -18 0 -20 7 -20
79 0 93 5 90 -117 93 -100 3 -133 -15 -147 -80 -7 -34 -14 -42 -37 -47 -30 -7
-41 -35 -14 -35 21 0 19 -13 -4 -27 -14 -9 -21 -26 -23 -60 -3 -48 -3 -48 -41
-51 -22 -2 -48 3 -60 11 -12 8 -57 17 -100 21 -133 12 -187 -31 -187 -149 0
-64 -2 -70 -41 -117 -23 -27 -56 -55 -74 -62 -23 -10 -35 -23 -39 -43 -6 -25
-15 -31 -80 -51 -153 -48 -259 -115 -372 -234 -39 -40 -53 -65 -59 -96 -8 -50
-1 -66 24 -52 15 7 29 2 65 -26 l47 -36 -34 -37 c-29 -32 -34 -45 -36 -94 -1
-31 3 -65 8 -76 9 -16 6 -23 -14 -38 l-26 -18 26 -53 c14 -28 25 -55 25 -60 0
-4 9 -15 20 -25 19 -16 20 -19 5 -39 -18 -27 -19 -38 -4 -38 7 0 31 -17 54
-38 23 -20 49 -41 59 -47 14 -8 16 -15 7 -37 -10 -26 -9 -28 17 -28 15 0 45
-11 67 -25 22 -13 48 -25 57 -25 11 0 18 -10 20 -27 2 -17 9 -28 18 -28 8 -1
45 -9 83 -19 50 -14 67 -23 67 -37 0 -27 11 -50 21 -43 5 3 26 0 46 -7 21 -7
52 -12 70 -11 30 1 33 -2 33 -26 0 -24 6 -29 57 -44 32 -10 67 -19 78 -20 13
-2 20 -11 20 -28 0 -19 5 -25 20 -23 10 1 32 -5 49 -14 20 -10 43 -13 72 -9
l42 5 -2 -32 c-1 -28 2 -32 24 -33 14 -1 36 -6 48 -13 13 -7 44 -11 70 -10 45
3 47 2 52 -26 5 -32 6 -33 105 -42 33 -3 68 -11 78 -18 13 -9 63 -12 189 -9
113 3 175 1 184 -6 9 -8 20 -7 41 4 32 16 101 13 141 -7 17 -8 25 -8 34 1 18
18 139 15 165 -3 21 -14 23 -14 35 5 16 25 75 27 124 4 30 -14 35 -14 56 0 14
10 43 16 76 16 43 0 57 -4 72 -22 17 -21 18 -21 43 -5 36 23 124 23 150 0 18
-17 19 -17 28 0 8 13 24 17 77 17 38 0 73 -5 79 -11 8 -8 17 -8 31 0 11 6 45
11 75 11 41 0 58 -5 72 -20 18 -20 18 -20 50 0 40 25 103 26 143 3 29 -17 31
-17 51 1 17 16 31 18 77 13 32 -3 60 -11 64 -17 4 -7 17 -5 39 6 24 12 46 14
87 9 30 -3 54 -11 54 -16 0 -15 36 -10 50 6 9 10 31 15 72 15 51 0 61 -3 65
-20 7 -25 20 -25 58 0 42 28 115 28 122 0 6 -24 30 -26 54 -5 10 10 45 18 87
22 65 5 70 4 77 -16 8 -25 22 -27 46 -5 16 14 24 15 61 4 66 -19 118 -24 118
-11 0 14 106 15 115 1 8 -13 62 -13 70 0 3 5 35 10 71 10 48 0 66 -4 70 -15 7
-17 40 -20 49 -5 9 15 142 13 148 -2 3 -10 9 -11 26 0 29 17 126 15 160 -3 25
-12 31 -12 40 -1 7 8 39 17 73 21 57 7 63 6 80 -16 17 -23 19 -23 32 -6 18 23
146 25 146 2 0 -8 6 -15 14 -15 7 0 19 7 26 15 20 24 121 20 155 -6 22 -18 29
-20 36 -8 5 8 9 17 9 22 0 13 94 7 124 -8 36 -19 46 -19 46 0 0 22 42 28 118
17 37 -5 74 -6 82 -2 8 4 41 13 72 20 51 12 60 11 76 -3 23 -21 32 -21 32 -3
0 8 28 23 67 36 61 20 68 21 78 6 17 -22 30 -20 48 7 12 19 31 26 95 36 49 8
83 19 86 27 3 7 22 20 43 29 21 9 48 25 60 37 l22 21 19 -22 18 -23 61 41 c34
22 65 46 68 52 5 7 16 2 32 -13 23 -21 25 -22 34 -5 6 9 29 27 52 38 23 12 46
28 50 35 12 20 35 17 42 -6 7 -23 21 -26 28 -6 3 8 28 27 56 42 27 16 52 36
54 46 7 24 24 23 37 -2 13 -25 40 -26 40 -2 0 9 16 26 38 37 20 11 41 30 47
43 11 24 34 29 54 10 11 -11 15 -10 19 1 3 8 22 33 42 55 21 23 41 51 45 64 5
18 13 22 32 20 23 -3 27 2 39 47 7 28 13 67 14 88 0 30 5 39 23 46 22 9 23 14
19 68 -2 32 -10 70 -18 84 -11 23 -10 28 8 47 20 20 20 23 6 39 -9 10 -25 36
-36 59 -11 22 -28 46 -36 53 -9 8 -16 22 -16 33 0 11 -19 38 -42 60 -40 37
-41 39 -16 34 21 -5 28 -2 33 14 4 12 1 27 -5 35 -19 23 14 68 43 59 58 -17
106 -60 173 -158 44 -63 91 -117 125 -143 30 -24 74 -59 98 -78 29 -24 47 -33
54 -26 10 10 -6 36 -68 116 -17 22 -51 72 -75 110 -23 39 -82 120 -131 181
-78 101 -88 117 -94 166 -8 65 -4 69 82 93 71 20 87 34 102 90 9 35 8 45 -20
99 -17 35 -34 91 -41 133 l-10 73 -65 36 c-51 28 -73 35 -108 33 -25 -2 -50 2
-57 9 -7 7 -27 12 -44 12 -24 0 -34 5 -39 19 -3 11 -16 21 -27 23 -14 2 -24
13 -29 31 -14 51 -25 57 -111 57 -96 0 -158 25 -158 64 0 13 -7 26 -15 30 -8
3 -15 17 -15 31 0 18 -5 25 -20 25 -11 0 -20 6 -20 14 0 22 -59 73 -93 80 -17
3 -41 16 -53 27 -21 20 -24 20 -56 6 -18 -9 -64 -28 -103 -42 -38 -15 -76 -35
-83 -43 -7 -9 -38 -29 -70 -45 -31 -15 -50 -26 -42 -24 101 28 121 31 155 18
19 -7 39 -9 45 -6 14 8 70 -26 70 -43 0 -10 -24 -13 -117 -10 -116 3 -118 3
-121 -19 -4 -30 -40 -38 -97 -24 -29 7 -218 11 -575 11 l-531 0 7 38 c13 72 3
68 220 75 109 4 258 7 333 8 75 1 161 4 191 7 l55 7 33 130 c30 123 32 138 30
290 l-3 159 -58 18 c-32 10 -88 21 -125 24 -63 6 -139 34 -153 56 -4 6 -7 48
-8 95 -2 67 -6 91 -22 112 -19 26 -24 27 -99 26 l-80 -1 0 40 c0 38 6 173 30
681 6 116 17 361 25 545 8 184 19 412 24 505 22 370 24 506 10 503 -11 -2 -14
15 -14 80 0 78 -3 91 -18 75z m-2257 -2563 c0 -11 -4 -20 -10 -20 -5 0 -10 9
-10 20 0 11 5 20 10 20 6 0 10 -9 10 -20z m-5385 -68 c0 -31 -19 -28 -23 4 -3
18 0 25 10 22 7 -3 13 -14 13 -26z m89 12 c3 -9 6 -25 6 -36 0 -25 -33 -21
-38 5 -8 38 19 64 32 31z m7006 -776 c36 -12 40 -16 40 -45 0 -31 -1 -32 -36
-26 -21 3 -66 -2 -109 -12 -60 -15 -81 -17 -112 -7 -67 20 -143 23 -150 7 -3
-10 -19 -15 -45 -15 -32 0 -39 3 -36 18 5 25 104 75 163 83 89 11 244 9 285
-3z m-4186 -96 c-1 -7 -2 -23 -2 -37 -3 -40 -32 -32 -32 8 0 19 3 37 7 41 10
9 28 1 27 -12z m166 -2 c0 -5 -4 -10 -10 -10 -5 0 -10 5 -10 10 0 6 5 10 10
10 6 0 10 -4 10 -10z m-412 -1506 c31 -5 32 -7 27 -38 -12 -61 41 -146 90
-146 l25 0 0 -105 0 -105 -32 20 c-18 11 -39 20 -47 20 -7 0 -39 15 -70 34
-31 19 -69 38 -86 42 -16 4 -43 18 -59 31 -16 13 -46 33 -67 44 -28 14 -39 26
-39 42 0 32 74 68 124 60 41 -6 44 1 19 45 -17 29 -17 31 0 50 17 19 30 19
115 6z m6025 -131 c27 -29 80 -74 119 -100 77 -51 76 -61 -5 -62 -28 -1 -40
-6 -44 -19 -4 -17 -112 -56 -144 -52 -27 4 -39 0 -39 -15 0 -16 -102 -50 -126
-41 -19 7 -44 -3 -44 -19 0 -12 -83 -45 -113 -45 -13 0 -13 7 -1 53 7 28 14
84 14 124 0 68 2 73 35 106 23 23 36 47 41 76 l7 41 76 1 c42 0 94 4 116 8 49
9 49 9 108 -56z m-5023 -58 c14 -8 37 -14 53 -15 l27 0 0 -90 c0 -109 27 -201
71 -242 16 -15 29 -30 29 -33 0 -13 -148 1 -165 15 -14 12 -22 12 -48 1 -55
-23 -96 -25 -117 -6 -27 24 -25 36 9 87 62 93 81 138 93 218 6 44 14 80 17 80
3 -1 17 -7 31 -15z m966 -15 l44 0 0 -73 c0 -76 18 -145 59 -225 38 -75 26
-92 -68 -92 -30 0 -48 5 -56 17 -11 15 -17 15 -39 5 -15 -7 -51 -12 -80 -12
-49 0 -54 2 -60 26 -5 19 1 34 24 63 46 59 78 138 85 210 8 85 12 94 31 87 9
-3 36 -6 60 -6z m2820 -5 c19 -4 22 -14 27 -83 8 -99 30 -149 106 -239 34 -39
61 -77 61 -82 0 -20 -49 -12 -60 9 -14 26 -37 26 -45 0 -7 -22 -18 -23 -88
-14 -33 5 -47 12 -50 25 -7 26 -47 25 -54 -1 -5 -17 -14 -20 -59 -20 -30 0
-54 2 -54 5 0 3 15 30 34 60 76 118 95 200 73 310 l-8 40 48 -3 c26 -1 57 -5
69 -7z m-1836 -11 c3 -3 8 -54 11 -112 5 -92 10 -116 37 -172 38 -78 32 -93
-31 -78 -23 6 -86 7 -140 4 -53 -3 -104 -3 -111 0 -11 4 -4 27 29 98 42 90 65
175 65 244 l0 35 67 -7 c37 -4 70 -9 73 -12z m891 -10 l37 -6 11 -75 c11 -74
34 -152 65 -226 16 -37 16 -37 -8 -47 -13 -5 -27 -14 -31 -19 -3 -6 -30 -11
-59 -11 -44 0 -56 4 -69 23 l-16 22 -16 -22 c-14 -19 -25 -23 -76 -23 -32 0
-59 3 -59 6 0 4 20 28 44 54 54 58 76 122 83 243 6 97 4 96 94 81z"/>
</g>
</svg>
