<?xml version="1.0" standalone="no"?>
<!DOCTYPE svg PUBLIC "-//W3C//DTD SVG 20010904//EN"
 "http://www.w3.org/TR/2001/REC-SVG-20010904/DTD/svg10.dtd">
<svg version="1.0" xmlns="http://www.w3.org/2000/svg"
 width="1280.000000pt" height="390.000000pt" viewBox="0 0 1280.000000 390.000000"
 preserveAspectRatio="xMidYMid meet">
<metadata>
Created by potrace 1.15, written by Peter Selinger 2001-2017
</metadata>
<g transform="translate(0.000000,390.000000) scale(0.100000,-0.100000)"
fill="#000000" stroke="none">
<path d="M1992 3234 l-2 -242 -37 -7 c-21 -3 -56 -8 -78 -9 -22 -2 -59 -7 -83
-11 l-43 -7 3 -46 3 -45 52 -16 c40 -11 53 -21 58 -39 4 -15 19 -29 42 -39 26
-10 33 -17 23 -23 -22 -14 -80 -10 -80 6 0 17 -26 19 -36 3 -3 -6 -18 -9 -32
-6 -14 3 -37 0 -51 -6 -15 -6 -53 -11 -86 -12 -33 -1 -81 -6 -108 -10 -62 -10
-77 3 -77 64 0 25 -3 76 -7 114 -5 58 -9 67 -26 67 -18 0 -19 -6 -16 -117 4
-104 2 -118 -13 -121 -12 -2 -20 8 -28 38 l-11 41 -163 -3 -163 -3 -6 90 c-4
50 -10 173 -13 275 -4 102 -11 196 -15 210 -11 39 -10 -21 6 -315 9 -175 11
-262 4 -266 -6 -3 -46 -14 -90 -24 -66 -15 -79 -21 -72 -34 10 -22 16 -151 7
-151 -4 0 -15 7 -25 16 -19 17 -39 12 -39 -11 0 -15 -14 -21 -75 -30 -59 -10
-76 -16 -70 -24 2 -5 36 -6 75 -3 65 4 70 3 70 -16 0 -13 -9 -22 -27 -27 -77
-18 -133 -37 -133 -45 0 -4 36 -6 80 -3 68 5 80 3 80 -9 0 -17 -18 -23 -97
-34 l-53 -7 0 -47 0 -48 95 5 c57 4 99 2 107 -4 7 -6 71 -13 141 -17 70 -4
138 -11 150 -16 23 -9 -34 -12 -293 -15 -74 -1 -137 -3 -140 -4 -3 -2 -43 -4
-91 -5 -47 -1 -90 -5 -96 -9 -19 -12 -128 -5 -152 10 -28 18 -94 12 -119 -10
-9 -8 -23 -12 -29 -10 -21 8 -118 -25 -138 -47 -13 -14 -16 -29 -12 -56 8 -47
33 -74 69 -74 23 0 28 -4 28 -24 0 -18 -6 -26 -22 -28 -20 -3 -22 -8 -19 -58
1 -30 8 -58 14 -63 7 -4 32 -6 57 -5 44 2 45 1 42 -27 -2 -17 -7 -32 -10 -35
-12 -9 -10 -100 1 -100 8 0 8 -3 0 -11 -8 -8 -7 -18 3 -37 8 -15 14 -35 14
-44 0 -10 5 -18 10 -18 6 0 10 -3 9 -7 -3 -21 15 -52 33 -56 10 -3 18 -11 17
-19 -4 -16 22 -58 36 -58 5 -1 26 -19 45 -42 19 -22 46 -52 59 -67 13 -14 37
-43 54 -63 17 -21 37 -38 44 -38 7 0 13 -6 13 -14 0 -8 26 -28 58 -44 69 -35
112 -40 412 -47 124 -3 353 -10 510 -15 1496 -52 1461 -54 1770 79 52 23 107
48 122 56 21 12 75 15 280 15 150 0 300 6 368 14 109 13 262 46 305 66 11 5
31 12 45 15 48 13 160 59 160 66 0 4 16 10 35 13 19 4 48 19 64 34 16 15 48
38 70 52 23 13 41 30 41 37 0 7 6 13 13 13 15 0 60 46 70 73 3 9 11 17 17 17
5 0 10 9 10 20 0 10 5 32 11 47 6 15 15 37 18 48 19 53 75 157 90 164 9 5 49
12 89 16 39 4 72 8 72 10 0 8 -72 121 -101 158 -62 81 -66 82 -451 82 -186 -1
-338 3 -338 7 0 4 -9 8 -20 8 -11 0 -20 -5 -20 -12 0 -11 -226 -8 -564 9 -127
6 -207 21 -213 40 -2 5 78 17 194 27 165 15 208 22 255 43 56 25 57 26 42 48
l-15 24 354 3 c283 2 357 6 371 17 13 11 129 16 578 27 309 7 565 17 570 22 5
5 8 29 6 53 -3 40 -6 44 -31 47 -19 2 -31 11 -38 29 -7 20 -14 24 -32 19 -12
-3 -39 -6 -59 -6 -28 0 -36 -4 -32 -14 7 -17 -41 -21 -456 -36 -368 -13 -497
-13 -505 0 -3 6 -20 10 -37 10 -17 0 -42 10 -59 24 -37 31 -96 40 -217 33 -87
-5 -97 -8 -126 -35 -26 -25 -42 -30 -98 -35 -60 -6 -69 -4 -78 13 -10 19 -18
19 -131 13 l-121 -6 -36 42 c-35 38 -42 42 -114 53 -42 6 -75 16 -71 20 3 6
-15 6 -43 2 -90 -15 -220 5 -210 32 3 7 -1 18 -9 24 -8 6 -15 30 -17 53 l-3
42 -187 -4 c-103 -2 -211 -6 -240 -10 l-53 -6 0 -45 c0 -38 -3 -45 -21 -48
-12 -2 -37 7 -57 20 -29 19 -36 29 -37 56 0 17 -4 32 -10 32 -5 0 -10 20 -10
44 l0 43 53 9 c35 6 52 14 52 24 0 11 18 18 65 25 59 9 65 12 65 34 0 20 7 27
35 33 19 5 49 15 65 23 46 21 256 75 292 75 32 0 51 14 34 24 -5 3 -69 -9
-142 -28 -156 -39 -307 -54 -316 -31 -7 19 -33 20 -33 2 0 -16 -147 -48 -180
-40 -11 3 -40 -1 -65 -8 -36 -11 -45 -18 -43 -34 2 -14 -3 -21 -20 -23 -28 -4
-23 -28 5 -25 16 2 22 -5 26 -34 6 -36 -6 -73 -24 -73 -5 0 -14 -12 -20 -26
l-10 -27 -117 6 c-65 2 -131 3 -146 0 -25 -5 -27 -8 -21 -39 3 -20 2 -34 -4
-34 -5 0 -11 10 -13 22 -5 34 -30 36 -26 2 2 -22 -3 -31 -25 -44 -26 -14 -29
-14 -41 3 -9 12 -27 17 -60 17 -47 0 -47 0 -32 22 21 30 21 88 0 88 -9 0 -14
7 -12 17 2 13 21 22 68 31 96 21 94 20 81 36 -9 11 -1 15 44 21 30 3 58 11 61
17 8 12 -19 9 -165 -17 -129 -23 -121 -34 -122 173 -1 97 -5 206 -9 242 -5 44
-7 -15 -8 -176z m138 -264 c0 -5 -12 -10 -27 -9 l-28 1 25 8 c14 4 26 8 28 9
1 1 2 -3 2 -9z m-288 -112 c-9 -9 -15 -9 -24 0 -9 9 -7 12 12 12 19 0 21 -3
12 -12z m-939 -325 c-7 -2 -21 -2 -30 0 -10 3 -4 5 12 5 17 0 24 -2 18 -5z
m-788 -383 c-3 -10 -1 -29 5 -41 10 -17 9 -20 -2 -17 -16 6 -24 78 -8 78 7 0
9 -8 5 -20z m4380 -510 c22 -11 53 -20 70 -20 18 0 35 -3 39 -7 8 -9 -83 -93
-100 -93 -7 0 -15 -7 -18 -16 -4 -10 -13 -13 -26 -9 -14 5 -20 2 -20 -10 0
-12 -6 -15 -20 -10 -14 4 -20 2 -20 -9 0 -21 -18 -30 -34 -17 -11 9 -15 6 -19
-11 -5 -18 -9 -20 -19 -10 -18 18 -27 15 -21 -8 4 -14 0 -20 -10 -20 -29 0
-36 32 -21 90 8 30 12 68 10 83 -4 20 -1 29 12 34 9 3 25 13 35 21 15 13 54
24 112 31 6 0 28 -8 50 -19z m-3865 -84 c0 -19 -27 -39 -40 -31 -8 5 -6 13 6
26 20 22 34 25 34 5z m3210 -92 c0 -7 16 -31 35 -53 19 -21 35 -41 35 -45 0
-13 -23 -5 -36 12 -13 16 -13 16 -14 0 0 -10 -4 -18 -10 -18 -5 0 -13 8 -19
18 -9 16 -10 16 -16 0 -4 -10 -13 -18 -20 -18 -22 0 -26 31 -6 58 10 15 22 37
25 50 8 23 26 21 26 -4z m410 -64 c0 -5 -4 -10 -10 -10 -5 0 -10 5 -10 10 0 6
5 10 10 10 6 0 10 -4 10 -10z m-50 -20 c0 -5 -5 -10 -11 -10 -5 0 -7 5 -4 10
3 6 8 10 11 10 2 0 4 -4 4 -10z"/>
<path d="M7400 2501 l0 -429 -49 -12 c-28 -6 -59 -9 -71 -5 -11 4 -26 2 -33
-3 -20 -15 -85 -22 -90 -9 -3 8 -10 7 -24 -5 -11 -10 -30 -18 -42 -18 -17 0
-20 -3 -13 -17 5 -10 9 -40 8 -68 l-1 -50 -50 -3 c-111 -5 -150 -23 -80 -36
28 -6 35 -11 35 -30 0 -19 -7 -25 -35 -30 -44 -9 -45 -20 -2 -32 24 -7 33 -16
35 -35 3 -22 -2 -27 -29 -33 -31 -6 -31 -7 -26 -47 7 -53 13 -58 75 -66 50 -6
63 -15 42 -28 -19 -12 -358 -7 -381 5 -16 9 -24 8 -37 -3 -21 -18 -171 -16
-182 3 -5 8 -30 10 -81 6 -41 -4 -110 -8 -154 -9 -102 -4 -161 -15 -176 -33
-14 -17 -7 -120 10 -153 10 -17 21 -21 61 -21 42 0 50 -3 50 -18 0 -10 3 -22
6 -25 9 -8 8 -92 -1 -190 l-7 -78 51 7 c42 5 51 4 51 -9 0 -8 12 -18 26 -21
17 -5 24 -12 20 -21 -9 -24 20 -158 42 -195 12 -19 27 -46 32 -60 6 -14 21
-35 33 -48 45 -46 55 -58 66 -79 6 -13 17 -23 24 -23 7 0 32 -23 56 -50 25
-28 51 -50 58 -50 8 0 31 -16 51 -35 20 -20 48 -38 62 -42 14 -3 44 -17 67
-30 79 -46 154 -54 408 -47 221 6 486 13 533 13 51 0 110 0 152 -1 25 0 60 0
78 0 17 1 41 1 52 1 42 0 106 -1 140 -1 19 0 49 0 65 0 17 1 67 1 112 1 45 0
84 5 88 11 4 7 13 6 27 -1 13 -7 37 -8 62 -4 23 4 67 6 98 5 31 -1 67 4 78 10
16 9 25 8 35 0 9 -8 34 -10 67 -6 29 3 62 5 73 5 11 -1 72 -1 135 -1 63 0 129
0 145 0 17 -1 49 0 73 0 54 1 73 1 122 0 22 0 56 0 75 0 19 0 45 0 58 0 81 -1
559 13 592 18 23 3 70 7 105 10 127 7 176 12 220 19 60 9 242 56 255 65 6 4
24 10 40 14 17 4 48 15 70 25 22 10 63 26 90 36 28 10 55 23 60 29 6 6 36 23
68 38 32 16 57 34 57 43 0 8 8 15 18 15 19 0 92 56 92 71 0 5 18 28 41 51 31
32 39 47 34 65 -3 14 2 34 12 51 29 45 139 185 166 210 l25 24 11 -21 c10 -17
21 -21 61 -21 l49 0 -34 57 c-19 31 -32 60 -29 65 3 5 -6 22 -20 39 -14 17
-26 35 -26 40 0 5 -11 9 -25 9 -13 0 -43 10 -65 21 -55 29 -304 43 -657 36
-216 -4 -263 -2 -267 9 -7 19 -36 18 -36 -1 0 -11 -11 -15 -42 -15 -76 0 -118
11 -118 30 0 31 -90 41 -139 16 -17 -9 -32 -11 -42 -6 -7 5 -24 7 -36 4 -24
-7 -63 3 -63 16 0 4 64 9 141 12 133 3 143 5 157 26 9 14 25 22 42 22 43 0 60
10 60 34 0 17 9 24 44 35 45 13 83 13 808 -5 232 -6 300 -4 312 5 12 10 135
12 568 9 l553 -3 3 28 c4 33 -13 57 -39 57 -12 0 -19 7 -19 20 0 18 -7 20 -62
20 -56 0 -60 -1 -42 -14 10 -8 17 -16 14 -18 -13 -9 -951 12 -969 22 -11 5
-34 10 -50 10 -21 0 -42 10 -63 30 l-31 30 -128 0 c-121 0 -129 -1 -157 -25
-29 -24 -33 -25 -196 -25 -155 0 -166 1 -166 19 0 23 -55 31 -227 31 -67 0
-124 4 -127 9 -3 4 -16 6 -29 4 -18 -4 -26 2 -35 22 -15 33 -16 31 10 55 12
11 18 20 13 20 -5 0 -16 -6 -24 -14 -14 -13 -23 -13 -71 0 -30 8 -79 14 -110
15 -30 0 -82 5 -115 9 -33 5 -82 12 -110 15 -27 2 -75 8 -105 12 -30 3 -66 7
-80 8 -50 3 -196 16 -232 21 l-37 6 1 72 c1 40 -2 78 -6 85 -5 7 -54 11 -154
11 -163 -1 -182 -7 -182 -57 0 -16 -8 -37 -17 -45 -21 -17 -89 -23 -98 -9 -3
6 -18 8 -33 6 -40 -8 -63 15 -53 51 8 32 26 39 134 50 40 4 57 10 57 20 0 11
16 14 69 14 l69 0 -5 44 -5 44 56 7 c31 4 59 11 62 16 3 5 23 9 44 9 21 0 42
5 46 11 4 8 0 9 -15 4 -12 -3 -47 -3 -79 1 l-57 8 50 7 c28 4 77 12 110 18 33
7 138 19 234 29 129 13 176 21 179 31 4 11 -3 13 -29 7 -81 -16 -325 -36 -455
-36 -125 0 -143 2 -148 17 -5 13 -9 14 -15 5 -10 -17 -181 -35 -258 -28 -41 4
-63 3 -63 -4 0 -5 -11 -10 -24 -10 -14 0 -28 -4 -31 -10 -3 -5 -1 -10 4 -10 6
0 11 -4 11 -9 0 -5 -18 -11 -40 -15 -38 -6 -53 -20 -29 -28 5 -2 13 -22 16
-45 5 -39 3 -43 -21 -53 -15 -5 -61 -10 -102 -10 -43 0 -74 -4 -74 -10 0 -5
-3 -9 -7 -9 -5 1 -10 0 -13 -1 -3 -1 -25 -3 -50 -6 -132 -12 -130 -11 -130
-53 0 -33 -4 -39 -35 -54 -44 -21 -87 -22 -126 -2 -16 9 -33 14 -37 12 -4 -3
-16 -1 -27 3 -11 4 -31 3 -44 -2 -28 -10 -191 -11 -296 -2 -38 3 -85 5 -104 4
l-33 -1 6 123 c9 196 15 827 6 708 -4 -58 -8 -184 -9 -281 0 -97 -4 -264 -8
-372 l-6 -197 -74 0 c-73 0 -74 0 -85 30 -6 19 -19 32 -34 36 -23 6 -24 9 -24
99 0 84 -2 93 -21 102 -22 9 -22 10 -20 346 2 234 -1 337 -8 337 -8 0 -11
-132 -11 -429z m1790 -201 c-20 -13 -83 -13 -75 0 3 6 25 10 48 10 31 0 38 -3
27 -10z m-280 -116 c43 7 51 -4 26 -37 -10 -12 -28 -18 -56 -19 -22 0 -43 2
-46 4 -2 3 -1 19 2 37 5 25 9 29 20 20 9 -7 30 -9 54 -5z m208 -21 l3 -33 -77
0 c-76 0 -77 0 -59 20 10 11 24 20 30 20 7 0 18 7 25 16 8 9 25 14 44 12 27
-3 31 -7 34 -35z m-110 -60 c-10 -2 -28 -2 -40 0 -13 2 -5 4 17 4 22 1 32 -1
23 -4z m-1908 -242 c0 -10 -58 -23 -71 -15 -5 3 -7 10 -4 15 8 11 75 12 75 0z
m-40 -52 c0 -5 -9 -9 -20 -9 -19 0 -26 11 -14 23 8 8 34 -3 34 -14z m144 -35
c10 -27 7 -44 -9 -44 -10 0 -15 10 -15 30 0 32 14 40 24 14z m-64 -9 c0 -8 -9
-15 -20 -15 -11 0 -20 7 -20 15 0 8 9 15 20 15 11 0 20 -7 20 -15z m-83 -1
c-3 -3 -12 -4 -19 -1 -8 3 -5 6 6 6 11 1 17 -2 13 -5z m3 -43 c0 -10 -7 -21
-15 -25 -11 -4 -15 1 -15 19 0 16 6 25 15 25 8 0 15 -9 15 -19z m71 -6 c-1
-15 -24 -12 -29 3 -3 9 2 13 12 10 10 -1 17 -7 17 -13z m723 -216 c209 -20
276 -34 276 -59 0 -12 9 -13 -80 11 -59 16 -120 22 -281 27 -134 5 -211 11
-220 19 -8 7 -42 14 -74 16 -37 2 -18 4 49 5 60 1 209 -7 330 -19z m2906 -728
c0 -14 -18 -23 -30 -16 -6 4 -8 11 -5 16 8 12 35 12 35 0z m182 -21 c52 0 71
-17 48 -45 -12 -14 -15 -14 -30 0 -24 22 -31 19 -24 -10 6 -25 -8 -35 -21 -15
-11 18 -27 10 -22 -10 3 -13 -1 -24 -13 -30 -25 -13 -30 -13 -30 5 0 8 -4 15
-10 15 -5 0 -10 -9 -10 -20 0 -23 -31 -41 -38 -22 -2 7 -8 12 -14 12 -6 0 -8
-6 -5 -14 3 -8 -3 -22 -15 -32 -19 -18 -20 -18 -33 -1 -15 21 -26 22 -19 2 9
-23 -25 -31 -41 -9 -14 18 -14 18 -15 -8 0 -35 -37 -49 -57 -22 -12 17 -13 17
-13 -4 0 -27 -27 -29 -46 -4 -12 16 -13 15 -14 -5 0 -12 -9 -27 -19 -33 -27
-14 -28 -13 -35 13 l-7 22 -9 -22 c-13 -31 -40 -30 -40 1 0 20 7 25 38 31 20
4 55 15 77 25 22 10 51 21 65 25 14 4 32 13 40 20 8 7 32 18 52 25 21 6 44 19
50 28 7 9 20 18 28 20 35 8 79 43 73 59 -5 14 -1 15 27 10 18 -4 55 -7 82 -7z
m-4323 -15 c9 -8 37 -32 62 -52 26 -21 56 -46 68 -55 25 -21 29 -73 5 -82 -18
-7 -44 10 -44 28 0 6 -10 16 -22 21 -13 6 -22 17 -20 24 2 8 -4 10 -17 6 -14
-4 -22 1 -32 24 -7 16 -16 28 -20 25 -4 -2 -11 6 -15 18 -4 13 -12 26 -18 31
-8 5 -6 10 4 17 21 13 31 12 49 -5z m4101 6 c0 -5 -6 -14 -14 -20 -10 -8 -16
-8 -25 2 -6 8 -8 17 -4 20 9 10 43 8 43 -2z m-60 -22 c0 -16 -5 -20 -20 -16
-15 4 -20 0 -20 -13 0 -25 -21 -31 -42 -12 -16 14 -18 13 -18 -7 0 -16 -5 -21
-17 -19 -10 2 -26 -6 -35 -17 -13 -16 -19 -18 -29 -7 -15 14 -33 16 -25 3 3
-5 -1 -14 -8 -21 -20 -15 -38 19 -34 63 l3 32 105 16 c142 23 140 23 140 -2z
m-686 -111 c9 -29 20 -59 23 -65 2 -7 0 -13 -6 -13 -6 0 -12 8 -12 18 -1 15
-2 15 -6 1 -6 -26 -44 -32 -50 -8 -6 23 -19 25 -27 4 -3 -8 -10 -15 -16 -15
-5 0 -10 7 -10 15 0 8 -4 15 -10 15 -5 0 -10 -6 -10 -14 0 -16 -27 -29 -41
-20 -5 3 -9 13 -9 22 -1 15 -2 15 -15 -2 -24 -32 -25 -14 -3 46 l20 57 62 4
c33 2 68 4 77 5 10 1 21 -15 33 -50z m-609 -60 c6 -22 4 -28 -9 -28 -21 0 -37
40 -23 58 13 16 23 6 32 -30z m-1565 -30 c0 -17 -40 -8 -41 10 0 13 -2 12 -9
-5 -5 -13 -14 -23 -20 -23 -14 0 -13 6 6 42 l16 30 24 -23 c13 -12 24 -26 24
-31z m1520 27 c0 -8 -7 -15 -15 -15 -16 0 -20 12 -8 23 11 12 23 8 23 -8z
m-1985 -88 c41 -34 45 -57 10 -57 -15 0 -25 6 -25 14 0 24 -21 30 -27 7 -7
-27 -29 -27 -36 -1 -3 11 -10 20 -16 20 -6 0 -11 -9 -11 -20 0 -15 -7 -20 -25
-20 -18 0 -25 5 -25 20 0 11 -5 20 -11 20 -6 0 -13 -9 -16 -20 -3 -11 -12 -20
-19 -20 -25 0 -14 24 19 45 18 11 43 37 56 57 l24 37 33 -27 c19 -15 50 -40
69 -55z m915 63 c0 -5 -4 -10 -10 -10 -5 0 -10 5 -10 10 0 6 5 10 10 10 6 0
10 -4 10 -10z m2138 -32 c-4 -30 -48 -39 -48 -10 0 24 8 32 32 32 14 0 19 -6
16 -22z m-1018 -7 c0 -5 -7 -11 -15 -15 -9 -3 -15 0 -15 9 0 8 7 15 15 15 8 0
15 -4 15 -9z"/>
</g>
</svg>
