<?xml version="1.0" standalone="no"?>
<!DOCTYPE svg PUBLIC "-//W3C//DTD SVG 20010904//EN"
 "http://www.w3.org/TR/2001/REC-SVG-20010904/DTD/svg10.dtd">
<svg version="1.0" xmlns="http://www.w3.org/2000/svg"
 width="1280.000000pt" height="762.000000pt" viewBox="0 0 1280.000000 762.000000"
 preserveAspectRatio="xMidYMid meet">
<metadata>
Created by potrace 1.15, written by Peter Selinger 2001-2017
</metadata>
<g transform="translate(0.000000,762.000000) scale(0.100000,-0.100000)"
fill="#000000" stroke="none">
<path d="M11683 7581 c-137 -110 -296 -306 -428 -524 -50 -82 -188 -293 -307
-470 -534 -792 -733 -1093 -825 -1249 l-100 -166 -169 -158 c-93 -86 -263
-250 -379 -364 -115 -114 -251 -241 -301 -282 -118 -99 -385 -300 -391 -294
-2 2 4 21 15 43 17 32 48 181 40 188 -2 2 -52 -54 -113 -123 -219 -250 -403
-438 -535 -547 -150 -123 -160 -133 -275 -262 -162 -181 -204 -272 -205 -440
0 -111 19 -173 75 -247 66 -87 96 -259 76 -434 -12 -106 -14 -109 -113 -312
-92 -187 -106 -210 -167 -270 -66 -67 -173 -129 -351 -205 -36 -16 -180 -103
-320 -194 -256 -165 -256 -165 -304 -238 l-47 -74 25 -43 c58 -100 161 -159
394 -231 84 -25 163 -51 175 -56 13 -6 56 -62 97 -126 150 -233 198 -253 458
-192 112 26 176 25 227 -4 25 -14 76 -68 137 -144 115 -144 131 -152 206 -105
l48 29 31 -24 c41 -32 94 -44 139 -31 45 12 108 68 125 111 7 17 13 33 14 35
1 1 55 -12 121 -29 133 -35 182 -34 221 3 23 21 24 28 19 78 -5 42 -14 62 -36
85 -17 17 -30 37 -30 45 1 17 157 71 203 70 38 0 63 14 115 63 39 38 42 45 42
93 0 28 -6 67 -14 85 -8 19 -16 45 -18 59 l-3 25 105 -3 c192 -6 313 25 345
89 19 36 14 72 -22 143 -13 26 -22 54 -20 61 3 7 32 14 74 17 87 6 156 36 183
80 36 57 11 131 -56 163 -24 11 -34 23 -34 39 0 21 5 23 58 25 78 2 149 38
190 94 l31 44 -19 31 c-11 17 -31 38 -45 48 -35 23 -31 38 17 60 75 34 154 99
177 146 41 86 21 127 -47 92 -21 -10 -41 -20 -46 -23 -6 -2 2 15 15 39 15 24
55 64 95 94 53 39 69 57 69 76 0 21 -6 26 -35 30 -50 7 -51 34 -3 58 49 25 87
61 108 101 21 41 12 68 -25 75 -17 3 -44 9 -60 12 l-30 6 37 25 c91 61 143
139 143 216 0 41 -3 47 -21 47 -12 0 -43 -12 -70 -27 l-49 -28 -22 23 -22 22
25 0 c67 0 241 186 263 281 4 18 1 31 -10 40 -13 11 -27 9 -82 -10 -40 -13
-84 -21 -107 -19 l-40 3 60 30 c33 17 65 40 71 52 6 12 24 32 40 45 126 95
243 243 227 285 -8 21 -53 15 -141 -21 -122 -50 -104 -19 44 74 191 119 234
155 272 229 19 39 32 79 32 103 0 37 -1 38 -35 38 -37 0 -152 -39 -188 -65
-12 -8 -26 -15 -31 -15 -21 0 35 45 163 132 75 51 179 126 231 168 52 41 169
129 260 195 458 330 596 440 750 595 86 87 210 242 210 263 0 10 -115 -25
-164 -50 -28 -14 -85 -46 -126 -71 -93 -56 -512 -273 -518 -267 -2 2 35 34 84
72 550 428 936 802 1135 1098 70 105 92 150 93 195 1 33 -1 35 -34 38 -50 4
-189 -66 -328 -166 -61 -44 -217 -166 -345 -270 -275 -224 -385 -307 -394
-299 -3 4 30 45 73 93 97 106 104 115 268 344 314 439 436 717 337 769 -48 26
-87 14 -158 -48 -115 -100 -353 -348 -506 -526 -80 -93 -210 -234 -289 -311
-173 -171 -448 -415 -460 -408 -4 3 -8 27 -8 53 0 49 0 49 198 282 286 340
464 571 586 764 139 219 125 194 181 315 27 58 63 129 82 158 39 61 40 71 12
106 -15 19 -30 26 -54 26 -68 0 -318 -250 -658 -658 -120 -145 -221 -262 -223
-259 -3 2 46 94 107 203 242 433 442 865 569 1226 40 112 41 118 25 147 -8 17
-22 31 -29 31 -8 0 -36 -18 -63 -39z m-2943 -3604 c0 -7 -15 -21 -32 -31 l-33
-19 29 32 c33 35 36 36 36 18z m-115 -90 c-194 -143 -495 -410 -577 -513 -51
-63 -70 -75 -84 -52 -5 8 19 37 64 78 50 47 72 74 72 91 1 19 37 52 180 162
98 77 221 165 272 198 96 60 126 75 73 36z m-829 -1977 c-15 -66 -54 -146
-144 -297 -66 -111 -68 -112 -132 -142 -94 -43 -192 -70 -274 -77 -87 -7 -85
-5 88 82 263 133 311 177 408 369 34 68 64 123 65 121 1 -1 -4 -26 -11 -56z"/>
<path d="M1031 7574 c-12 -15 -21 -30 -21 -35 0 -19 129 -369 182 -494 113
-264 307 -647 488 -960 27 -48 50 -91 50 -96 0 -13 -57 52 -225 256 -251 305
-399 463 -558 600 -73 63 -81 67 -115 63 -19 -2 -33 -13 -46 -39 l-20 -36 31
-49 c18 -27 58 -105 91 -174 126 -267 381 -623 791 -1105 l170 -200 1 -51 c0
-28 -3 -53 -6 -57 -11 -11 -374 320 -534 487 -86 88 -206 220 -267 291 -61 72
-201 218 -310 326 -165 164 -204 198 -234 203 -131 23 -139 -91 -22 -314 81
-155 170 -307 198 -340 12 -14 48 -63 80 -110 116 -167 209 -286 287 -366 44
-45 76 -84 71 -87 -12 -8 -139 88 -401 301 -360 292 -485 378 -625 428 -41 14
-87 5 -87 -18 0 -67 120 -255 278 -438 212 -246 611 -607 955 -864 42 -32 77
-63 77 -67 0 -12 -317 148 -480 242 -148 85 -231 125 -285 135 l-39 7 18 -29
c130 -204 349 -403 836 -754 129 -94 278 -204 330 -245 52 -41 170 -127 263
-191 92 -64 170 -120 173 -125 3 -5 -2 -9 -10 -9 -8 0 -17 4 -21 9 -9 16 -162
71 -195 71 -27 0 -30 -3 -30 -34 0 -43 22 -105 54 -153 29 -43 78 -79 254
-189 67 -42 122 -84 122 -92 0 -8 -6 -12 -12 -9 -147 62 -191 73 -208 52 -26
-31 75 -167 197 -265 43 -35 77 -65 76 -67 -11 -14 5 -28 60 -52 l62 -29 -35
-6 c-26 -5 -51 -2 -88 13 -65 26 -108 27 -116 4 -26 -68 219 -342 274 -308 17
11 11 -7 -7 -21 -25 -19 -40 -17 -73 6 -16 11 -42 23 -59 26 l-31 7 0 -47 c0
-26 6 -62 14 -81 18 -42 87 -118 135 -147 l36 -23 -54 -8 c-30 -4 -61 -13 -68
-19 -33 -27 21 -114 98 -156 56 -31 60 -53 11 -63 -42 -9 -46 -13 -38 -43 4
-15 26 -38 54 -57 63 -43 101 -78 118 -111 17 -33 15 -34 -36 -8 -48 24 -70
18 -70 -21 0 -71 75 -156 182 -207 31 -15 57 -32 57 -38 1 -5 -11 -20 -26 -31
-16 -11 -36 -34 -46 -51 -17 -30 -17 -30 16 -74 44 -58 100 -87 181 -95 59 -5
66 -8 66 -27 0 -14 -11 -26 -33 -36 -46 -22 -80 -76 -73 -119 9 -55 56 -95
135 -114 38 -10 85 -17 105 -17 44 0 45 -11 9 -75 -33 -60 -36 -123 -8 -155
45 -51 97 -64 278 -68 151 -4 168 -6 162 -21 -4 -9 -9 -28 -12 -44 -3 -15 -10
-30 -14 -33 -5 -3 -9 -31 -9 -64 0 -58 0 -58 54 -108 46 -41 63 -50 106 -56
29 -4 81 -18 117 -31 36 -14 69 -22 74 -19 20 12 7 -32 -17 -57 -25 -26 -43
-79 -44 -127 0 -40 42 -72 95 -72 39 0 208 36 257 55 9 4 18 -7 27 -30 40
-112 178 -158 261 -89 l30 26 44 -26 c48 -28 93 -33 118 -13 8 6 49 55 90 107
84 106 137 157 171 164 70 14 97 13 204 -9 192 -40 279 -30 345 41 14 16 60
81 101 144 41 64 81 121 88 127 8 6 91 35 184 63 242 74 335 128 402 233 26
42 27 42 -35 134 -35 54 -32 52 -447 322 -38 25 -135 76 -214 113 -300 140
-321 160 -465 446 l-105 208 -12 107 c-19 173 14 381 70 431 10 9 33 48 51 87
31 69 32 73 28 182 -5 127 -24 190 -87 283 -67 100 -224 265 -356 374 -145
120 -331 307 -539 543 -77 86 -141 155 -143 153 -9 -8 21 -143 39 -179 11 -22
17 -41 14 -44 -6 -6 -145 95 -282 203 -160 127 -265 222 -429 387 -88 89 -243
239 -345 334 l-185 171 -109 184 c-101 168 -244 384 -814 1230 -114 168 -250
377 -302 463 -144 238 -370 507 -472 561 -25 13 -28 12 -47 -12z m3077 -3653
c3 -9 -5 -7 -22 4 -14 10 -26 22 -26 27 0 13 43 -15 48 -31z m161 -109 c46
-29 162 -114 257 -188 137 -107 174 -141 174 -159 0 -16 22 -43 72 -89 70 -62
72 -66 55 -83 -16 -17 -18 -16 -33 7 -34 52 -324 329 -444 425 -228 182 -228
182 -81 87z m876 -2141 c50 -66 155 -136 335 -226 74 -37 137 -69 139 -71 26
-24 -127 -2 -234 33 -148 48 -165 60 -227 165 -100 168 -167 317 -168 373 0 6
26 -42 58 -106 31 -63 75 -139 97 -168z"/>
</g>
</svg>
